<svg width="15" height="15" viewBox="0 0 15 15" fill="none" xmlns="http://www.w3.org/2000/svg">
<path d="M8.81129 0H2.90578V0.968504H1.93433V15H12.0948V14.0315H13.0633V4.25492H13.0662L8.81129 0ZM8.95303 0.826772L12.2394 4.11319H8.95303V0.826772ZM11.6135 14.5157H2.41858V1.45276H2.90283V14.0344H11.6135V14.5157ZM12.582 13.5502H3.38708V13.5472V0.484252H8.46877V4.59744H12.582V13.5502Z" fill="#211E1E"/>
<path d="M11.2083 7.60914H8.74574L7.98393 5.26465L7.22212 7.60914H4.75952L6.75263 9.05599L5.99082 11.4005L7.98393 9.95363L9.97704 11.4005L9.21523 9.05599L11.2083 7.60914ZM7.98393 9.35422L6.91208 10.1337L7.32251 8.87292L6.25066 8.09339H7.57645L7.98688 6.83256L8.39732 8.09339H9.7231L8.65125 8.87292L9.05578 10.1337L7.98393 9.35422Z" fill="#211E1E"/>
</svg>
