<svg width="33" height="34" viewBox="0 0 33 34" fill="none" xmlns="http://www.w3.org/2000/svg">
<g clip-path="url(#clip0)">
<path d="M31.08 5.9024L25.4111 3.54066C24.7893 3.28165 24.0761 3.28172 23.4543 3.54072L20.7325 4.67442C20.4892 4.77583 20.3741 5.05514 20.4755 5.29843C20.5768 5.54172 20.8561 5.65688 21.0995 5.55547L23.8213 4.42171C24.2097 4.25985 24.6555 4.25979 25.0442 4.42164L30.7128 6.78326C31.2642 7.01325 31.6205 7.53044 31.6205 8.10069V28.5077C31.6205 29.3013 30.9389 29.9468 30.1012 29.9468H29.3276C29.064 29.9468 28.8504 30.1604 28.8504 30.424C28.8504 30.6876 29.064 30.9012 29.3276 30.9012H30.1012C31.4651 30.9012 32.5749 29.8275 32.5749 28.5077V8.10069C32.5749 7.14406 31.9881 6.28121 31.08 5.9024Z" fill="white"/>
<path d="M27.2477 29.9469H19.23C19.5601 29.5716 19.7409 29.0955 19.7409 28.5917C19.7409 28.0889 19.5589 27.6281 19.2577 27.2708C19.4476 27.1739 19.6235 27.0471 19.7787 26.8919C20.1663 26.5042 20.3797 25.9888 20.3797 25.4405C20.3797 24.9177 20.183 24.4403 19.8601 24.0775C20.02 23.987 20.1688 23.8748 20.3022 23.7413C20.6898 23.3538 20.9032 22.8384 20.9032 22.2899C20.9032 21.7687 20.7077 21.2925 20.3867 20.93C20.5492 20.8388 20.7006 20.7251 20.8364 20.5897C21.2238 20.2015 21.437 19.6862 21.437 19.1386C21.437 18.0065 20.5163 17.0855 19.3845 17.0855H17.2449V8.10067C17.2449 7.53036 17.6012 7.01317 18.1523 6.7833L19.0202 6.42192C19.2635 6.32063 19.3786 6.04133 19.2773 5.79797C19.1759 5.55468 18.8966 5.43939 18.6533 5.54087L17.7851 5.90238C16.8772 6.28112 16.2905 7.14404 16.2905 8.10067V17.0855H14.2968C14.9607 14.9875 14.9042 12.7979 14.1294 10.2567C14.0117 9.8718 13.7775 9.54217 13.4521 9.30339C13.1286 9.06608 12.7452 8.94055 12.3433 8.94055C11.8255 8.94055 11.3441 9.14733 10.9876 9.52276C10.6312 9.89814 10.4498 10.3896 10.4766 10.9064C10.6258 13.7756 9.30231 14.7632 7.47055 16.1301C6.86747 16.5801 6.20834 17.0723 5.56053 17.6759V17.0505C5.56053 16.7869 5.34695 16.5733 5.08336 16.5733H0.477201C0.213612 16.5733 3.05176e-05 16.7869 3.05176e-05 17.0505V30.5837C3.05176e-05 30.8473 0.213612 31.0608 0.477201 31.0608H5.08349C5.34708 31.0608 5.56066 30.8473 5.56066 30.5837V29.3832C6.46697 29.4694 7.1289 29.6501 7.772 30.143C8.1942 30.4665 8.71463 30.6448 9.23742 30.6448H17.6529C17.9967 30.8123 18.3778 30.9011 18.7642 30.9011H27.2477C27.5113 30.9011 27.7249 30.6876 27.7249 30.424C27.7249 30.1604 27.5113 29.9469 27.2477 29.9469ZM8.35255 29.3855C7.4528 28.696 6.49121 28.5044 5.56066 28.4241V22.8523C5.56066 22.5887 5.34708 22.3751 5.08349 22.3751C4.8199 22.3751 4.60632 22.5887 4.60632 22.8523V30.1066H0.954372V17.5277H4.60632V20.7732C4.60632 21.0368 4.8199 21.2503 5.08349 21.2503C5.34708 21.2503 5.56066 21.0368 5.56066 20.7732V19.0315C6.35887 18.1506 7.21358 17.5128 8.04144 16.895C9.87435 15.5274 11.6055 14.2354 11.4299 10.8569C11.4167 10.604 11.5054 10.3636 11.6799 10.1799C11.8544 9.99612 12.09 9.89496 12.3435 9.89496C12.5409 9.89496 12.729 9.95648 12.8876 10.0729C13.046 10.1891 13.1598 10.3492 13.2168 10.5355C14.0059 13.124 13.9936 15.3018 13.178 17.3892C13.1206 17.536 13.1395 17.7017 13.2283 17.832C13.3172 17.9622 13.4647 18.0401 13.6224 18.0401H19.3846C19.9902 18.0401 20.4828 18.533 20.4828 19.1388C20.4828 19.4318 20.3685 19.7077 20.1616 19.9151C19.9536 20.1226 19.6777 20.237 19.3846 20.237H17.4244C17.1608 20.237 16.9472 20.4505 16.9472 20.7141C16.9472 20.9777 17.1608 21.1913 17.4244 21.1913H18.8508C19.4563 21.1913 19.9489 21.6842 19.9489 22.2901C19.9489 22.5836 19.8348 22.8594 19.6274 23.0668C19.4201 23.2741 19.1443 23.3883 18.8508 23.3883H17.4244C17.1608 23.3883 16.9472 23.6018 16.9472 23.8654C16.9472 24.129 17.1608 24.3426 17.4244 24.3426H18.3271C18.9327 24.3426 19.4253 24.8352 19.4253 25.4407C19.4253 25.7342 19.3111 26.01 19.1038 26.2174C18.8961 26.4252 18.6202 26.5395 18.3271 26.5395H17.6884H16.9007C16.6371 26.5395 16.4235 26.7531 16.4235 27.0167C16.4235 27.2803 16.6371 27.4938 16.9007 27.4938H17.6884C18.2939 27.4938 18.7866 27.9865 18.7866 28.592C18.7866 28.8854 18.6722 29.1615 18.4655 29.3688C18.2717 29.5621 17.9655 29.6855 17.7364 29.6896C17.7206 29.6898 9.23742 29.6907 9.23742 29.6907C8.92338 29.6904 8.60908 29.5821 8.35255 29.3855Z" fill="white"/>
<path d="M26.1548 8.31273C26.1548 7.31003 25.3391 6.49426 24.3364 6.49426C23.3337 6.49426 22.5179 7.31003 22.5179 8.31273C22.5179 9.31542 23.3337 10.1312 24.3364 10.1312C25.3391 10.1312 26.1548 9.31542 26.1548 8.31273ZM23.4722 8.31273C23.4722 7.83626 23.8599 7.4486 24.3364 7.4486C24.8128 7.4486 25.2005 7.83626 25.2005 8.31273C25.2005 8.7892 24.8128 9.17685 24.3364 9.17685C23.8599 9.17685 23.4722 8.78926 23.4722 8.31273Z" fill="white"/>
<path d="M24.6345 24.5945H23.7787C23.3279 24.5945 22.9612 24.2277 22.9612 23.7769C22.9612 23.5133 22.7476 23.2997 22.484 23.2997C22.2204 23.2997 22.0069 23.5133 22.0069 23.7769C22.0069 24.7374 22.7752 25.5212 23.7294 25.5475V26.6035C23.7294 26.8671 23.943 27.0807 24.2066 27.0807C24.4701 27.0807 24.6837 26.8671 24.6837 26.6035V25.5475C25.638 25.5212 26.4063 24.7374 26.4063 23.7769V23.1163C26.4063 22.5034 26.0147 21.9645 25.4318 21.775L23.2763 21.0748C23.0878 21.0136 22.9612 20.8394 22.9612 20.6413V19.6954C22.9612 19.3293 23.259 19.0314 23.6251 19.0314H24.7881C25.1542 19.0314 25.452 19.3293 25.452 19.6954C25.452 19.959 25.6656 20.1726 25.9292 20.1726C26.1928 20.1726 26.4064 19.959 26.4064 19.6954C26.4064 18.8031 25.6804 18.0771 24.7881 18.0771H24.6837V17.0223C24.6837 16.7587 24.4701 16.5452 24.2066 16.5452C23.943 16.5452 23.7294 16.7587 23.7294 17.0223V18.0771H23.625C22.7328 18.0771 22.0068 18.803 22.0068 19.6954V20.6413C22.0068 21.2541 22.3984 21.7931 22.9813 21.9825L25.1368 22.6827C25.3253 22.7439 25.4519 22.9182 25.4519 23.1163V23.7769C25.452 24.2277 25.0852 24.5945 24.6345 24.5945Z" fill="white"/>
</g>
<defs>
<clipPath id="clip0">
<rect width="32.5749" height="32.5749" fill="white" transform="translate(3.05176e-05 0.916168)"/>
</clipPath>
</defs>
</svg>
