<svg width="15" height="15" viewBox="0 0 15 15" fill="none" xmlns="http://www.w3.org/2000/svg">
<path d="M14.5722 4.92357C14.2857 4.60762 13.2493 4.06725 12.3487 5.09484L11.6636 4.41273L11.1262 4.95015V0.0012207H4.00993L0 4.0141V14.9986H11.1262V10.4217L14.5722 6.97578C14.8881 6.68936 15.3517 5.77989 14.5722 4.92357ZM3.87115 0.82801V3.87237H0.82679L3.87115 0.82801ZM10.6449 14.5173H0.484262V4.35663H4.35541V0.485483H10.6449V5.43146L9.10059 6.97578L9.44312 7.31831L11.6666 5.09484L12.0091 5.43736L6.14187 11.3017L5.52768 13.971L8.19703 13.3539L10.6449 10.906V14.5173ZM6.49916 11.904L7.5917 12.9966L6.17139 13.3243L6.49916 11.904ZM8.07301 12.7928L6.70585 11.4257L12.3516 5.77989L13.7188 7.14705L8.07301 12.7928ZM14.2296 6.63621L14.0584 6.80747L12.6912 5.44032L12.8625 5.26905C13.2286 4.9029 13.8664 4.9029 14.2296 5.26905C14.7287 5.76513 14.4659 6.42951 14.2296 6.63621Z" fill="#211E1E"/>
<path d="M9.61904 9.53819L9.27661 9.88062L9.61904 10.223L9.96146 9.88062L9.61904 9.53819Z" fill="#211E1E"/>
<path d="M10.3036 8.85142L9.96118 9.19385L10.3036 9.53627L10.646 9.19385L10.3036 8.85142Z" fill="#211E1E"/>
<path d="M10.9874 8.169L10.645 8.51147L10.9875 8.85385L11.3299 8.51138L10.9874 8.169Z" fill="#211E1E"/>
<path d="M4.83947 13.3066H1.21045V13.7909H4.83947V13.3066Z" fill="#211E1E"/>
<path d="M7.50038 2.18042H7.01611V2.66468H7.50038V2.18042Z" fill="#211E1E"/>
<path d="M8.46594 2.18042H7.98169V2.66468H8.46594V2.18042Z" fill="#211E1E"/>
<path d="M6.53162 2.18042H6.04736V2.66468H6.53162V2.18042Z" fill="#211E1E"/>
<path d="M8.22635 6.04858H1.21045V6.53285H8.22635V6.04858Z" fill="#211E1E"/>
<path d="M7.49996 8.46997H1.21045V8.95423H7.49996V8.46997Z" fill="#211E1E"/>
<path d="M5.56586 10.8884H1.21045V11.3727H5.56586V10.8884Z" fill="#211E1E"/>
</svg>
