<svg width="15" height="15" viewBox="0 0 15 15" fill="none" xmlns="http://www.w3.org/2000/svg">
<g clip-path="url(#clip0)">
<path d="M14.7596 8.14615C14.5264 7.7476 14.5264 7.25459 14.7567 6.85604C14.9928 6.44569 15.0578 5.96743 14.9338 5.50985C14.8098 5.05226 14.5175 4.66847 14.1072 4.4323C13.7086 4.20203 13.4606 3.77396 13.4606 3.31342C13.4606 2.33625 12.6636 1.53916 11.6864 1.53916C11.2258 1.53916 10.7151 1.24984 10.5675 0.892626C10.3756 0.429133 9.29806 -0.418144 8.14375 0.243145C7.74521 0.470464 7.2522 0.473416 6.85365 0.243145C6.00637 -0.246918 4.91997 0.0453488 4.4299 0.892626C4.19963 1.29117 3.77157 1.53916 3.31103 1.53916C2.33385 1.53916 1.53676 2.33625 1.53676 3.31342C1.53676 3.77396 1.28878 4.20203 0.890233 4.4323C0.479879 4.66847 0.187613 5.05226 0.063621 5.50985C-0.0603708 5.96743 0.0045773 6.44569 0.240752 6.85604C0.471023 7.25459 0.471023 7.7476 0.240752 8.14615C0.0045773 8.5565 -0.0603708 9.03476 0.063621 9.49235C0.190565 9.94993 0.482832 10.3337 0.893185 10.5699C1.29173 10.8002 1.53971 11.2282 1.53971 11.6888C1.53971 12.6659 2.3368 13.463 3.31398 13.463C3.77452 13.463 4.20259 13.711 4.43286 14.1096C4.76055 14.6793 5.72591 15.3761 6.8566 14.759C7.26105 14.5376 7.74816 14.5288 8.14671 14.759C8.99399 15.2491 10.0804 14.9568 10.5705 14.1096C10.8007 13.711 11.2288 13.463 11.6893 13.463C12.6665 13.463 13.4636 12.6659 13.4636 11.6888C13.4636 11.2282 13.7116 10.8002 14.1101 10.5699C14.5205 10.3337 14.8127 9.94993 14.9367 9.49235C15.0607 9.03476 14.9958 8.5565 14.7596 8.14615ZM14.3374 8.38823C14.5087 8.6864 14.5559 9.03476 14.4673 9.36835C14.3788 9.70195 14.1633 9.97946 13.8651 10.1507C13.3189 10.4666 12.9765 11.057 12.9765 11.6888C12.9765 12.4002 12.3979 12.9789 11.6864 12.9789C11.0546 12.9789 10.4671 13.3184 10.1483 13.8675C9.97706 14.1657 9.27444 14.8329 8.38583 14.3398C8.10833 14.1863 7.80425 14.1037 7.49723 14.1037C7.1902 14.1037 6.88317 14.1834 6.60862 14.3398C5.99161 14.6971 5.20043 14.4845 4.84616 13.8675C4.53028 13.3213 3.94279 12.9818 3.30807 12.9818C2.5966 12.9818 2.01797 12.4032 2.01797 11.6917C2.01797 11.06 1.67847 10.4725 1.12936 10.1536C0.837094 9.97946 0.621584 9.699 0.533019 9.36835C0.444453 9.03476 0.488736 8.6864 0.662915 8.38823C0.978799 7.84207 0.978799 7.16012 0.662915 6.61396C0.491688 6.31579 0.444453 5.96743 0.533019 5.63384C0.621584 5.30024 0.837094 5.02274 1.13526 4.85151C1.68142 4.53562 2.02387 3.94519 2.02387 3.31637C2.02387 2.60489 2.6025 2.02627 3.31398 2.02627C3.94575 2.02627 4.53323 1.68676 4.84912 1.13766C5.20633 0.520651 5.99752 0.311046 6.61157 0.665308C7.15773 0.981192 7.83968 0.981192 8.38583 0.665308C9.00284 0.311046 9.79403 0.520651 10.1483 1.13766C10.4642 1.68381 11.0517 2.02627 11.6864 2.02627C12.3979 2.02627 12.9765 2.60489 12.9765 3.31637C12.9765 3.94814 13.316 4.53562 13.8651 4.85446C14.1633 5.02569 14.3788 5.30615 14.4673 5.63679C14.5559 5.97039 14.5116 6.31874 14.3374 6.61692C14.0216 7.16012 14.0216 7.84207 14.3374 8.38823Z" fill="#211E1E"/>
<path d="M7.50002 1.69849C4.29985 1.69849 1.69897 4.30231 1.69897 7.49953C1.69897 10.6968 4.29985 13.3035 7.50002 13.3035C10.7002 13.3035 13.3011 10.6997 13.3011 7.49953C13.3011 4.29936 10.7002 1.69849 7.50002 1.69849ZM7.50002 12.8194C4.5685 12.8194 2.18018 10.434 2.18018 7.49953C2.18018 4.56506 4.5685 2.18264 7.50002 2.18264C10.4315 2.18264 12.8199 4.56801 12.8199 7.49953C12.8199 10.4311 10.4315 12.8194 7.50002 12.8194Z" fill="#211E1E"/>
<path d="M6.45507 4.73925C6.22185 4.48241 5.89711 4.35547 5.4838 4.35547C5.0823 4.35547 4.76642 4.48536 4.5332 4.73925C4.29997 4.99609 4.18188 5.39169 4.18188 5.92308C4.18188 6.45743 4.29997 6.85302 4.5332 7.10986C4.76642 7.3667 5.09116 7.49364 5.50447 7.49364C5.90596 7.49364 6.22185 7.3667 6.45507 7.10986C6.69125 6.85597 6.80638 6.46038 6.80638 5.92603C6.80638 5.39169 6.68829 4.99609 6.45507 4.73925ZM5.76721 6.69655C5.69931 6.79397 5.60484 6.84121 5.4838 6.84121C5.36571 6.84121 5.27124 6.79397 5.20334 6.69655C5.11478 6.5637 5.07049 6.30391 5.07049 5.91718C5.07049 5.53044 5.11478 5.27065 5.20334 5.1378C5.27124 5.04038 5.36276 4.99314 5.4838 4.99314C5.60484 4.99314 5.69931 5.04333 5.76721 5.1437C5.85282 5.2736 5.89711 5.53044 5.89711 5.91718C5.89711 6.30686 5.85578 6.56666 5.76721 6.69655Z" fill="#211E1E"/>
<path d="M10.467 7.8833C10.2338 7.62941 9.91203 7.49951 9.50462 7.49951C9.10017 7.49951 8.77838 7.62941 8.54516 7.8833C8.31194 8.14014 8.19385 8.53573 8.19385 9.06712C8.19385 9.60147 8.31194 9.99706 8.54516 10.2539C8.77838 10.5107 9.10312 10.6377 9.51643 10.6377C9.91793 10.6377 10.2338 10.5107 10.467 10.2539C10.7003 9.99706 10.8183 9.60147 10.8183 9.06712C10.8183 8.53573 10.7003 8.14014 10.467 7.8833ZM9.77622 9.84355C9.71128 9.94097 9.6168 9.98821 9.49576 9.98821C9.37768 9.98821 9.28321 9.93802 9.21531 9.83764C9.12674 9.70775 9.08246 9.45091 9.08246 9.06417C9.08246 8.67743 9.12674 8.41764 9.21531 8.28479C9.28025 8.18737 9.37472 8.14014 9.49576 8.14014C9.6168 8.14014 9.71128 8.18737 9.77918 8.28479C9.86479 8.41764 9.90907 8.67743 9.90907 9.06417C9.90907 9.45091 9.86479 9.7107 9.77622 9.84355Z" fill="#211E1E"/>
<path d="M8.675 4.3584L5.51025 10.6318H6.35163L9.49571 4.3584H8.675Z" fill="#211E1E"/>
</g>
<defs>
<clipPath id="clip0">
<rect width="15" height="15" fill="white"/>
</clipPath>
</defs>
</svg>
