<svg width="21" height="21" viewBox="0 0 21 21" fill="none" xmlns="http://www.w3.org/2000/svg">
<path d="M16.4063 0.984375C16.1452 0.984375 15.8948 1.08809 15.7102 1.27269C15.5256 1.4573 15.4219 1.70768 15.4219 1.96875V13.125C15.4219 13.4731 15.2836 13.8069 15.0375 14.0531C14.7913 14.2992 14.4575 14.4375 14.1094 14.4375H6.97027L8.89924 12.5086C9.08385 12.324 9.18756 12.0736 9.18756 11.8125C9.18756 11.5514 9.08385 11.301 8.89924 11.1164C8.71462 10.9318 8.46424 10.8281 8.20316 10.8281C7.94208 10.8281 7.6917 10.9318 7.50708 11.1164L3.89771 14.7258C3.8063 14.8172 3.73378 14.9257 3.68431 15.0452C3.63484 15.1646 3.60938 15.2926 3.60938 15.4219C3.60938 15.5511 3.63484 15.6792 3.68431 15.7986C3.73378 15.918 3.8063 16.0265 3.89771 16.118L7.50708 19.7273C7.6917 19.9119 7.94208 20.0156 8.20316 20.0156C8.46424 20.0156 8.71462 19.9119 8.89924 19.7273C9.08385 19.5427 9.18756 19.2923 9.18756 19.0312C9.18756 18.7702 9.08385 18.5198 8.89924 18.3352L6.97027 16.4062H14.1094C14.5403 16.4062 14.967 16.3214 15.3651 16.1565C15.7632 15.9916 16.1249 15.7499 16.4296 15.4452C16.7343 15.1405 16.976 14.7788 17.1409 14.3807C17.3058 13.9826 17.3907 13.5559 17.3907 13.125V1.96875C17.3907 1.70768 17.2869 1.4573 17.1023 1.27269C16.9177 1.08809 16.6674 0.984375 16.4063 0.984375Z" fill="white"/>
</svg>
