<svg width="34" height="34" viewBox="0 0 34 34" fill="none" xmlns="http://www.w3.org/2000/svg">
<g clip-path="url(#clip0)">
<path d="M21.3629 10.8073C21.5605 10.633 21.5795 10.3315 21.4052 10.1338C21.2308 9.93619 20.9293 9.91723 20.7316 10.0916L18.0043 12.497C17.5479 12.8995 16.8595 12.8995 16.4031 12.497L10.9041 7.64718C9.65939 6.54941 9.42468 4.68675 10.3582 3.31457C10.8801 2.54733 11.6728 2.04775 12.59 1.90797C13.5073 1.76799 14.4129 2.00875 15.1397 2.58556L16.2552 3.47089C16.8136 3.9141 17.5938 3.91404 18.1521 3.47089L19.2676 2.58563C19.9944 2.00881 20.8999 1.76806 21.8173 1.90803C22.7345 2.04788 23.5272 2.54745 24.0491 3.31463C24.9826 4.68688 24.7479 6.54954 23.5032 7.64731L22.1667 8.82601C21.9691 9.00034 21.9501 9.30185 22.1244 9.49953C22.2987 9.69709 22.6002 9.71611 22.798 9.54178L24.1345 8.36308C25.739 6.94789 26.0416 4.54684 24.8382 2.7779C24.1752 1.80318 23.1265 1.14225 21.9611 0.964613C20.7958 0.786847 19.5977 1.10535 18.6744 1.83811L17.5589 2.72337C17.3497 2.88937 17.0576 2.88931 16.8485 2.72337L15.7329 1.83805C14.8096 1.10516 13.6117 0.786656 12.4462 0.964422C11.2808 1.14206 10.2321 1.80299 9.56904 2.77771C8.36565 4.54665 8.66819 6.94776 10.2728 8.36289L15.7718 13.2127C16.18 13.5727 16.6918 13.7526 17.2037 13.7526C17.7155 13.7526 18.2274 13.5726 18.6355 13.2127L21.3629 10.8073Z" fill="white"/>
<path d="M14.855 23.707L14.3721 23.3741V17.5594C14.3721 16.6585 13.6391 15.9256 12.7382 15.9256C12.4958 15.9256 12.2658 15.979 12.0587 16.0741V15.4969C12.0587 14.596 11.3257 13.8631 10.4248 13.8631C10.1824 13.8631 9.95236 13.9165 9.74532 14.0116V13.223C9.74532 12.3221 9.01237 11.5891 8.11146 11.5891C7.3341 11.5891 6.6822 12.135 6.51793 12.8635C6.30059 12.7564 6.05633 12.6959 5.79808 12.6959C4.89717 12.6959 4.16422 13.4289 4.16422 14.3298V17.0709C4.16422 17.3345 4.37786 17.5481 4.6414 17.5481C4.90493 17.5481 5.11858 17.3345 5.11858 17.0709V14.3298C5.11858 13.9551 5.4234 13.6503 5.79808 13.6503C6.17277 13.6503 6.47759 13.9551 6.47759 14.3298V20.423C6.47759 21.1016 6.76619 21.7521 7.26933 22.2076L11.0275 25.6828C11.1194 25.7683 11.236 25.8105 11.3523 25.8105C11.4802 25.8105 11.6079 25.7594 11.7018 25.6583C11.8813 25.4654 11.8704 25.1634 11.6774 24.9839L9.08268 22.5707L9.39119 22.2445C9.77096 21.8429 10.3769 21.7792 10.8321 22.0929L14.3133 24.4928C14.9716 24.9465 15.3645 25.6949 15.3645 26.4944V32.0596C15.3645 32.3227 15.1505 32.5367 14.8874 32.5367H10.3141C10.0509 32.5367 9.83688 32.3227 9.83688 32.0596V31.249C9.83688 30.4975 9.55903 29.7767 9.05456 29.2196L5.98272 25.8274C5.4255 25.2121 5.11858 24.416 5.11858 23.5858V19.1248C5.11858 18.8613 4.90493 18.6476 4.6414 18.6476C4.37786 18.6476 4.16422 18.8613 4.16422 19.1248V23.5857C4.16422 24.6532 4.55881 25.6768 5.27535 26.468L8.34718 29.8601C8.69247 30.2414 8.88258 30.7346 8.88258 31.2489V32.0595C8.88258 32.8489 9.52474 33.491 10.3141 33.491H14.8874C15.6768 33.491 16.319 32.8489 16.319 32.0595V26.4944C16.3189 25.3809 15.7716 24.3389 14.855 23.707ZM12.7382 16.8799C13.1129 16.8799 13.4177 17.1847 13.4177 17.5594V22.7162L12.0587 21.7793V17.5594C12.0586 17.1847 12.3635 16.8799 12.7382 16.8799ZM7.43195 20.423V13.2229C7.43195 12.8483 7.73677 12.5434 8.11146 12.5434C8.48614 12.5434 8.79096 12.8483 8.79096 13.2229V21.4968C8.75928 21.5264 8.72804 21.5568 8.69788 21.5887L8.3795 21.9253L7.90977 21.5001C7.60609 21.2252 7.43195 20.8326 7.43195 20.423ZM9.74532 20.9895V15.4969C9.74532 15.1223 10.0501 14.8174 10.4248 14.8174C10.7995 14.8174 11.1043 15.1223 11.1043 15.4969V21.1497C10.6734 20.9385 10.1945 20.8878 9.74532 20.9895Z" fill="white"/>
<path d="M28.6092 12.6959C28.351 12.6959 28.1067 12.7564 27.8894 12.8635C27.7251 12.135 27.0732 11.5891 26.2959 11.5891C25.3949 11.5891 24.662 12.3221 24.662 13.223V14.0117C24.4549 13.9166 24.2249 13.8631 23.9825 13.8631C23.0816 13.8631 22.3486 14.5961 22.3486 15.497V16.0742C22.1415 15.9791 21.9115 15.9256 21.6691 15.9256C20.7682 15.9256 20.0352 16.6586 20.0352 17.5595V21.652C20.0352 21.9155 20.2489 22.1292 20.5124 22.1292C20.776 22.1292 20.9896 21.9155 20.9896 21.652V17.5595C20.9896 17.1848 21.2944 16.88 21.6691 16.88C22.0438 16.88 22.3486 17.1848 22.3486 17.5595V21.7794L19.5523 23.7071C18.6356 24.339 18.0883 25.3811 18.0883 26.4946V32.0597C18.0883 32.8491 18.7305 33.4912 19.5199 33.4912H24.0932C24.8826 33.4912 25.5247 32.8491 25.5247 32.0597V31.2491C25.5247 30.7348 25.7148 30.2416 26.0601 29.8603L29.132 26.4682C29.8485 25.6769 30.2431 24.6533 30.2431 23.5859V14.3298C30.2431 13.4289 29.5101 12.6959 28.6092 12.6959ZM25.6164 13.2229C25.6164 12.8483 25.9212 12.5434 26.2959 12.5434C26.6705 12.5434 26.9754 12.8483 26.9754 13.2229V14.3298V20.4229C26.9754 20.8325 26.8012 21.2251 26.4976 21.5001L26.0278 21.9253L25.7094 21.5886C25.6793 21.5567 25.648 21.5264 25.6164 21.4968V13.2229ZM23.3029 15.4969C23.3029 15.1223 23.6077 14.8174 23.9824 14.8174C24.3571 14.8174 24.6619 15.1223 24.6619 15.4969V20.9895C24.2127 20.8878 23.7338 20.9385 23.3029 21.1497V15.4969ZM29.2887 23.5857C29.2887 24.4159 28.9818 25.212 28.4246 25.8274L25.3527 29.2195C24.8482 29.7766 24.5704 30.4973 24.5704 31.2489V32.0595C24.5704 32.3227 24.3563 32.5367 24.0932 32.5367H19.5199C19.2567 32.5367 19.0427 32.3227 19.0427 32.0595V26.4944C19.0427 25.6948 19.4357 24.9465 20.094 24.4927L23.5752 22.0929C23.7687 21.9595 23.9894 21.8943 24.2084 21.8943C24.5046 21.8943 24.7978 22.0136 25.0161 22.2444L25.3246 22.5706L22.7299 24.9839C22.5369 25.1634 22.526 25.4652 22.7055 25.6583C22.7995 25.7593 22.927 25.8105 23.055 25.8105C23.1713 25.8105 23.288 25.7682 23.3798 25.6827L27.138 22.2076C27.6411 21.7521 27.9297 21.1016 27.9297 20.4229V14.3298C27.9297 13.9551 28.2346 13.6502 28.6092 13.6502C28.9839 13.6502 29.2887 13.9551 29.2887 14.3298V23.5857Z" fill="white"/>
</g>
<defs>
<clipPath id="clip0">
<rect width="32.5749" height="32.5749" fill="white" transform="translate(0.916168 0.916168)"/>
</clipPath>
</defs>
</svg>
