<svg width="34" height="34" viewBox="0 0 34 34" fill="none" xmlns="http://www.w3.org/2000/svg">
<g clip-path="url(#clip0)">
<path d="M27.4033 15.8462C27.4033 15.846 27.4032 15.8459 27.4032 15.8457C27.3092 15.5011 27.0849 15.2227 26.7877 15.0818C23.2016 13.4382 23.1116 13.2024 22.4173 13.2024C22.1477 13.2024 21.8848 13.2622 21.636 13.3801L18.047 15.0817C17.7497 15.2226 17.5253 15.501 17.4312 15.8462C17.3147 16.2749 17.1193 17.1597 17.1193 18.2694C17.1193 21.2472 18.4745 23.9914 21.3328 26.0482C21.9945 26.5245 22.8391 26.525 23.5017 26.0482C26.3663 23.9867 27.7152 21.2402 27.7152 18.2694C27.7152 17.1597 27.5198 16.2749 27.4033 15.8462ZM22.9405 25.2683C22.6142 25.503 22.2212 25.5037 21.8942 25.2683C19.2911 23.3948 18.0802 20.9265 18.0802 18.2694C18.0802 17.2712 18.2546 16.4806 18.3583 16.0986C18.3817 16.0129 18.4269 15.965 18.4585 15.9501C22.2124 14.2 22.0812 14.1632 22.4173 14.1632C22.7512 14.1632 22.6258 14.2016 26.3761 15.9501C26.4076 15.965 26.4527 16.0128 26.4761 16.0982C26.5801 16.4807 26.7544 17.2713 26.7544 18.2695C26.7543 20.9216 25.548 23.3911 22.9405 25.2683Z" fill="white"/>
<path d="M28.221 0.916168H11.5035C10.244 0.916168 9.21938 1.94081 9.21938 3.20023V25.0169H6.46305C5.08383 25.0169 3.96178 26.139 3.96178 27.5182V30.3977C3.96178 32.1033 5.3494 33.4908 7.05493 33.4908C14.4095 33.4908 21.8839 33.4908 27.0176 33.491C28.9077 33.491 30.4454 31.9533 30.4454 30.0633V3.14055C30.4453 1.91403 29.4475 0.916168 28.221 0.916168ZM7.62226 32.4627C6.18712 32.818 4.92268 31.7499 4.92268 30.3977V27.5182C4.92268 26.6688 5.61368 25.9778 6.46305 25.9778H9.21977C9.21977 25.9779 9.21977 25.978 9.21977 25.978V25.9781C9.21977 25.9782 9.21977 25.9784 9.21977 25.9786C9.21977 25.9789 9.21977 25.9793 9.21977 25.9798C9.21977 25.984 9.21977 25.9875 9.21977 25.9899C9.21977 25.9908 9.21977 25.9914 9.21977 25.992C9.21977 25.9925 9.21977 25.9931 9.21977 25.9936C9.21977 25.9938 9.21977 25.994 9.21977 25.9942C9.21977 25.9944 9.21977 25.9945 9.21977 25.9947C9.21983 26.0994 9.22021 26.7833 9.22212 30.3976C9.22212 31.3897 8.54116 32.2257 7.62226 32.4627ZM29.4845 30.0633C29.4844 31.4235 28.3778 32.5302 27.0176 32.5302H9.32939C10.3653 31.4424 10.1672 30.2151 10.183 29.5891V25.4973C10.183 25.4803 10.182 25.4634 10.1803 25.4468V3.20023C10.1803 2.4706 10.7739 1.877 11.5036 1.877H28.221C28.9177 1.877 29.4845 2.44382 29.4845 3.14049V30.0633Z" fill="white"/>
<path d="M25.2463 17.4547C25.0397 17.2881 24.7373 17.3206 24.5707 17.5272C21.3525 21.4979 21.5636 21.2944 21.5007 21.2987C21.4388 21.3027 21.5021 21.3143 20.2206 20.1144C20.0282 19.9318 19.7241 19.9396 19.5414 20.1321C19.3587 20.3245 19.3666 20.6286 19.559 20.8114L20.7861 21.9764C20.9778 22.1585 21.2336 22.2597 21.4966 22.2597C21.8013 22.2597 22.0999 22.1224 22.2987 21.8759L25.3187 18.1304C25.4852 17.9237 25.4528 17.6213 25.2463 17.4547Z" fill="white"/>
<path d="M24.3865 4.5871H12.1512C11.8859 4.5871 11.6708 4.80215 11.6708 5.06752C11.6708 5.33289 11.8859 5.54794 12.1512 5.54794H24.3864C24.6518 5.54794 24.8669 5.33289 24.8669 5.06752C24.8669 4.80215 24.6518 4.5871 24.3865 4.5871Z" fill="white"/>
<path d="M27.2346 4.5871H26.3082C26.0429 4.5871 25.8278 4.80215 25.8278 5.06752C25.8278 5.33289 26.0429 5.54794 26.3082 5.54794H27.2346C27.4999 5.54794 27.7151 5.33289 27.7151 5.06752C27.7151 4.80215 27.5 4.5871 27.2346 4.5871Z" fill="white"/>
<path d="M27.2346 28.7896H15.8321C15.5668 28.7896 15.3517 29.0046 15.3517 29.27C15.3517 29.5354 15.5668 29.7504 15.8321 29.7504H27.2346C27.4999 29.7504 27.715 29.5354 27.715 29.27C27.7151 29.0046 27.5 28.7896 27.2346 28.7896Z" fill="white"/>
<path d="M13.9105 28.7896H12.1513C11.886 28.7896 11.6709 29.0046 11.6709 29.27C11.6709 29.5354 11.886 29.7504 12.1513 29.7504H13.9105C14.1758 29.7504 14.3909 29.5354 14.3909 29.27C14.3909 29.0046 14.1758 28.7896 13.9105 28.7896Z" fill="white"/>
<path d="M27.2347 8.04609H12.1512C11.8859 8.04609 11.6708 8.26113 11.6708 8.5265C11.6708 8.79188 11.8859 9.00692 12.1512 9.00692H27.2347C27.5 9.00692 27.7151 8.79188 27.7151 8.5265C27.7151 8.26113 27.5 8.04609 27.2347 8.04609Z" fill="white"/>
<path d="M27.2347 11.505H18.4586C18.1933 11.505 17.9782 11.7201 17.9782 11.9854C17.9782 12.2508 18.1933 12.4659 18.4586 12.4659H27.2347C27.5 12.4659 27.7151 12.2508 27.7151 11.9854C27.7151 11.7201 27.5 11.505 27.2347 11.505Z" fill="white"/>
<path d="M16.5369 11.505H12.1513C11.886 11.505 11.6709 11.7201 11.6709 11.9854C11.6709 12.2508 11.886 12.4659 12.1513 12.4659H16.5369C16.8022 12.4659 17.0173 12.2508 17.0173 11.9854C17.0173 11.7201 16.8022 11.505 16.5369 11.505Z" fill="white"/>
<path d="M15.6996 14.964H12.1512C11.8859 14.964 11.6708 15.1791 11.6708 15.4444C11.6708 15.7098 11.8859 15.9249 12.1512 15.9249H15.6996C15.9649 15.9249 16.18 15.7098 16.18 15.4444C16.18 15.1791 15.9649 14.964 15.6996 14.964Z" fill="white"/>
<path d="M15.6996 18.4231H12.1512C11.8859 18.4231 11.6708 18.6382 11.6708 18.9035C11.6708 19.1689 11.8859 19.384 12.1512 19.384H15.6996C15.9649 19.384 16.18 19.1689 16.18 18.9035C16.18 18.6382 15.9649 18.4231 15.6996 18.4231Z" fill="white"/>
<path d="M16.5323 21.8821H12.1512C11.8859 21.8821 11.6708 22.0971 11.6708 22.3625C11.6708 22.6279 11.8859 22.8429 12.1512 22.8429H16.5323C16.7976 22.8429 17.0127 22.6279 17.0127 22.3625C17.0127 22.0971 16.7977 21.8821 16.5323 21.8821Z" fill="white"/>
<path d="M18.0856 25.341H12.1512C11.8859 25.341 11.6708 25.5561 11.6708 25.8214C11.6708 26.0868 11.8859 26.3019 12.1512 26.3019H18.0856C18.3509 26.3019 18.566 26.0868 18.566 25.8214C18.566 25.5561 18.3509 25.341 18.0856 25.341Z" fill="white"/>
</g>
<defs>
<clipPath id="clip0">
<rect width="32.5749" height="32.5749" fill="white" transform="translate(0.916168 0.916168)"/>
</clipPath>
</defs>
</svg>
