<svg width="36" height="35" viewBox="0 0 36 35" fill="none" xmlns="http://www.w3.org/2000/svg">
<g clip-path="url(#clip0)">
<path d="M25.5805 0.5H26.0805C31.0285 0.5 35.0546 4.52617 35.0546 9.47416V25.526C35.0546 30.4738 31.0285 34.4999 26.0807 34.4999H10.0289C5.08084 34.4999 1.05469 30.4738 1.05469 25.526V9.47416C1.05469 4.52617 5.08085 0.5 10.0289 0.5H25.5805ZM7.98463 17.5C7.98463 23.0531 12.5015 27.57 18.0547 27.57C23.6078 27.57 28.1247 23.0531 28.1247 17.5C28.1247 11.9468 23.6078 7.42994 18.0547 7.42994C12.5015 7.42994 7.98463 11.9468 7.98463 17.5ZM24.5257 7.35903C24.5257 9.19462 26.0179 10.6869 27.8535 10.6869C29.6891 10.6869 31.1816 9.19468 31.1816 7.35903C31.1816 5.52345 29.6891 4.03094 27.8535 4.03094C26.0179 4.03094 24.5257 5.52351 24.5257 7.35903Z" stroke="#2F3B3F"/>
<path d="M11.0364 17.4999C11.0364 13.6304 14.1854 10.4817 18.0547 10.4817C21.9242 10.4817 25.0729 13.6304 25.0729 17.4999C25.0729 21.3691 21.9241 24.5181 18.0547 24.5181C14.1854 24.5181 11.0364 21.3691 11.0364 17.4999Z" stroke="#2F3B3F"/>
<path d="M27.854 6.58301C27.4259 6.58301 27.0775 6.93121 27.0775 7.35899C27.0775 7.78677 27.4259 8.13498 27.854 8.13498C28.2823 8.13498 28.6307 7.78704 28.6307 7.35899C28.6307 6.93095 28.2823 6.58301 27.854 6.58301Z" fill="#2F3B3F"/>
</g>
<defs>
<clipPath id="clip0">
<rect width="35" height="35" fill="white" transform="translate(0.554688)"/>
</clipPath>
</defs>
</svg>
