<svg width="20" height="20" viewBox="0 0 20 20" fill="none" xmlns="http://www.w3.org/2000/svg">
<path d="M13.3389 13.2143C15.4672 9.87469 15.1996 10.2913 15.2609 10.2043C16.0358 9.11137 16.4453 7.82508 16.4453 6.48438C16.4453 2.92891 13.5601 0 10 0C6.4515 0 3.5547 2.92313 3.5547 6.48438C3.5547 7.82422 3.97282 9.14418 4.77306 10.2518L6.66103 13.2143C4.64247 13.5245 1.21095 14.4489 1.21095 16.4844C1.21095 17.2264 1.69525 18.2838 4.00243 19.1078C5.61345 19.6831 7.74341 20 10 20C14.2197 20 18.7891 18.8097 18.7891 16.4844C18.7891 14.4486 15.3616 13.5251 13.3389 13.2143ZM5.75193 9.60723C5.74548 9.59715 5.73876 9.5873 5.73173 9.57762C5.06583 8.66152 4.72657 7.57582 4.72657 6.48438C4.72657 3.55398 7.08618 1.17188 10 1.17188C12.9078 1.17188 15.2734 3.55504 15.2734 6.48438C15.2734 7.57758 14.9406 8.62645 14.3107 9.5184C14.2543 9.59285 14.5488 9.13535 10 16.273L5.75193 9.60723ZM10 18.8281C5.39087 18.8281 2.38282 17.4733 2.38282 16.4844C2.38282 15.8197 3.92845 14.7268 7.35345 14.3007L9.50587 17.6782C9.61345 17.847 9.79978 17.9492 9.99997 17.9492C10.2002 17.9492 10.3865 17.847 10.4941 17.6782L12.6465 14.3007C16.0715 14.7268 17.6172 15.8197 17.6172 16.4844C17.6172 17.4649 14.6362 18.8281 10 18.8281Z" fill="#2F3B3F" fill-opacity="0.8"/>
<path d="M9.99999 3.55469C8.38456 3.55469 7.0703 4.86895 7.0703 6.48438C7.0703 8.0998 8.38456 9.41406 9.99999 9.41406C11.6154 9.41406 12.9297 8.0998 12.9297 6.48438C12.9297 4.86895 11.6154 3.55469 9.99999 3.55469ZM9.99999 8.24219C9.03073 8.24219 8.24218 7.45363 8.24218 6.48438C8.24218 5.51512 9.03073 4.72656 9.99999 4.72656C10.9692 4.72656 11.7578 5.51512 11.7578 6.48438C11.7578 7.45363 10.9692 8.24219 9.99999 8.24219Z" fill="#2F3B3F" fill-opacity="0.8"/>
</svg>
