<svg width="66" height="10" viewBox="0 0 66 10" fill="none" xmlns="http://www.w3.org/2000/svg">
<path d="M6.12 4.632C6.608 4.768 6.984 5.016 7.248 5.376C7.52 5.736 7.656 6.176 7.656 6.696C7.656 7.416 7.396 7.98 6.876 8.388C6.364 8.796 5.656 9 4.752 9H1.656C1.424 9 1.24 8.936 1.104 8.808C0.976 8.68 0.912 8.5 0.912 8.268V1.272C0.912 1.04 0.976 0.86 1.104 0.732C1.24 0.604 1.424 0.539999 1.656 0.539999H4.632C5.512 0.539999 6.2 0.736 6.696 1.128C7.2 1.512 7.452 2.052 7.452 2.748C7.452 3.196 7.332 3.584 7.092 3.912C6.86 4.24 6.536 4.48 6.12 4.632ZM2.424 4.104H4.38C5.444 4.104 5.976 3.708 5.976 2.916C5.976 2.516 5.844 2.22 5.58 2.028C5.316 1.836 4.916 1.74 4.38 1.74H2.424V4.104ZM4.584 7.8C5.144 7.8 5.552 7.7 5.808 7.5C6.064 7.3 6.192 6.988 6.192 6.564C6.192 6.14 6.06 5.824 5.796 5.616C5.54 5.408 5.136 5.304 4.584 5.304H2.424V7.8H4.584ZM12.2474 3.012C12.4554 2.996 12.6194 3.04 12.7394 3.144C12.8594 3.248 12.9194 3.404 12.9194 3.612C12.9194 3.828 12.8674 3.988 12.7634 4.092C12.6594 4.196 12.4714 4.264 12.1994 4.296L11.8394 4.332C11.3674 4.38 11.0194 4.54 10.7954 4.812C10.5794 5.084 10.4714 5.424 10.4714 5.832V8.352C10.4714 8.584 10.3994 8.764 10.2554 8.892C10.1114 9.012 9.93141 9.072 9.71541 9.072C9.49941 9.072 9.31941 9.012 9.17541 8.892C9.03941 8.764 8.97141 8.584 8.97141 8.352V3.708C8.97141 3.484 9.03941 3.312 9.17541 3.192C9.31941 3.072 9.49541 3.012 9.70341 3.012C9.91141 3.012 10.0794 3.072 10.2074 3.192C10.3354 3.304 10.3994 3.468 10.3994 3.684V4.164C10.5514 3.812 10.7754 3.54 11.0714 3.348C11.3754 3.156 11.7114 3.048 12.0794 3.024L12.2474 3.012ZM16.0857 2.988C16.9017 2.988 17.5057 3.192 17.8977 3.6C18.2977 4 18.4977 4.612 18.4977 5.436V8.364C18.4977 8.58 18.4337 8.752 18.3057 8.88C18.1777 9 18.0017 9.06 17.7777 9.06C17.5697 9.06 17.3977 8.996 17.2617 8.868C17.1337 8.74 17.0697 8.572 17.0697 8.364V8.1C16.9337 8.412 16.7177 8.656 16.4217 8.832C16.1337 9.008 15.7977 9.096 15.4137 9.096C15.0217 9.096 14.6657 9.016 14.3457 8.856C14.0257 8.696 13.7737 8.476 13.5897 8.196C13.4057 7.916 13.3137 7.604 13.3137 7.26C13.3137 6.828 13.4217 6.488 13.6377 6.24C13.8617 5.992 14.2217 5.812 14.7177 5.7C15.2137 5.588 15.8977 5.532 16.7697 5.532H17.0697V5.256C17.0697 4.864 16.9857 4.58 16.8177 4.404C16.6497 4.22 16.3777 4.128 16.0017 4.128C15.7697 4.128 15.5337 4.164 15.2937 4.236C15.0537 4.3 14.7697 4.396 14.4417 4.524C14.2337 4.628 14.0817 4.68 13.9857 4.68C13.8417 4.68 13.7217 4.628 13.6257 4.524C13.5377 4.42 13.4937 4.284 13.4937 4.116C13.4937 3.98 13.5257 3.864 13.5897 3.768C13.6617 3.664 13.7777 3.568 13.9377 3.48C14.2177 3.328 14.5497 3.208 14.9337 3.12C15.3257 3.032 15.7097 2.988 16.0857 2.988ZM15.7137 8.016C16.1137 8.016 16.4377 7.884 16.6857 7.62C16.9417 7.348 17.0697 7 17.0697 6.576V6.324H16.8537C16.3177 6.324 15.9017 6.348 15.6057 6.396C15.3097 6.444 15.0977 6.528 14.9697 6.648C14.8417 6.768 14.7777 6.932 14.7777 7.14C14.7777 7.396 14.8657 7.608 15.0417 7.776C15.2257 7.936 15.4497 8.016 15.7137 8.016ZM23.4302 2.988C24.1342 2.988 24.6582 3.188 25.0022 3.588C25.3462 3.988 25.5182 4.592 25.5182 5.4V8.352C25.5182 8.576 25.4502 8.752 25.3142 8.88C25.1862 9.008 25.0062 9.072 24.7742 9.072C24.5422 9.072 24.3582 9.008 24.2222 8.88C24.0862 8.752 24.0182 8.576 24.0182 8.352V5.484C24.0182 5.028 23.9302 4.696 23.7542 4.488C23.5862 4.28 23.3182 4.176 22.9502 4.176C22.5182 4.176 22.1702 4.312 21.9062 4.584C21.6502 4.856 21.5222 5.22 21.5222 5.676V8.352C21.5222 8.576 21.4542 8.752 21.3182 8.88C21.1822 9.008 20.9982 9.072 20.7662 9.072C20.5342 9.072 20.3502 9.008 20.2142 8.88C20.0862 8.752 20.0222 8.576 20.0222 8.352V3.708C20.0222 3.5 20.0902 3.332 20.2262 3.204C20.3622 3.076 20.5462 3.012 20.7782 3.012C20.9862 3.012 21.1542 3.076 21.2822 3.204C21.4182 3.324 21.4862 3.484 21.4862 3.684V4.008C21.6862 3.68 21.9542 3.428 22.2902 3.252C22.6262 3.076 23.0062 2.988 23.4302 2.988ZM31.9377 0.48C32.1617 0.48 32.3457 0.544 32.4897 0.672C32.6337 0.8 32.7057 0.968 32.7057 1.176V8.352C32.7057 8.568 32.6377 8.74 32.5017 8.868C32.3657 8.996 32.1857 9.06 31.9617 9.06C31.7377 9.06 31.5577 8.996 31.4217 8.868C31.2857 8.74 31.2177 8.568 31.2177 8.352V8.052C31.0417 8.38 30.7857 8.636 30.4497 8.82C30.1217 9.004 29.7457 9.096 29.3217 9.096C28.8177 9.096 28.3657 8.968 27.9657 8.712C27.5737 8.456 27.2657 8.096 27.0417 7.632C26.8257 7.16 26.7177 6.62 26.7177 6.012C26.7177 5.404 26.8257 4.872 27.0417 4.416C27.2657 3.96 27.5737 3.608 27.9657 3.36C28.3577 3.112 28.8097 2.988 29.3217 2.988C29.7457 2.988 30.1217 3.076 30.4497 3.252C30.7777 3.428 31.0297 3.676 31.2057 3.996V1.152C31.2057 0.952 31.2697 0.792 31.3977 0.672C31.5337 0.544 31.7137 0.48 31.9377 0.48ZM29.7177 7.932C30.1977 7.932 30.5657 7.768 30.8217 7.44C31.0857 7.112 31.2177 6.644 31.2177 6.036C31.2177 5.428 31.0857 4.964 30.8217 4.644C30.5657 4.316 30.2017 4.152 29.7297 4.152C29.2497 4.152 28.8777 4.312 28.6137 4.632C28.3497 4.952 28.2177 5.412 28.2177 6.012C28.2177 6.62 28.3497 7.092 28.6137 7.428C28.8777 7.764 29.2457 7.932 29.7177 7.932ZM40.7888 0.48C41.0128 0.48 41.1888 0.552 41.3168 0.696C41.4528 0.832 41.5208 1.016 41.5208 1.248V8.292C41.5208 8.524 41.4528 8.712 41.3168 8.856C41.1808 9 41.0048 9.072 40.7888 9.072C40.5328 9.072 40.3368 8.98 40.2008 8.796L35.8208 3.096V8.292C35.8208 8.524 35.7568 8.712 35.6288 8.856C35.5008 9 35.3248 9.072 35.1008 9.072C34.8768 9.072 34.7008 9 34.5728 8.856C34.4448 8.712 34.3808 8.524 34.3808 8.292V1.248C34.3808 1.016 34.4488 0.832 34.5848 0.696C34.7208 0.552 34.9008 0.48 35.1248 0.48C35.3728 0.48 35.5648 0.572 35.7008 0.756L40.0688 6.432V1.248C40.0688 1.016 40.1328 0.832 40.2608 0.696C40.3968 0.552 40.5728 0.48 40.7888 0.48ZM45.7576 2.988C46.5736 2.988 47.1776 3.192 47.5696 3.6C47.9696 4 48.1696 4.612 48.1696 5.436V8.364C48.1696 8.58 48.1056 8.752 47.9776 8.88C47.8496 9 47.6736 9.06 47.4496 9.06C47.2416 9.06 47.0696 8.996 46.9336 8.868C46.8056 8.74 46.7416 8.572 46.7416 8.364V8.1C46.6056 8.412 46.3896 8.656 46.0936 8.832C45.8056 9.008 45.4696 9.096 45.0856 9.096C44.6936 9.096 44.3376 9.016 44.0176 8.856C43.6976 8.696 43.4456 8.476 43.2616 8.196C43.0776 7.916 42.9856 7.604 42.9856 7.26C42.9856 6.828 43.0936 6.488 43.3096 6.24C43.5336 5.992 43.8936 5.812 44.3896 5.7C44.8856 5.588 45.5696 5.532 46.4416 5.532H46.7416V5.256C46.7416 4.864 46.6576 4.58 46.4896 4.404C46.3216 4.22 46.0496 4.128 45.6736 4.128C45.4416 4.128 45.2056 4.164 44.9656 4.236C44.7256 4.3 44.4416 4.396 44.1136 4.524C43.9056 4.628 43.7536 4.68 43.6576 4.68C43.5136 4.68 43.3936 4.628 43.2976 4.524C43.2096 4.42 43.1656 4.284 43.1656 4.116C43.1656 3.98 43.1976 3.864 43.2616 3.768C43.3336 3.664 43.4496 3.568 43.6096 3.48C43.8896 3.328 44.2216 3.208 44.6056 3.12C44.9976 3.032 45.3816 2.988 45.7576 2.988ZM45.3856 8.016C45.7856 8.016 46.1096 7.884 46.3576 7.62C46.6136 7.348 46.7416 7 46.7416 6.576V6.324H46.5256C45.9896 6.324 45.5736 6.348 45.2776 6.396C44.9816 6.444 44.7696 6.528 44.6416 6.648C44.5136 6.768 44.4496 6.932 44.4496 7.14C44.4496 7.396 44.5376 7.608 44.7136 7.776C44.8976 7.936 45.1216 8.016 45.3856 8.016ZM56.6661 2.988C57.3061 2.988 57.7941 3.18 58.1301 3.564C58.4741 3.94 58.6461 4.552 58.6461 5.4V8.352C58.6461 8.584 58.5741 8.764 58.4301 8.892C58.2941 9.012 58.1141 9.072 57.8901 9.072C57.6741 9.072 57.4941 9.012 57.3501 8.892C57.2141 8.764 57.1461 8.584 57.1461 8.352V5.4C57.1461 4.96 57.0661 4.648 56.9061 4.464C56.7541 4.272 56.5181 4.176 56.1981 4.176C55.8061 4.176 55.4941 4.312 55.2621 4.584C55.0301 4.848 54.9141 5.212 54.9141 5.676V8.352C54.9141 8.584 54.8421 8.764 54.6981 8.892C54.5621 9.012 54.3861 9.072 54.1701 9.072C53.9541 9.072 53.7741 9.012 53.6301 8.892C53.4861 8.764 53.4141 8.584 53.4141 8.352V5.4C53.4141 4.96 53.3341 4.648 53.1741 4.464C53.0221 4.272 52.7861 4.176 52.4661 4.176C52.0741 4.176 51.7621 4.312 51.5301 4.584C51.3061 4.848 51.1941 5.212 51.1941 5.676V8.352C51.1941 8.584 51.1221 8.764 50.9781 8.892C50.8341 9.012 50.6541 9.072 50.4381 9.072C50.2221 9.072 50.0421 9.012 49.8981 8.892C49.7621 8.764 49.6941 8.584 49.6941 8.352V3.708C49.6941 3.484 49.7661 3.312 49.9101 3.192C50.0541 3.072 50.2341 3.012 50.4501 3.012C50.6581 3.012 50.8261 3.072 50.9541 3.192C51.0901 3.304 51.1581 3.468 51.1581 3.684V3.972C51.3421 3.652 51.5861 3.408 51.8901 3.24C52.2021 3.072 52.5581 2.988 52.9581 2.988C53.8381 2.988 54.4261 3.356 54.7221 4.092C54.8981 3.756 55.1581 3.488 55.5021 3.288C55.8461 3.088 56.2341 2.988 56.6661 2.988ZM64.8146 7.392C64.9506 7.392 65.0586 7.444 65.1386 7.548C65.2266 7.652 65.2706 7.792 65.2706 7.968C65.2706 8.216 65.1226 8.424 64.8266 8.592C64.5546 8.744 64.2466 8.868 63.9026 8.964C63.5586 9.052 63.2306 9.096 62.9186 9.096C61.9746 9.096 61.2266 8.824 60.6746 8.28C60.1226 7.736 59.8466 6.992 59.8466 6.048C59.8466 5.448 59.9666 4.916 60.2066 4.452C60.4466 3.988 60.7826 3.628 61.2146 3.372C61.6546 3.116 62.1506 2.988 62.7026 2.988C63.2306 2.988 63.6906 3.104 64.0826 3.336C64.4746 3.568 64.7786 3.896 64.9946 4.32C65.2106 4.744 65.3186 5.244 65.3186 5.82C65.3186 6.164 65.1666 6.336 64.8626 6.336H61.3226C61.3706 6.888 61.5266 7.296 61.7906 7.56C62.0546 7.816 62.4386 7.944 62.9426 7.944C63.1986 7.944 63.4226 7.912 63.6146 7.848C63.8146 7.784 64.0386 7.696 64.2866 7.584C64.5266 7.456 64.7026 7.392 64.8146 7.392ZM62.7386 4.044C62.3306 4.044 62.0026 4.172 61.7546 4.428C61.5146 4.684 61.3706 5.052 61.3226 5.532H64.0346C64.0186 5.044 63.8986 4.676 63.6746 4.428C63.4506 4.172 63.1386 4.044 62.7386 4.044Z" fill="#2F3B3F"/>
</svg>
