<svg width="63" height="33" viewBox="0 0 63 33" fill="none" xmlns="http://www.w3.org/2000/svg">
<path d="M29.9376 10.9418V5.44451H33.1264V6.03112H30.6378V10.9418H29.9376Z" fill="white"/>
<path d="M32.8798 11.0424C32.8011 11.0424 32.7336 11.0368 32.6774 11.0256C32.6267 11.0145 32.5705 10.9977 32.5086 10.9753L32.6436 10.3385C32.6717 10.3496 32.6999 10.358 32.728 10.3636C32.7561 10.3692 32.7898 10.372 32.8292 10.372C32.9754 10.372 33.0935 10.3049 33.1835 10.1709C33.2735 10.0312 33.3382 9.81052 33.3776 9.50884C33.4338 9.06749 33.4872 8.62893 33.5378 8.19317C33.5884 7.75182 33.6391 7.31047 33.6897 6.86912H36.212V10.9418H35.5119V7.43059H34.238C34.193 7.8049 34.148 8.182 34.103 8.56189C34.0581 8.9362 34.0131 9.31051 33.9681 9.68482C33.85 10.5899 33.4872 11.0424 32.8798 11.0424Z" fill="white"/>
<path d="M38.5425 11.0424C38.1994 11.0424 37.9126 10.9418 37.682 10.7407C37.4571 10.5396 37.3446 10.2547 37.3446 9.88594C37.3446 9.43901 37.5442 9.09822 37.9435 8.86357C38.3428 8.62335 38.9812 8.45575 39.8585 8.36077C39.8585 8.23228 39.8444 8.10658 39.8163 7.98367C39.7938 7.86076 39.7516 7.75182 39.6898 7.65685C39.6279 7.56187 39.5407 7.48645 39.4283 7.43059C39.3214 7.36913 39.1836 7.33841 39.0149 7.33841C38.7787 7.33841 38.5565 7.3831 38.3485 7.47249C38.1404 7.56187 37.9548 7.66243 37.7917 7.77417L37.5217 7.29651C37.7129 7.1736 37.9463 7.05628 38.2219 6.94454C38.4975 6.82722 38.8012 6.76856 39.133 6.76856C39.6335 6.76856 39.9963 6.9222 40.2212 7.22947C40.4462 7.53115 40.5587 7.93618 40.5587 8.44457V10.9418H39.985L39.926 10.4558H39.9007C39.7038 10.6178 39.4929 10.7575 39.268 10.8748C39.043 10.9865 38.8012 11.0424 38.5425 11.0424ZM38.745 10.4893C38.9418 10.4893 39.1274 10.4446 39.3017 10.3552C39.4761 10.2603 39.6617 10.1234 39.8585 9.9446V8.81329C39.5154 8.85799 39.2258 8.91106 38.9896 8.97252C38.759 9.03397 38.5706 9.1066 38.4244 9.1904C38.2838 9.2742 38.1797 9.37197 38.1123 9.4837C38.0504 9.58985 38.0195 9.70717 38.0195 9.83566C38.0195 10.0703 38.0898 10.2379 38.2304 10.3385C38.371 10.439 38.5425 10.4893 38.745 10.4893Z" fill="white"/>
<path d="M41.8486 10.9418V6.86912H43.4261C43.6511 6.86912 43.8564 6.88868 44.042 6.92778C44.2276 6.96689 44.385 7.02834 44.5144 7.11214C44.6494 7.19036 44.7534 7.29651 44.8265 7.43059C44.8996 7.55908 44.9362 7.71551 44.9362 7.89987C44.9362 8.12892 44.8743 8.31608 44.7506 8.46133C44.6325 8.60659 44.4666 8.70994 44.2529 8.77139V8.79653C44.371 8.82447 44.4806 8.86358 44.5819 8.91386C44.6887 8.96414 44.7815 9.02838 44.8603 9.1066C44.939 9.18481 45.0009 9.27978 45.0458 9.39152C45.0908 9.50325 45.1133 9.63175 45.1133 9.777C45.1133 9.97812 45.0712 10.1513 44.9868 10.2966C44.9081 10.4418 44.7956 10.5647 44.6494 10.6653C44.5088 10.7603 44.34 10.8301 44.1432 10.8748C43.9464 10.9195 43.7298 10.9418 43.4936 10.9418H41.8486ZM42.5319 8.57865H43.308C43.6511 8.57865 43.8957 8.52558 44.042 8.41943C44.1882 8.3077 44.2613 8.15686 44.2613 7.96691C44.2613 7.77696 44.191 7.62891 44.0504 7.52277C43.9098 7.41662 43.6792 7.36355 43.3586 7.36355H42.5319V8.57865ZM42.5319 10.4474H43.4177C43.7551 10.4474 44.0054 10.386 44.1685 10.263C44.3372 10.1401 44.4216 9.96416 44.4216 9.7351C44.4216 9.52839 44.3344 9.36638 44.1601 9.24906C43.9857 9.13174 43.7242 9.07308 43.3755 9.07308H42.5319V10.4474Z" fill="white"/>
<path d="M46.1325 10.9418V6.86912H46.8243V8.51999H48.7983V6.86912H49.49V10.9418H48.7983V9.13174H46.8243V10.9418H46.1325Z" fill="white"/>
<path d="M50.8695 10.9418V6.86912H51.5613V8.36915H52.1433C52.3852 8.36915 52.6045 8.39429 52.8014 8.44457C53.0038 8.49485 53.1754 8.57307 53.316 8.67921C53.4622 8.77977 53.5747 8.91106 53.6534 9.07308C53.7321 9.2295 53.7715 9.41945 53.7715 9.64292C53.7715 9.87197 53.7321 10.0675 53.6534 10.2295C53.5747 10.3915 53.4622 10.5256 53.316 10.6318C53.1754 10.7379 53.0038 10.8161 52.8014 10.8664C52.6045 10.9167 52.3852 10.9418 52.1433 10.9418H50.8695ZM51.5613 10.3887H52.0674C52.7479 10.3887 53.0882 10.1401 53.0882 9.64292C53.0882 9.38593 53.0038 9.19878 52.8351 9.08146C52.672 8.96414 52.4161 8.90548 52.0674 8.90548H51.5613V10.3887ZM54.4801 10.9418V6.86912H55.1719V10.9418H54.4801Z" fill="white"/>
<path d="M56.5539 10.9418V6.86912H57.2288V8.56189C57.2288 8.77977 57.2204 9.02 57.2035 9.28258C57.1922 9.53957 57.1782 9.79935 57.1613 10.0619H57.1951C57.2738 9.93343 57.3638 9.78817 57.465 9.62616C57.5719 9.46415 57.6619 9.31889 57.735 9.1904L59.2872 6.86912H59.9368V10.9418H59.2619V9.24906C59.2619 9.03118 59.2675 8.79374 59.2787 8.53675C59.2956 8.27418 59.3125 8.00881 59.3294 7.74065H59.2956C59.2169 7.86914 59.1241 8.01719 59.0172 8.18479C58.916 8.34681 58.8288 8.48927 58.7557 8.61217L57.1951 10.9418H56.5539ZM58.2664 6.14006C58.0302 6.14006 57.8306 6.10374 57.6675 6.03112C57.5044 5.95849 57.3694 5.86352 57.2625 5.7462C57.1557 5.62329 57.077 5.48641 57.0263 5.33557C56.9757 5.17915 56.9476 5.01992 56.942 4.85791H57.5156C57.5212 4.97523 57.5353 5.08976 57.5578 5.20149C57.5859 5.30764 57.6281 5.39982 57.6843 5.47803C57.7462 5.55625 57.8221 5.62049 57.9121 5.67078C58.0077 5.71547 58.1258 5.73782 58.2664 5.73782C58.407 5.73782 58.5223 5.71547 58.6123 5.67078C58.7079 5.62049 58.7838 5.55625 58.8401 5.47803C58.9019 5.39982 58.9441 5.30764 58.9666 5.20149C58.9947 5.08976 59.0116 4.97523 59.0172 4.85791H59.5909C59.5796 5.01992 59.5487 5.17915 59.4981 5.33557C59.4531 5.48641 59.3772 5.62329 59.2703 5.7462C59.1635 5.86352 59.0285 5.95849 58.8654 6.03112C58.7023 6.10374 58.5026 6.14006 58.2664 6.14006Z" fill="white"/>
<path d="M31.9792 21.2182C31.6305 21.2182 31.3099 21.1511 31.0174 21.017C30.7306 20.883 30.4832 20.693 30.2751 20.4472C30.067 20.1958 29.9039 19.8941 29.7858 19.5422C29.6733 19.1846 29.6171 18.7852 29.6171 18.3438C29.6171 17.9025 29.6733 17.5086 29.7858 17.1622C29.9039 16.8103 30.067 16.5142 30.2751 16.2739C30.4832 16.0281 30.7306 15.841 31.0174 15.7125C31.3099 15.584 31.6305 15.5197 31.9792 15.5197C32.3278 15.5197 32.6456 15.5868 32.9324 15.7209C33.2249 15.8493 33.4751 16.0365 33.6832 16.2823C33.8969 16.5225 34.06 16.8186 34.1725 17.1706C34.2906 17.517 34.3497 17.908 34.3497 18.3438C34.3497 18.7852 34.2906 19.1846 34.1725 19.5422C34.06 19.8941 33.8969 20.1958 33.6832 20.4472C33.4751 20.693 33.2249 20.883 32.9324 21.017C32.6456 21.1511 32.3278 21.2182 31.9792 21.2182ZM31.9792 20.6064C32.2266 20.6064 32.4488 20.5533 32.6456 20.4472C32.8481 20.3411 33.0196 20.1902 33.1602 19.9947C33.3064 19.7936 33.4189 19.5561 33.4976 19.2824C33.5764 19.003 33.6157 18.6902 33.6157 18.3438C33.6157 18.003 33.5764 17.6958 33.4976 17.422C33.4189 17.1483 33.3064 16.9164 33.1602 16.7265C33.0196 16.5365 32.8481 16.3913 32.6456 16.2907C32.4488 16.1845 32.2266 16.1315 31.9792 16.1315C31.7317 16.1315 31.5067 16.1845 31.3043 16.2907C31.1074 16.3913 30.9359 16.5365 30.7897 16.7265C30.6491 16.9164 30.5394 17.1483 30.4607 17.422C30.3819 17.6958 30.3426 18.003 30.3426 18.3438C30.3426 18.6902 30.3819 19.003 30.4607 19.2824C30.5394 19.5561 30.6491 19.7936 30.7897 19.9947C30.9359 20.1902 31.1074 20.3411 31.3043 20.4472C31.5067 20.5533 31.7317 20.6064 31.9792 20.6064Z" fill="white"/>
<path d="M35.4722 21.1176V17.0449H36.1639V18.7209H36.9569L37.3618 17.8159C37.4406 17.6371 37.5193 17.4918 37.5981 17.3801C37.6768 17.2684 37.7611 17.1818 37.8511 17.1203C37.9411 17.0533 38.0339 17.0086 38.1295 16.9862C38.2251 16.9583 38.3292 16.9443 38.4417 16.9443C38.5316 16.9443 38.6104 16.9583 38.6779 16.9862L38.5598 17.6315C38.5316 17.6203 38.5091 17.6147 38.4923 17.6147C38.4754 17.6147 38.4529 17.6147 38.4248 17.6147C38.3685 17.6147 38.3151 17.6231 38.2645 17.6399C38.2195 17.6511 38.1717 17.6762 38.1211 17.7153C38.0761 17.7544 38.0283 17.8103 37.9777 17.8829C37.9271 17.9555 37.8764 18.0505 37.8258 18.1678L37.4799 18.9723L38.8719 21.1176H38.1126L36.9738 19.2824H36.1639V21.1176H35.4722Z" fill="white"/>
<path d="M41.1281 21.2182C40.875 21.2182 40.6331 21.1707 40.4026 21.0757C40.1776 20.9807 39.9779 20.8439 39.8036 20.6651C39.6293 20.4807 39.4887 20.2573 39.3818 19.9947C39.2806 19.7265 39.23 19.4248 39.23 19.0896C39.23 18.7488 39.2806 18.4472 39.3818 18.1846C39.4887 17.9164 39.6293 17.6902 39.8036 17.5058C39.9779 17.3214 40.1776 17.1818 40.4026 17.0868C40.6331 16.9918 40.875 16.9443 41.1281 16.9443C41.3811 16.9443 41.6202 16.9918 41.8451 17.0868C42.0757 17.1818 42.2782 17.3214 42.4525 17.5058C42.6268 17.6902 42.7646 17.9164 42.8659 18.1846C42.9727 18.4472 43.0262 18.7488 43.0262 19.0896C43.0262 19.4248 42.9727 19.7265 42.8659 19.9947C42.7646 20.2573 42.6268 20.4807 42.4525 20.6651C42.2782 20.8439 42.0757 20.9807 41.8451 21.0757C41.6202 21.1707 41.3811 21.2182 41.1281 21.2182ZM41.1281 20.6483C41.3024 20.6483 41.4627 20.612 41.6089 20.5394C41.7551 20.4612 41.8789 20.355 41.9801 20.2209C42.0869 20.0813 42.1685 19.9165 42.2247 19.7265C42.281 19.5366 42.3091 19.3243 42.3091 19.0896C42.3091 18.855 42.281 18.6427 42.2247 18.4527C42.1685 18.2572 42.0869 18.0896 41.9801 17.9499C41.8789 17.8103 41.7551 17.7041 41.6089 17.6315C41.4627 17.5533 41.3024 17.5142 41.1281 17.5142C40.9537 17.5142 40.7934 17.5533 40.6472 17.6315C40.501 17.7041 40.3744 17.8103 40.2676 17.9499C40.1663 18.0896 40.0876 18.2572 40.0314 18.4527C39.9751 18.6427 39.947 18.855 39.947 19.0896C39.947 19.3243 39.9751 19.5366 40.0314 19.7265C40.0876 19.9165 40.1663 20.0813 40.2676 20.2209C40.3744 20.355 40.501 20.4612 40.6472 20.5394C40.7934 20.612 40.9537 20.6483 41.1281 20.6483Z" fill="white"/>
<path d="M44.1059 21.1176V17.0449H44.7976V18.6958H46.7717V17.0449H47.4634V21.1176H46.7717V19.3075H44.7976V21.1176H44.1059Z" fill="white"/>
<path d="M48.8429 21.1176V17.0449H49.5347V18.6958H51.5087V17.0449H52.2004V21.1176H51.5087V19.3075H49.5347V21.1176H48.8429Z" fill="white"/>
<path d="M53.5799 21.1176V17.0449H54.2717V18.5449H54.8537C55.0956 18.5449 55.3149 18.5701 55.5117 18.6204C55.7142 18.6706 55.8857 18.7488 56.0263 18.855C56.1726 18.9556 56.285 19.0868 56.3638 19.2489C56.4425 19.4053 56.4819 19.5952 56.4819 19.8187C56.4819 20.0478 56.4425 20.2433 56.3638 20.4053C56.285 20.5673 56.1726 20.7014 56.0263 20.8075C55.8857 20.9137 55.7142 20.9919 55.5117 21.0422C55.3149 21.0925 55.0956 21.1176 54.8537 21.1176H53.5799ZM54.2717 20.5645H54.7778C55.4583 20.5645 55.7986 20.3159 55.7986 19.8187C55.7986 19.5617 55.7142 19.3746 55.5455 19.2572C55.3824 19.1399 55.1265 19.0813 54.7778 19.0813H54.2717V20.5645ZM57.1905 21.1176V17.0449H57.8823V21.1176H57.1905Z" fill="white"/>
<path d="M59.2643 21.1176V17.0449H59.9392V18.7377C59.9392 18.9556 59.9308 19.1958 59.9139 19.4584C59.9026 19.7153 59.8886 19.9751 59.8717 20.2377H59.9055C59.9842 20.1092 60.0742 19.964 60.1754 19.8019C60.2823 19.6399 60.3722 19.4947 60.4454 19.3662L61.9976 17.0449H62.6471V21.1176H61.9723V19.4248C61.9723 19.207 61.9779 18.9695 61.9891 18.7125C62.006 18.45 62.0229 18.1846 62.0398 17.9164H62.006C61.9273 18.0449 61.8345 18.193 61.7276 18.3606C61.6264 18.5226 61.5392 18.665 61.4661 18.788L59.9055 21.1176H59.2643ZM60.9768 16.3158C60.7406 16.3158 60.541 16.2795 60.3779 16.2069C60.2148 16.1343 60.0798 16.0393 59.9729 15.922C59.8661 15.7991 59.7873 15.6622 59.7367 15.5114C59.6861 15.3549 59.658 15.1957 59.6524 15.0337H60.226C60.2316 15.151 60.2457 15.2655 60.2682 15.3773C60.2963 15.4834 60.3385 15.5756 60.3947 15.6538C60.4566 15.732 60.5325 15.7963 60.6225 15.8466C60.7181 15.8912 60.8362 15.9136 60.9768 15.9136C61.1174 15.9136 61.2327 15.8912 61.3227 15.8466C61.4183 15.7963 61.4942 15.732 61.5505 15.6538C61.6123 15.5756 61.6545 15.4834 61.677 15.3773C61.7051 15.2655 61.722 15.151 61.7276 15.0337H62.3013C62.29 15.1957 62.2591 15.3549 62.2085 15.5114C62.1635 15.6622 62.0876 15.7991 61.9807 15.922C61.8739 16.0393 61.7389 16.1343 61.5758 16.2069C61.4127 16.2795 61.213 16.3158 60.9768 16.3158Z" fill="white"/>
<path d="M31.5236 31.3939C31.1187 31.3939 30.7559 31.3325 30.4354 31.2096C30.1148 31.0811 29.8139 30.8744 29.5327 30.5895L29.9292 30.1118C30.171 30.3576 30.4157 30.5308 30.6631 30.6314C30.9106 30.7319 31.1946 30.7822 31.5152 30.7822C31.6951 30.7822 31.8639 30.7599 32.0213 30.7152C32.1788 30.6649 32.3166 30.595 32.4347 30.5057C32.5528 30.4107 32.6456 30.2962 32.7131 30.1621C32.7862 30.028 32.8228 29.8744 32.8228 29.7012C32.8228 29.3492 32.6934 29.0894 32.4347 28.9218C32.176 28.7542 31.8076 28.6704 31.3296 28.6704H30.7053V28.1341H31.1609C31.6501 28.1341 32.0016 28.0559 32.2154 27.8995C32.4291 27.7374 32.5359 27.5 32.5359 27.1872C32.5359 26.8967 32.4319 26.6788 32.2238 26.5335C32.0213 26.3827 31.7654 26.3073 31.4561 26.3073C31.1974 26.3073 30.9584 26.3547 30.7391 26.4497C30.5197 26.5391 30.3257 26.662 30.157 26.8184L29.7774 26.3492C29.9742 26.1536 30.2217 25.9972 30.5197 25.8799C30.8178 25.757 31.1356 25.6955 31.473 25.6955C31.7317 25.6955 31.9679 25.729 32.1816 25.7961C32.401 25.8575 32.5865 25.9497 32.7384 26.0726C32.8959 26.1899 33.0168 26.338 33.1011 26.5168C33.1855 26.6899 33.2277 26.8855 33.2277 27.1034C33.2277 27.3939 33.1574 27.6509 33.0168 27.8743C32.8762 28.0922 32.6709 28.2486 32.401 28.3436V28.3771C32.7215 28.4386 32.9858 28.5866 33.1939 28.8213C33.4076 29.0503 33.5145 29.3548 33.5145 29.7347C33.5145 29.9973 33.4611 30.2319 33.3542 30.4386C33.253 30.6453 33.1124 30.8213 32.9324 30.9666C32.7525 31.1062 32.5416 31.2124 32.2997 31.285C32.0579 31.3576 31.7992 31.3939 31.5236 31.3939Z" fill="white"/>
<path d="M35.4861 31.3939C35.143 31.3939 34.8562 31.2934 34.6256 31.0923C34.4007 30.8911 34.2882 30.6062 34.2882 30.2375C34.2882 29.7906 34.4878 29.4498 34.8871 29.2151C35.2864 28.9749 35.9248 28.8073 36.8021 28.7123C36.8021 28.5838 36.788 28.4581 36.7599 28.3352C36.7374 28.2123 36.6952 28.1034 36.6334 28.0084C36.5715 27.9134 36.4843 27.838 36.3719 27.7821C36.265 27.7207 36.1272 27.69 35.9585 27.69C35.7223 27.69 35.5001 27.7347 35.2921 27.824C35.084 27.9134 34.8984 28.014 34.7353 28.1257L34.4653 27.6481C34.6565 27.5252 34.8899 27.4078 35.1655 27.2961C35.4411 27.1788 35.7448 27.1201 36.0766 27.1201C36.5771 27.1201 36.9399 27.2738 37.1648 27.581C37.3898 27.8827 37.5023 28.2877 37.5023 28.7961V31.2934H36.9286L36.8696 30.8073H36.8443C36.6474 30.9694 36.4365 31.109 36.2116 31.2263C35.9866 31.3381 35.7448 31.3939 35.4861 31.3939ZM35.6886 30.8409C35.8854 30.8409 36.071 30.7962 36.2453 30.7068C36.4197 30.6118 36.6053 30.4749 36.8021 30.2962V29.1649C36.459 29.2095 36.1694 29.2626 35.9332 29.3241C35.7026 29.3855 35.5142 29.4582 35.368 29.542C35.2274 29.6258 35.1233 29.7235 35.0559 29.8353C34.994 29.9414 34.9631 30.0587 34.9631 30.1872C34.9631 30.4219 35.0334 30.5895 35.174 30.69C35.3146 30.7906 35.4861 30.8409 35.6886 30.8409Z" fill="white"/>
<path d="M38.7922 31.2934V27.2207H40.3697C40.5947 27.2207 40.8 27.2402 40.9856 27.2793C41.1712 27.3184 41.3286 27.3799 41.458 27.4637C41.593 27.5419 41.697 27.6481 41.7701 27.7821C41.8432 27.9106 41.8798 28.0671 41.8798 28.2514C41.8798 28.4805 41.8179 28.6676 41.6942 28.8129C41.5761 28.9581 41.4102 29.0615 41.1965 29.123V29.1481C41.3146 29.176 41.4242 29.2151 41.5255 29.2654C41.6323 29.3157 41.7251 29.3799 41.8039 29.4582C41.8826 29.5364 41.9445 29.6313 41.9894 29.7431C42.0344 29.8548 42.0569 29.9833 42.0569 30.1286C42.0569 30.3297 42.0148 30.5029 41.9304 30.6481C41.8517 30.7934 41.7392 30.9163 41.593 31.0168C41.4524 31.1118 41.2836 31.1817 41.0868 31.2263C40.89 31.271 40.6734 31.2934 40.4372 31.2934H38.7922ZM39.4755 28.9302H40.2516C40.5947 28.9302 40.8393 28.8771 40.9856 28.771C41.1318 28.6593 41.2049 28.5084 41.2049 28.3185C41.2049 28.1285 41.1346 27.9805 40.994 27.8743C40.8534 27.7682 40.6228 27.7151 40.3022 27.7151H39.4755V28.9302ZM39.4755 30.799H40.3613C40.6987 30.799 40.949 30.7375 41.1121 30.6146C41.2808 30.4917 41.3652 30.3157 41.3652 30.0867C41.3652 29.8799 41.278 29.7179 41.1037 29.6006C40.9293 29.4833 40.6678 29.4246 40.3191 29.4246H39.4755V30.799Z" fill="white"/>
<path d="M44.6705 31.3939C44.4174 31.3939 44.1756 31.3465 43.945 31.2515C43.7201 31.1565 43.5204 31.0196 43.3461 30.8409C43.1717 30.6565 43.0311 30.433 42.9243 30.1705C42.823 29.9023 42.7724 29.6006 42.7724 29.2654C42.7724 28.9246 42.823 28.6229 42.9243 28.3604C43.0311 28.0922 43.1717 27.8659 43.3461 27.6816C43.5204 27.4972 43.7201 27.3576 43.945 27.2626C44.1756 27.1676 44.4174 27.1201 44.6705 27.1201C44.9236 27.1201 45.1626 27.1676 45.3876 27.2626C45.6182 27.3576 45.8206 27.4972 45.995 27.6816C46.1693 27.8659 46.3071 28.0922 46.4083 28.3604C46.5152 28.6229 46.5686 28.9246 46.5686 29.2654C46.5686 29.6006 46.5152 29.9023 46.4083 30.1705C46.3071 30.433 46.1693 30.6565 45.995 30.8409C45.8206 31.0196 45.6182 31.1565 45.3876 31.2515C45.1626 31.3465 44.9236 31.3939 44.6705 31.3939ZM44.6705 30.8241C44.8449 30.8241 45.0051 30.7878 45.1514 30.7152C45.2976 30.6369 45.4213 30.5308 45.5225 30.3967C45.6294 30.2571 45.711 30.0922 45.7672 29.9023C45.8234 29.7123 45.8515 29.5001 45.8515 29.2654C45.8515 29.0308 45.8234 28.8185 45.7672 28.6285C45.711 28.433 45.6294 28.2654 45.5225 28.1257C45.4213 27.9861 45.2976 27.8799 45.1514 27.8073C45.0051 27.7291 44.8449 27.69 44.6705 27.69C44.4962 27.69 44.3359 27.7291 44.1897 27.8073C44.0434 27.8799 43.9169 27.9861 43.81 28.1257C43.7088 28.2654 43.6301 28.433 43.5738 28.6285C43.5176 28.8185 43.4895 29.0308 43.4895 29.2654C43.4895 29.5001 43.5176 29.7123 43.5738 29.9023C43.6301 30.0922 43.7088 30.2571 43.81 30.3967C43.9169 30.5308 44.0434 30.6369 44.1897 30.7152C44.3359 30.7878 44.4962 30.8241 44.6705 30.8241Z" fill="white"/>
<path d="M47.7918 31.2934V32.7348H47.1928L47.1169 31.1677V30.7319H47.3193C47.3756 30.6984 47.429 30.6537 47.4796 30.5978C47.5359 30.5364 47.5865 30.4442 47.6315 30.3213C47.6765 30.1984 47.7215 30.0336 47.7665 29.8269C47.8114 29.6202 47.8536 29.352 47.893 29.0224L48.1123 27.2207H50.66V30.7319H51.259V31.1677L51.1915 32.7348H50.5925V31.2934H47.7918ZM48.5004 29.1565C48.4554 29.5587 48.3935 29.8855 48.3148 30.1369C48.2417 30.3883 48.1573 30.5867 48.0617 30.7319H49.9682V27.7821H48.6607L48.5004 29.1565Z" fill="white"/>
<g clip-path="url(#clip0_409_1717)">
<path d="M23.5229 3.92969V4.85776H24.9551V10.2604C24.3793 10.0639 23.9613 9.49157 23.9613 8.81754H23.0845C23.0845 9.65336 22.442 10.3334 21.6523 10.3334V11.2615C22.442 11.2615 23.0845 11.9415 23.0845 12.7773H23.9613C23.9613 12.1033 24.3793 11.5309 24.9551 11.3344V31.6481H1.51358V4.85776H19.7816V3.92969H0.636719V32.5762H25.832V3.92969H23.5229ZM23.5229 11.3471C23.3785 11.136 23.203 10.9503 23.0036 10.7974C23.203 10.6445 23.3785 10.4589 23.5229 10.2478C23.6674 10.4589 23.8428 10.6445 24.0423 10.7974C23.8428 10.9503 23.6674 11.136 23.5229 11.3471Z" fill="white"/>
<path d="M2.50732 5.90967V16.7372H3.38419V6.83774H11.8606V29.6683H3.38419V20.697H2.50732V30.5964H12.7374V5.90967H2.50732Z" fill="white"/>
<path d="M13.7314 5.90967V28.1525H14.6083V6.83774H23.5231V5.90967H13.7314Z" fill="white"/>
<path d="M23.0847 14.7573V29.6684H14.1699V30.5964H23.9616V14.7573H23.0847Z" fill="white"/>
<path d="M6.37719 8.02528L4.50635 10.0054L5.12638 10.6616L6.99722 8.68152L6.37719 8.02528Z" fill="white"/>
<path d="M8.24758 8.02515L4.50635 11.9849L5.12638 12.6411L8.86761 8.68139L8.24758 8.02515Z" fill="white"/>
<path d="M17.6008 8.02479L15.73 10.0049L16.35 10.6611L18.2209 8.68103L17.6008 8.02479Z" fill="white"/>
<path d="M19.4712 8.02515L15.73 11.9849L16.35 12.6411L20.0912 8.68139L19.4712 8.02515Z" fill="white"/>
<path d="M5.25488 16.7373H4.37802C4.37802 17.5731 3.73551 18.2532 2.9458 18.2532V19.1812C3.73551 19.1812 4.37802 19.8613 4.37802 20.6971H5.25488C5.25488 19.8613 5.89739 19.1812 6.6871 19.1812V18.2532C5.89739 18.2532 5.25488 17.5731 5.25488 16.7373ZM4.81645 19.2669C4.672 19.0558 4.49657 18.8701 4.29711 18.7172C4.49657 18.5643 4.672 18.3786 4.81645 18.1675C4.9609 18.3786 5.13633 18.5643 5.33579 18.7172C5.13633 18.8701 4.9609 19.0558 4.81645 19.2669Z" fill="white"/>
<path d="M22.0908 0.897949H21.214C21.214 1.73377 20.5714 2.4138 19.7817 2.4138V3.34188C20.5714 3.34188 21.214 4.02191 21.214 4.85773H22.0908C22.0908 4.02191 22.7333 3.34188 23.523 3.34188V2.4138C22.7333 2.4138 22.0908 1.73377 22.0908 0.897949ZM21.6524 3.42751C21.5079 3.2164 21.3325 3.03072 21.133 2.87784C21.3325 2.72495 21.5079 2.53928 21.6524 2.32817C21.7968 2.53928 21.9723 2.72495 22.1717 2.87784C21.9723 3.03072 21.7968 3.2164 21.6524 3.42751Z" fill="white"/>
<path d="M21.6521 17.7891H20.7168V18.7171H21.6521V17.7891Z" fill="white"/>
<path d="M19.3142 17.7891H18.3789V18.7171H19.3142V17.7891Z" fill="white"/>
<path d="M16.9758 17.7891H16.0405V18.7171H16.9758V17.7891Z" fill="white"/>
</g>
<defs>
<clipPath id="clip0_409_1717">
<rect width="26.1095" height="31.6782" fill="white" transform="translate(0 0.897949)"/>
</clipPath>
</defs>
</svg>
