<svg width="36" height="35" viewBox="0 0 36 35" fill="none" xmlns="http://www.w3.org/2000/svg">
<g clip-path="url(#clip0)">
<path d="M26.0238 0.5H26.5238C31.4718 0.5 35.498 4.52617 35.498 9.47416V25.526C35.498 30.4738 31.4718 34.4999 26.5241 34.4999H10.4722C5.5242 34.4999 1.49805 30.4738 1.49805 25.526V9.47416C1.49805 4.52617 5.52421 0.5 10.4722 0.5H26.0238ZM8.42799 17.5C8.42799 23.0531 12.9449 27.57 18.498 27.57C24.0512 27.57 28.568 23.0531 28.568 17.5C28.568 11.9468 24.0512 7.42994 18.498 7.42994C12.9449 7.42994 8.42799 11.9468 8.42799 17.5ZM24.9691 7.35903C24.9691 9.19462 26.4613 10.6869 28.2969 10.6869C30.1324 10.6869 31.625 9.19468 31.625 7.35903C31.625 5.52345 30.1325 4.03094 28.2969 4.03094C26.4612 4.03094 24.9691 5.52351 24.9691 7.35903Z" stroke="#2F3B3F"/>
<path d="M11.4797 17.4999C11.4797 13.6304 14.6287 10.4817 18.498 10.4817C22.3675 10.4817 25.5162 13.6304 25.5162 17.4999C25.5162 21.3691 22.3674 24.5181 18.498 24.5181C14.6287 24.5181 11.4797 21.3691 11.4797 17.4999Z" stroke="#2F3B3F"/>
<path d="M28.2975 6.58301C27.8694 6.58301 27.521 6.93121 27.521 7.35899C27.521 7.78677 27.8694 8.13498 28.2975 8.13498C28.7258 8.13498 29.0742 7.78704 29.0742 7.35899C29.0742 6.93095 28.7258 6.58301 28.2975 6.58301Z" fill="#2F3B3F"/>
</g>
<defs>
<clipPath id="clip0">
<rect width="35" height="35" fill="white" transform="translate(0.998047)"/>
</clipPath>
</defs>
</svg>
