<svg width="36" height="35" viewBox="0 0 36 35" fill="none" xmlns="http://www.w3.org/2000/svg">
<g clip-path="url(#clip0)">
<path d="M18.2919 22.2645L17.6047 22.9991C17.5648 23.0417 17.5261 23.0839 17.4885 23.1248C17.4209 23.1985 17.3571 23.268 17.2972 23.3285L17.2962 23.3295C17.0384 23.5879 16.7806 23.8464 16.5228 24.105C15.4542 25.1766 14.3849 26.2489 13.3133 27.3189L13.3133 27.319C13.0856 27.5462 12.9792 27.7415 12.968 27.9702C12.9502 28.3438 13.1887 28.7565 13.6029 28.9573L13.6032 28.9574C13.7936 29.0499 13.9631 29.0714 14.1126 29.0458L18.2919 22.2645ZM18.2919 22.2645L17.2914 22.1602M18.2919 22.2645L17.2914 22.1602M17.2914 22.1602C15.5304 21.9765 14.0045 21.5487 12.7114 20.5374M17.2914 22.1602L12.7114 20.5374M23.5572 27.3915C23.8729 27.7107 23.9187 28.0595 23.7603 28.398L23.5572 27.3915ZM23.5572 27.3915C22.7067 26.5315 21.8529 25.6763 20.9982 24.8203M23.5572 27.3915L20.9982 24.8203M12.114 18.8467L12.1139 18.8467C11.9211 19.123 11.8684 19.3481 11.8857 19.5287C11.9029 19.7088 11.9966 19.9188 12.2393 20.1519L12.114 18.8467ZM12.114 18.8467C12.2547 18.645 12.4282 18.5346 12.6135 18.4928M12.114 18.8467L12.6135 18.4928M13.6497 18.7972L13.6497 18.7972C13.5357 18.7181 13.4272 18.652 13.3208 18.6017L13.6497 18.7972ZM13.6497 18.7972L13.6514 18.7984M13.6497 18.7972L13.6514 18.7984M13.6514 18.7984C16.4192 20.7001 20.2171 20.7556 23.0032 18.8816L23.016 18.8729M13.6514 18.7984L23.016 18.8729M23.016 18.8729L23.0283 18.8635M23.016 18.8729L23.0283 18.8635M23.0283 18.8635C23.2555 18.6893 23.4714 18.5683 23.7045 18.5082L23.0283 18.8635ZM24.6933 18.8997L24.6933 18.8997C24.4761 18.5456 24.1204 18.4014 23.7046 18.5081L24.6933 18.8997ZM24.6933 18.8997C24.8476 19.1511 24.9001 19.3612 24.8931 19.5266M24.6933 18.8997L24.8931 19.5266M18.5388 22.2747L19.5081 22.1588C20.4828 22.0423 21.4339 21.8702 22.2887 21.5388C23.1974 21.1864 24.0025 20.6867 24.6677 20.004L18.5388 22.2747ZM18.5388 22.2747L19.1993 22.9936M18.5388 22.2747L19.1993 22.9936M19.1993 22.9936C19.2336 23.031 19.2645 23.0648 19.293 23.096C19.3821 23.1935 19.4483 23.266 19.5261 23.3442L19.5261 23.3443M19.1993 22.9936L19.5261 23.3443M19.5261 23.3443C20.0169 23.8373 20.5077 24.329 20.9982 24.8203M19.5261 23.3443L20.9982 24.8203M12.7114 20.5374L12.4033 20.9312M12.7114 20.5374L12.4033 20.9312M12.4033 20.9312L12.7119 20.5378C12.6707 20.5054 12.6315 20.4751 12.5941 20.4461M12.4033 20.9312L12.5941 20.4461M12.5941 20.4461C12.4579 20.3407 12.3448 20.2531 12.2394 20.152L12.5941 20.4461ZM12.6135 18.4928C12.8025 18.4501 13.0427 18.4706 13.3206 18.6016L12.6135 18.4928ZM24.8931 19.5266C24.8864 19.6828 24.8255 19.8418 24.6678 20.0039L24.8931 19.5266ZM17.6939 25.6656C16.6775 26.7121 15.6437 27.7432 14.6021 28.7701L23.7603 28.398C23.564 28.8171 23.1311 29.0679 22.7551 29.0423C22.5379 29.0273 22.3471 28.9234 22.131 28.7057L22.1308 28.7055C21.7939 28.3665 21.4572 28.0318 21.1218 27.6984C20.4387 27.0193 19.7609 26.3456 19.0974 25.6512L19.0972 25.6511C18.9436 25.4905 18.6895 25.2636 18.3364 25.2956C18.1676 25.3109 18.0342 25.382 17.9389 25.449C17.846 25.5142 17.7632 25.5944 17.6941 25.6655L17.6939 25.6656Z" stroke="#2F3B3F"/>
<path d="M21.7749 12.1204V12.1205C21.7812 14.0002 20.2845 15.5117 18.4063 15.5183C18.4063 15.5183 18.4063 15.5183 18.4063 15.5183L18.4045 15.0183L21.7749 12.1204ZM21.7749 12.1204C21.7684 10.2413 20.268 8.74005 18.3901 8.73829L21.7749 12.1204ZM18.3439 17.5327H18.3439C15.3943 17.5226 12.9707 15.0736 12.9879 12.1173L12.9879 12.1172C13.0049 9.12359 15.4298 6.71392 18.4117 6.72219L18.4117 6.72219C21.3952 6.73023 23.798 9.17104 23.783 12.2016C23.7678 15.1463 21.3327 17.543 18.3439 17.5327ZM18.39 8.73829C16.4961 8.73632 14.9829 10.2645 14.9974 12.1606L18.39 8.73829Z" stroke="#2F3B3F"/>
</g>
<rect x="0.999023" y="0.5" width="34" height="34" rx="9.5" stroke="#2F3B3F"/>
<defs>
<clipPath id="clip0">
<rect width="23.3333" height="23.3333" fill="white" transform="translate(6.72119 6.22217)"/>
</clipPath>
</defs>
</svg>
