<svg width="35" height="35" viewBox="0 0 35 35" fill="none" xmlns="http://www.w3.org/2000/svg">
<g clip-path="url(#clip0)">
<mask id="path-1-inside-1" fill="white">
<path d="M29.4318 23.2553C29.4036 23.1944 29.3772 23.1439 29.3527 23.1034C28.9479 22.3743 28.1743 21.4794 27.0323 20.4183L27.0082 20.394L26.9961 20.3821L26.9839 20.3699H26.9717C26.4534 19.8758 26.1252 19.5436 25.9877 19.3736C25.7363 19.0496 25.6799 18.7216 25.8174 18.3894C25.9145 18.1383 26.2792 17.6081 26.9108 16.7981C27.243 16.3688 27.5061 16.0247 27.7004 15.7655C29.1016 13.9026 29.7091 12.7122 29.5227 12.1938L29.4504 12.0726C29.4017 11.9997 29.2762 11.933 29.0739 11.8721C28.8712 11.8114 28.6121 11.8014 28.2962 11.8418L24.7975 11.866C24.7408 11.8459 24.6598 11.8478 24.5544 11.8721C24.4491 11.8965 24.3964 11.9087 24.3964 11.9087L24.3355 11.9391L24.2872 11.9756C24.2467 11.9998 24.2021 12.0423 24.1535 12.1031C24.1051 12.1636 24.0646 12.2347 24.0323 12.3157C23.6514 13.2957 23.2183 14.2068 22.7322 15.0491C22.4325 15.5513 22.1573 15.9866 21.906 16.3551C21.655 16.7235 21.4444 16.995 21.2744 17.1689C21.1042 17.3431 20.9506 17.4826 20.8127 17.588C20.6749 17.6935 20.5698 17.738 20.497 17.7217C20.424 17.7054 20.3553 17.6893 20.2902 17.6731C20.1769 17.6002 20.0858 17.501 20.017 17.3754C19.948 17.2499 19.9016 17.0919 19.8773 16.9016C19.8531 16.7111 19.8388 16.5473 19.8347 16.4096C19.8309 16.272 19.8327 16.0774 19.8409 15.8264C19.8493 15.5752 19.8531 15.4052 19.8531 15.3161C19.8531 15.0083 19.8591 14.6743 19.8711 14.3138C19.8834 13.9534 19.8933 13.6679 19.9016 13.4575C19.9099 13.2469 19.9137 13.0241 19.9137 12.7892C19.9137 12.5543 19.8994 12.3701 19.8711 12.2364C19.8432 12.1029 19.8004 11.9733 19.7439 11.8477C19.6871 11.7221 19.6039 11.625 19.4948 11.5561C19.3855 11.4872 19.2496 11.4326 19.0879 11.392C18.6586 11.2949 18.1119 11.2423 17.4477 11.2342C15.9413 11.218 14.9734 11.3153 14.5441 11.5258C14.3741 11.6148 14.2201 11.7364 14.0825 11.8902C13.9367 12.0684 13.9164 12.1657 14.0216 12.1817C14.5077 12.2545 14.8517 12.4286 15.0542 12.704L15.1272 12.8499C15.184 12.9552 15.2407 13.1416 15.2974 13.4088C15.354 13.676 15.3906 13.9716 15.4066 14.2954C15.4471 14.8868 15.4471 15.3929 15.4066 15.814C15.3661 16.2353 15.3278 16.5632 15.2912 16.7981C15.2547 17.033 15.2001 17.2233 15.1272 17.3691C15.0542 17.5148 15.0057 17.6039 14.9813 17.6363C14.9571 17.6686 14.9368 17.689 14.9207 17.697C14.8154 17.7373 14.706 17.7579 14.5926 17.7579C14.4792 17.7579 14.3415 17.7011 14.1796 17.5877C14.0177 17.4743 13.8497 17.3184 13.6755 17.12C13.5013 16.9215 13.3049 16.6441 13.0862 16.2878C12.8676 15.9314 12.6408 15.5103 12.4059 15.0244L12.2116 14.672C12.0901 14.4452 11.9241 14.1151 11.7135 13.6819C11.5028 13.2485 11.3166 12.8293 11.1547 12.4244C11.0899 12.2543 10.9927 12.1248 10.8632 12.0357L10.8023 11.9991C10.7619 11.9668 10.697 11.9325 10.608 11.8959C10.5189 11.8593 10.4259 11.8331 10.3286 11.817L6.99984 11.8411C6.65968 11.8411 6.42888 11.9182 6.30736 12.0721L6.25872 12.1449C6.23442 12.1855 6.22217 12.2502 6.22217 12.3394C6.22217 12.4285 6.24646 12.5378 6.2951 12.6673C6.78104 13.8094 7.30948 14.9108 7.88043 15.9718C8.45139 17.0328 8.94753 17.8874 9.36858 18.535C9.78971 19.183 10.219 19.7946 10.6564 20.3694C11.0937 20.9445 11.3833 21.3131 11.5249 21.475C11.6667 21.6372 11.7781 21.7584 11.8591 21.8394L12.1629 22.1309C12.3573 22.3254 12.6427 22.5582 13.0193 22.8295C13.396 23.1009 13.8131 23.3681 14.2707 23.6315C14.7283 23.8946 15.2608 24.1092 15.8683 24.2752C16.4757 24.4413 17.0669 24.508 17.642 24.4759H19.0391C19.3225 24.4514 19.5371 24.3623 19.6831 24.2085L19.7314 24.1476C19.7639 24.0993 19.7943 24.0242 19.8224 23.9231C19.8508 23.8219 19.865 23.7104 19.865 23.589C19.8567 23.2408 19.8832 22.927 19.9438 22.6476C20.0043 22.3683 20.0733 22.1577 20.1505 22.0159C20.2277 21.8742 20.3147 21.7547 20.4116 21.6577C20.5087 21.5606 20.5779 21.5017 20.6185 21.4815C20.6588 21.4611 20.6911 21.4473 20.7153 21.439C20.9097 21.3742 21.1385 21.4369 21.402 21.6274C21.6652 21.8178 21.9121 22.0528 22.1431 22.3321C22.374 22.6116 22.6513 22.9253 22.9752 23.2735C23.2993 23.6218 23.5827 23.8807 23.8256 24.0511L24.0685 24.1968C24.2307 24.2941 24.4413 24.3832 24.7005 24.4642C24.9592 24.5451 25.186 24.5654 25.3806 24.5249L28.4906 24.4764C28.7982 24.4764 29.0375 24.4255 29.2073 24.3244C29.3774 24.2232 29.4785 24.1117 29.5111 23.9903C29.5436 23.8689 29.5453 23.7311 29.5172 23.5771C29.4884 23.4234 29.4601 23.316 29.4318 23.2553Z"/>
</mask>
<path d="M29.4318 23.2553C29.4036 23.1944 29.3772 23.1439 29.3527 23.1034C28.9479 22.3743 28.1743 21.4794 27.0323 20.4183L27.0082 20.394L26.9961 20.3821L26.9839 20.3699H26.9717C26.4534 19.8758 26.1252 19.5436 25.9877 19.3736C25.7363 19.0496 25.6799 18.7216 25.8174 18.3894C25.9145 18.1383 26.2792 17.6081 26.9108 16.7981C27.243 16.3688 27.5061 16.0247 27.7004 15.7655C29.1016 13.9026 29.7091 12.7122 29.5227 12.1938L29.4504 12.0726C29.4017 11.9997 29.2762 11.933 29.0739 11.8721C28.8712 11.8114 28.6121 11.8014 28.2962 11.8418L24.7975 11.866C24.7408 11.8459 24.6598 11.8478 24.5544 11.8721C24.4491 11.8965 24.3964 11.9087 24.3964 11.9087L24.3355 11.9391L24.2872 11.9756C24.2467 11.9998 24.2021 12.0423 24.1535 12.1031C24.1051 12.1636 24.0646 12.2347 24.0323 12.3157C23.6514 13.2957 23.2183 14.2068 22.7322 15.0491C22.4325 15.5513 22.1573 15.9866 21.906 16.3551C21.655 16.7235 21.4444 16.995 21.2744 17.1689C21.1042 17.3431 20.9506 17.4826 20.8127 17.588C20.6749 17.6935 20.5698 17.738 20.497 17.7217C20.424 17.7054 20.3553 17.6893 20.2902 17.6731C20.1769 17.6002 20.0858 17.501 20.017 17.3754C19.948 17.2499 19.9016 17.0919 19.8773 16.9016C19.8531 16.7111 19.8388 16.5473 19.8347 16.4096C19.8309 16.272 19.8327 16.0774 19.8409 15.8264C19.8493 15.5752 19.8531 15.4052 19.8531 15.3161C19.8531 15.0083 19.8591 14.6743 19.8711 14.3138C19.8834 13.9534 19.8933 13.6679 19.9016 13.4575C19.9099 13.2469 19.9137 13.0241 19.9137 12.7892C19.9137 12.5543 19.8994 12.3701 19.8711 12.2364C19.8432 12.1029 19.8004 11.9733 19.7439 11.8477C19.6871 11.7221 19.6039 11.625 19.4948 11.5561C19.3855 11.4872 19.2496 11.4326 19.0879 11.392C18.6586 11.2949 18.1119 11.2423 17.4477 11.2342C15.9413 11.218 14.9734 11.3153 14.5441 11.5258C14.3741 11.6148 14.2201 11.7364 14.0825 11.8902C13.9367 12.0684 13.9164 12.1657 14.0216 12.1817C14.5077 12.2545 14.8517 12.4286 15.0542 12.704L15.1272 12.8499C15.184 12.9552 15.2407 13.1416 15.2974 13.4088C15.354 13.676 15.3906 13.9716 15.4066 14.2954C15.4471 14.8868 15.4471 15.3929 15.4066 15.814C15.3661 16.2353 15.3278 16.5632 15.2912 16.7981C15.2547 17.033 15.2001 17.2233 15.1272 17.3691C15.0542 17.5148 15.0057 17.6039 14.9813 17.6363C14.9571 17.6686 14.9368 17.689 14.9207 17.697C14.8154 17.7373 14.706 17.7579 14.5926 17.7579C14.4792 17.7579 14.3415 17.7011 14.1796 17.5877C14.0177 17.4743 13.8497 17.3184 13.6755 17.12C13.5013 16.9215 13.3049 16.6441 13.0862 16.2878C12.8676 15.9314 12.6408 15.5103 12.4059 15.0244L12.2116 14.672C12.0901 14.4452 11.9241 14.1151 11.7135 13.6819C11.5028 13.2485 11.3166 12.8293 11.1547 12.4244C11.0899 12.2543 10.9927 12.1248 10.8632 12.0357L10.8023 11.9991C10.7619 11.9668 10.697 11.9325 10.608 11.8959C10.5189 11.8593 10.4259 11.8331 10.3286 11.817L6.99984 11.8411C6.65968 11.8411 6.42888 11.9182 6.30736 12.0721L6.25872 12.1449C6.23442 12.1855 6.22217 12.2502 6.22217 12.3394C6.22217 12.4285 6.24646 12.5378 6.2951 12.6673C6.78104 13.8094 7.30948 14.9108 7.88043 15.9718C8.45139 17.0328 8.94753 17.8874 9.36858 18.535C9.78971 19.183 10.219 19.7946 10.6564 20.3694C11.0937 20.9445 11.3833 21.3131 11.5249 21.475C11.6667 21.6372 11.7781 21.7584 11.8591 21.8394L12.1629 22.1309C12.3573 22.3254 12.6427 22.5582 13.0193 22.8295C13.396 23.1009 13.8131 23.3681 14.2707 23.6315C14.7283 23.8946 15.2608 24.1092 15.8683 24.2752C16.4757 24.4413 17.0669 24.508 17.642 24.4759H19.0391C19.3225 24.4514 19.5371 24.3623 19.6831 24.2085L19.7314 24.1476C19.7639 24.0993 19.7943 24.0242 19.8224 23.9231C19.8508 23.8219 19.865 23.7104 19.865 23.589C19.8567 23.2408 19.8832 22.927 19.9438 22.6476C20.0043 22.3683 20.0733 22.1577 20.1505 22.0159C20.2277 21.8742 20.3147 21.7547 20.4116 21.6577C20.5087 21.5606 20.5779 21.5017 20.6185 21.4815C20.6588 21.4611 20.6911 21.4473 20.7153 21.439C20.9097 21.3742 21.1385 21.4369 21.402 21.6274C21.6652 21.8178 21.9121 22.0528 22.1431 22.3321C22.374 22.6116 22.6513 22.9253 22.9752 23.2735C23.2993 23.6218 23.5827 23.8807 23.8256 24.0511L24.0685 24.1968C24.2307 24.2941 24.4413 24.3832 24.7005 24.4642C24.9592 24.5451 25.186 24.5654 25.3806 24.5249L28.4906 24.4764C28.7982 24.4764 29.0375 24.4255 29.2073 24.3244C29.3774 24.2232 29.4785 24.1117 29.5111 23.9903C29.5436 23.8689 29.5453 23.7311 29.5172 23.5771C29.4884 23.4234 29.4601 23.316 29.4318 23.2553Z" stroke="#2F3B3F" stroke-width="2" mask="url(#path-1-inside-1)"/>
</g>
<rect x="0.5" y="0.5" width="34" height="34" rx="9.5" stroke="#2F3B3F"/>
<defs>
<clipPath id="clip0">
<rect width="23.3333" height="23.3333" fill="white" transform="translate(6.22217 6.22217)"/>
</clipPath>
</defs>
</svg>
