<svg width="15" height="15" viewBox="0 0 15 15" fill="none" xmlns="http://www.w3.org/2000/svg">
<path d="M7.5 0C4.33169 0 0 2.39469 0 7.5C0 12.4754 4.16634 15 7.5 15C13.2195 15 15 9.98917 15 7.5C15 3.82677 12.189 0 7.5 0ZM5.76083 0.705709C4.97835 1.37303 4.32874 2.47736 3.90945 3.84744C3.36614 3.52559 2.86713 3.12697 2.42421 2.66339C3.33957 1.70374 4.49705 1.03051 5.76083 0.705709ZM2.10236 3.02362C2.59843 3.54035 3.1624 3.98032 3.77657 4.32874C3.54626 5.22343 3.41043 6.21555 3.39272 7.25787H0.490158C0.543307 5.70177 1.11024 4.21654 2.10236 3.02362ZM2.10236 11.9764C1.10728 10.7835 0.543307 9.29823 0.490158 7.74213H3.39272C3.41043 8.7874 3.54626 9.77658 3.77657 10.6713C3.16535 11.0226 2.60138 11.4596 2.10236 11.9764ZM2.42421 12.3396C2.86713 11.876 3.36614 11.4774 3.90945 11.1555C4.32874 12.5226 4.97835 13.6299 5.76083 14.2972C4.49705 13.9695 3.33957 13.2963 2.42421 12.3396ZM7.25787 14.498C6 14.3386 4.91634 12.9331 4.33169 10.9193C5.23524 10.4616 6.23327 10.2047 7.25787 10.1663V14.498ZM7.25787 9.68504C6.18898 9.72047 5.14961 9.98327 4.20768 10.4439C4.00984 9.61713 3.89173 8.70473 3.87402 7.74213H7.25787V9.68504ZM7.25787 7.25787H3.87402C3.89173 6.29528 4.00984 5.38287 4.20768 4.5561C5.15256 5.01673 6.19193 5.27953 7.25787 5.31496V7.25787ZM7.25787 4.83366C6.23032 4.79823 5.23524 4.53839 4.33169 4.08071C4.91634 2.06398 6 0.661417 7.25787 0.501969V4.83366ZM12.8976 3.02362C13.8898 4.21654 14.4567 5.70177 14.5098 7.25787H11.6102C11.5925 6.2126 11.4567 5.22343 11.2264 4.32874C11.8376 3.97736 12.4016 3.54035 12.8976 3.02362ZM12.5758 2.66043C12.1329 3.12402 11.6339 3.52264 11.0906 3.84449C10.6713 2.47736 10.0217 1.37303 9.23917 0.702756C10.503 1.03051 11.6604 1.70374 12.5758 2.66043ZM7.74213 0.501969C9 0.661417 10.0837 2.06693 10.6683 4.08071C9.76476 4.53839 8.76969 4.79528 7.74213 4.83366V0.501969ZM7.74213 5.31496C8.81102 5.27953 9.85039 5.01673 10.7923 4.5561C10.9902 5.38287 11.1083 6.29528 11.126 7.25787H7.74213V5.31496ZM7.74213 7.74213H11.126C11.1083 8.70473 10.9902 9.61713 10.7923 10.4439C9.85039 9.98032 8.81102 9.71752 7.74213 9.68504V7.74213ZM7.74213 14.498V10.1663C8.76969 10.2018 9.76476 10.4616 10.6683 10.9193C10.0837 12.936 9 14.3386 7.74213 14.498ZM9.23917 14.2943C10.0217 13.627 10.6713 12.5226 11.0906 11.1526C11.6339 11.4744 12.1329 11.873 12.5758 12.3366C11.6604 13.2963 10.503 13.9695 9.23917 14.2943ZM12.8976 11.9764C12.4016 11.4596 11.8376 11.0226 11.2264 10.6713C11.4567 9.77658 11.5925 8.78445 11.6102 7.74213H14.5098C14.4567 9.29823 13.8898 10.7835 12.8976 11.9764Z" fill="white"/>
</svg>
