<svg width="36" height="35" viewBox="0 0 36 35" fill="none" xmlns="http://www.w3.org/2000/svg">
<g clip-path="url(#clip0)">
<path d="M17.8484 22.2645L17.1612 22.9991C17.1213 23.0417 17.0826 23.0839 17.0451 23.1248C16.9774 23.1985 16.9137 23.268 16.8537 23.3285L16.8527 23.3295C16.5949 23.5879 16.3371 23.8464 16.0793 24.105C15.0107 25.1766 13.9414 26.2489 12.8698 27.3189L12.8698 27.319C12.6421 27.5462 12.5357 27.7415 12.5245 27.9702C12.5067 28.3438 12.7452 28.7565 13.1594 28.9573L13.1597 28.9574C13.3501 29.0499 13.5196 29.0714 13.6691 29.0458L17.8484 22.2645ZM17.8484 22.2645L16.8479 22.1602M17.8484 22.2645L16.8479 22.1602M16.8479 22.1602C15.0869 21.9765 13.561 21.5487 12.2679 20.5374M16.8479 22.1602L12.2679 20.5374M23.1138 27.3915C23.4294 27.7107 23.4752 28.0595 23.3168 28.398L23.1138 27.3915ZM23.1138 27.3915C22.2632 26.5315 21.4095 25.6763 20.5547 24.8203M23.1138 27.3915L20.5547 24.8203M11.6705 18.8467L11.6704 18.8467C11.4776 19.123 11.4249 19.3481 11.4422 19.5287C11.4594 19.7088 11.5531 19.9188 11.7958 20.1519L11.6705 18.8467ZM11.6705 18.8467C11.8112 18.645 11.9847 18.5346 12.17 18.4928M11.6705 18.8467L12.17 18.4928M13.2062 18.7972L13.2062 18.7972C13.0922 18.7181 12.9837 18.652 12.8773 18.6017L13.2062 18.7972ZM13.2062 18.7972L13.208 18.7984M13.2062 18.7972L13.208 18.7984M13.208 18.7984C15.9757 20.7001 19.7736 20.7556 22.5597 18.8816L22.5726 18.8729M13.208 18.7984L22.5726 18.8729M22.5726 18.8729L22.5849 18.8635M22.5726 18.8729L22.5849 18.8635M22.5849 18.8635C22.8121 18.6893 23.0279 18.5683 23.261 18.5082L22.5849 18.8635ZM24.2498 18.8997L24.2498 18.8997C24.0326 18.5456 23.6769 18.4014 23.2611 18.5081L24.2498 18.8997ZM24.2498 18.8997C24.4041 19.1511 24.4566 19.3612 24.4496 19.5266M24.2498 18.8997L24.4496 19.5266M18.0953 22.2747L19.0647 22.1588C20.0393 22.0423 20.9905 21.8702 21.8452 21.5388C22.7539 21.1864 23.559 20.6867 24.2242 20.004L18.0953 22.2747ZM18.0953 22.2747L18.7558 22.9936M18.0953 22.2747L18.7558 22.9936M18.7558 22.9936C18.7902 23.031 18.821 23.0648 18.8495 23.096C18.9386 23.1935 19.0048 23.266 19.0826 23.3442L19.0827 23.3443M18.7558 22.9936L19.0827 23.3443M19.0827 23.3443C19.5734 23.8373 20.0642 24.329 20.5547 24.8203M19.0827 23.3443L20.5547 24.8203M12.2679 20.5374L11.9599 20.9312M12.2679 20.5374L11.9599 20.9312M11.9599 20.9312L12.2684 20.5378C12.2272 20.5054 12.188 20.4751 12.1506 20.4461M11.9599 20.9312L12.1506 20.4461M12.1506 20.4461C12.0144 20.3407 11.9013 20.2531 11.7959 20.152L12.1506 20.4461ZM12.17 18.4928C12.359 18.4501 12.5992 18.4706 12.8772 18.6016L12.17 18.4928ZM24.4496 19.5266C24.4429 19.6828 24.382 19.8418 24.2243 20.0039L24.4496 19.5266ZM17.2505 25.6656C16.234 26.7121 15.2002 27.7432 14.1586 28.7701L23.3168 28.398C23.1205 28.8171 22.6876 29.0679 22.3117 29.0423C22.0944 29.0273 21.9036 28.9234 21.6875 28.7057L21.6873 28.7055C21.3504 28.3665 21.0137 28.0318 20.6783 27.6984C19.9952 27.0193 19.3174 26.3456 18.6539 25.6512L18.6537 25.6511C18.5001 25.4905 18.246 25.2636 17.8929 25.2956C17.7242 25.3109 17.5907 25.382 17.4954 25.449C17.4025 25.5142 17.3197 25.5944 17.2506 25.6655L17.2505 25.6656Z" stroke="#2F3B3F"/>
<path d="M21.3314 12.1204V12.1205C21.3377 14.0002 19.8409 15.5117 17.9627 15.5183C17.9627 15.5183 17.9627 15.5183 17.9627 15.5183L17.9609 15.0183L21.3314 12.1204ZM21.3314 12.1204C21.3248 10.2413 19.8244 8.74005 17.9465 8.73829L21.3314 12.1204ZM17.9003 17.5327H17.9003C14.9507 17.5226 12.5271 15.0736 12.5443 12.1173L12.5443 12.1172C12.5613 9.12359 14.9863 6.71392 17.9681 6.72219L17.9681 6.72219C20.9516 6.73023 23.3544 9.17104 23.3394 12.2016C23.3242 15.1463 20.8892 17.543 17.9003 17.5327ZM17.9465 8.73829C16.0525 8.73632 14.5393 10.2645 14.5538 12.1606L17.9465 8.73829Z" stroke="#2F3B3F"/>
</g>
<rect x="0.555542" y="0.5" width="34" height="34" rx="9.5" stroke="#2F3B3F"/>
<defs>
<clipPath id="clip0">
<rect width="23.3333" height="23.3333" fill="white" transform="translate(6.27783 6.22217)"/>
</clipPath>
</defs>
</svg>
