<svg width="35" height="35" viewBox="0 0 35 35" fill="none" xmlns="http://www.w3.org/2000/svg">
<g clip-path="url(#clip0)">
<path d="M33.291 30.4071H32.8571V21.9407C32.8571 21.6575 32.6277 21.428 32.3444 21.428C32.0612 21.428 31.8317 21.6575 31.8317 21.9407V30.4071H20.9555V16.47H31.4128C31.6438 16.47 31.8318 16.658 31.8318 16.889V19.5253C31.8318 19.8084 32.0613 20.038 32.3445 20.038C32.6277 20.038 32.8572 19.8084 32.8572 19.5253V16.889C32.8572 16.0925 32.2092 15.4446 31.4128 15.4446H20.9555V6.12766C20.9555 5.38165 20.3751 4.75159 19.6326 4.68876V3.6603C19.6326 2.91135 19.0477 2.27882 18.301 2.22031L5.02291 1.1796C4.18448 1.11336 3.46568 1.77829 3.46568 2.61959V3.44066C2.70532 3.5056 2.14286 4.14161 2.14286 4.87962V30.407H1.70898C0.76665 30.407 0 31.1736 0 32.116C0 33.0583 0.76665 33.825 1.70898 33.825H33.291C34.2333 33.825 35 33.0583 35 32.116C35 31.1736 34.2333 30.4071 33.291 30.4071ZM4.49107 2.61966C4.49107 2.37411 4.70005 2.18271 4.94286 2.20192L18.221 3.24255C18.4375 3.25957 18.6072 3.44305 18.6072 3.6603V4.60796L4.49101 3.50163V2.61966H4.49107ZM3.16825 4.87969C3.16825 4.63216 3.37996 4.44226 3.61997 4.46195L19.5437 5.70992C19.7604 5.72694 19.93 5.91041 19.93 6.12766V30.4071H18.4974V23.0666C18.4974 22.6 18.1178 22.2204 17.6512 22.2204H12.8879C12.4213 22.2204 12.0417 22.6 12.0417 23.0666V26.3925C12.0417 26.6757 12.2713 26.9052 12.5544 26.9052C12.8375 26.9052 13.0671 26.6757 13.0671 26.3925V23.2458H17.472V30.4071H13.0671V28.7894C13.0671 28.5063 12.8375 28.2767 12.5544 28.2767C12.2713 28.2767 12.0417 28.5063 12.0417 28.7894V30.4071H3.16825V4.87969ZM33.291 32.7996H1.70898C1.33205 32.7996 1.02539 32.493 1.02539 32.1161C1.02539 31.7391 1.33205 31.4325 1.70898 31.4325H33.291C33.6679 31.4325 33.9746 31.7391 33.9746 32.1161C33.9746 32.493 33.6679 32.7996 33.291 32.7996Z" fill="#3D626F"/>
<path d="M5.1888 11.1388H7.26405C7.75193 11.1388 8.14883 10.7419 8.14883 10.2541V8.65741C8.14883 8.1696 7.75193 7.77271 7.26405 7.77271H5.1888C4.70099 7.77271 4.30409 8.1696 4.30409 8.65741V10.2541C4.30409 10.7419 4.70099 11.1388 5.1888 11.1388ZM5.32948 8.79803H7.12351V10.1134H5.32948V8.79803Z" fill="#3D626F"/>
<path d="M10.3632 11.1388H12.4385C12.9263 11.1388 13.3232 10.7419 13.3232 10.2541V8.65741C13.3232 8.1696 12.9263 7.77271 12.4385 7.77271H10.3632C9.87543 7.77271 9.47853 8.1696 9.47853 8.65741V10.2541C9.47846 10.7419 9.87536 11.1388 10.3632 11.1388ZM10.5039 8.79803H12.2978V10.1134H10.5039V8.79803Z" fill="#3D626F"/>
<path d="M15.5376 11.1388H17.6128C18.1007 11.1388 18.4975 10.7419 18.4975 10.2541V8.65741C18.4975 8.1696 18.1006 7.77271 17.6128 7.77271H15.5376C15.0498 7.77271 14.6529 8.1696 14.6529 8.65741V10.2541C14.6528 10.7419 15.0497 11.1388 15.5376 11.1388ZM15.6782 8.79803H17.4721V10.1134H15.6782V8.79803Z" fill="#3D626F"/>
<path d="M5.1888 15.7487H7.26405C7.75193 15.7487 8.14883 15.3518 8.14883 14.864V13.2673C8.14883 12.7795 7.75193 12.3826 7.26405 12.3826H5.1888C4.70099 12.3826 4.30409 12.7795 4.30409 13.2673V14.8639C4.30409 15.3518 4.70099 15.7487 5.1888 15.7487ZM5.32948 13.408H7.12351V14.7233H5.32948V13.408Z" fill="#3D626F"/>
<path d="M10.3632 15.7487H12.4385C12.9263 15.7487 13.3232 15.3518 13.3232 14.864V13.2673C13.3232 12.7795 12.9263 12.3826 12.4385 12.3826H10.3632C9.87543 12.3826 9.47853 12.7795 9.47853 13.2673V14.8639C9.47846 15.3518 9.87536 15.7487 10.3632 15.7487ZM10.5039 13.408H12.2978V14.7233H10.5039V13.408Z" fill="#3D626F"/>
<path d="M15.5376 15.7487H17.6128C18.1007 15.7487 18.4975 15.3518 18.4975 14.864V13.2673C18.4975 12.7795 18.1006 12.3826 17.6128 12.3826H15.5376C15.0498 12.3826 14.6529 12.7795 14.6529 13.2673V14.8639C14.6528 15.3518 15.0497 15.7487 15.5376 15.7487ZM15.6782 13.408H17.4721V14.7233H15.6782V13.408Z" fill="#3D626F"/>
<path d="M5.1888 20.3585H7.26405C7.75193 20.3585 8.14883 19.9616 8.14883 19.4738V17.8771C8.14883 17.3893 7.75193 16.9924 7.26405 16.9924H5.1888C4.70099 16.9924 4.30409 17.3893 4.30409 17.8771V19.4738C4.30409 19.9616 4.70099 20.3585 5.1888 20.3585ZM5.32948 18.0178H7.12351V19.3331H5.32948V18.0178Z" fill="#3D626F"/>
<path d="M9.8814 22.2205H5.28847C4.74569 22.2205 4.30409 22.6621 4.30409 23.2048V24.6022C4.30409 25.145 4.74569 25.5866 5.28847 25.5866H9.8814C10.4242 25.5866 10.8658 25.145 10.8658 24.6022V23.2048C10.8658 22.6621 10.4242 22.2205 9.8814 22.2205ZM9.84038 24.5612H5.32948V23.2459H9.84038V24.5612Z" fill="#3D626F"/>
<path d="M10.3632 20.3585H12.4385C12.9263 20.3585 13.3232 19.9616 13.3232 19.4738V17.8771C13.3232 17.3893 12.9263 16.9924 12.4385 16.9924H10.3632C9.87543 16.9924 9.47853 17.3893 9.47853 17.8771V19.4738C9.47846 19.9616 9.87536 20.3585 10.3632 20.3585ZM10.5039 18.0178H12.2978V19.3331H10.5039V18.0178Z" fill="#3D626F"/>
<path d="M15.5376 20.3585H17.6128C18.1007 20.3585 18.4975 19.9616 18.4975 19.4738V17.8771C18.4975 17.3893 18.1006 16.9924 17.6128 16.9924H15.5376C15.0498 16.9924 14.6529 17.3893 14.6529 17.8771V19.4738C14.6528 19.9616 15.0497 20.3585 15.5376 20.3585ZM15.6782 18.0178H17.4721V19.3331H15.6782V18.0178Z" fill="#3D626F"/>
<path d="M26.0157 19.9129C26.0157 19.3929 25.5926 18.9697 25.0726 18.9697H22.9788C22.4588 18.9697 22.0357 19.3928 22.0357 19.9129V21.5735C22.0357 22.0935 22.4588 22.5167 22.9788 22.5167H25.0726C25.5926 22.5167 26.0157 22.0936 26.0157 21.5735V19.9129ZM24.9903 21.4913H23.0611V19.9951H24.9903V21.4913Z" fill="#3D626F"/>
<path d="M25.0726 23.7014H22.9788C22.4588 23.7014 22.0357 24.1245 22.0357 24.6446V26.3052C22.0357 26.8252 22.4588 27.2484 22.9788 27.2484H25.0726C25.5926 27.2484 26.0157 26.8253 26.0157 26.3052V24.6446C26.0157 24.1245 25.5926 23.7014 25.0726 23.7014ZM24.9903 26.223H23.0611V24.7268H24.9903V26.223Z" fill="#3D626F"/>
<path d="M30.7845 19.9129C30.7845 19.3929 30.3614 18.9697 29.8413 18.9697H27.7477C27.2277 18.9697 26.8046 19.3928 26.8046 19.9129V21.5735C26.8046 22.0935 27.2276 22.5167 27.7477 22.5167H29.8413C30.3614 22.5167 30.7845 22.0936 30.7845 21.5735V19.9129ZM29.7591 21.4913H27.8299V19.9951H29.7591V21.4913Z" fill="#3D626F"/>
<path d="M29.8413 23.7014H27.7477C27.2277 23.7014 26.8046 24.1245 26.8046 24.6446V26.3052C26.8046 26.8252 27.2276 27.2484 27.7477 27.2484H29.8413C30.3614 27.2484 30.7845 26.8253 30.7845 26.3052V24.6446C30.7845 24.1245 30.3614 23.7014 29.8413 23.7014ZM29.7591 26.223H27.8299V24.7268H29.7591V26.223Z" fill="#3D626F"/>
</g>
<defs>
<clipPath id="clip0">
<rect width="35" height="35" fill="white"/>
</clipPath>
</defs>
</svg>
