<svg width="35" height="35" viewBox="0 0 35 35" fill="none" xmlns="http://www.w3.org/2000/svg">
<path d="M34.4873 21.2321C34.7704 21.2321 35 21.0027 35 20.7195V9.82187C35 8.40834 33.8501 7.2584 32.4365 7.2584H27.0591V2.56348C27.0591 1.14994 25.9092 0 24.4956 0H10.5044C9.09084 0 7.9409 1.14994 7.9409 2.56348V7.2584H2.56348C1.14994 7.2584 0 8.40834 0 9.82187V27.2289C0 28.6424 1.14994 29.7924 2.56348 29.7924H14.9893V31.9238H14.3416C13.0412 31.9238 11.9832 32.9818 11.9832 34.2822C11.9832 34.678 12.3052 35 12.701 35H22.299C22.6948 35 23.0167 34.678 23.0167 34.2822C23.0167 32.9818 21.9587 31.9238 20.6583 31.9238H20.0106V29.7924H32.4365C33.8501 29.7924 35 28.6424 35 27.2289V23.112C35 22.8287 34.7704 22.5993 34.4873 22.5993C34.2042 22.5993 33.9746 22.8287 33.9746 23.112V27.2289C33.9746 28.077 33.2847 28.767 32.4365 28.767H19.5033C19.5015 28.767 19.4998 28.7667 19.498 28.7667C19.4962 28.7667 19.4945 28.767 19.4927 28.767H15.5073C15.5055 28.767 15.5038 28.7667 15.5021 28.7667C15.5003 28.7667 15.4986 28.767 15.4968 28.767H2.56348C1.71534 28.767 1.02539 28.077 1.02539 27.2289V9.82187C1.02539 8.97381 1.71534 8.28379 2.56348 8.28379H7.9409V9.30918H2.76855C2.37275 9.30918 2.05078 9.63115 2.05078 10.027V27.2289C2.05078 27.5121 2.28033 27.7416 2.56348 27.7416H32.2314C32.6272 27.7416 32.9492 27.4196 32.9492 27.0238V10.027C32.9492 9.63115 32.6272 9.30918 32.2314 9.30918H27.0591V8.28379H32.4365C33.2847 8.28379 33.9746 8.97381 33.9746 9.82187V20.7195C33.9746 21.0026 34.2042 21.2321 34.4873 21.2321ZM16.0147 29.7924H18.9853V31.9238H16.0147V29.7924ZM20.6584 32.9492C21.2876 32.9492 21.8163 33.3873 21.9556 33.9746H13.0444C13.1837 33.3873 13.7124 32.9492 14.3416 32.9492H20.6584ZM7.9409 26.7162H3.07617V10.3346H7.9409V26.7162ZM26.0337 26.7162H8.96629V2.56348C8.96629 1.71541 9.65624 1.02539 10.5044 1.02539H24.4956C25.3438 1.02539 26.0337 1.71541 26.0337 2.56348V26.7162ZM31.9238 10.3346V26.7162H27.0591V10.3346H31.9238ZM23.4033 18.5254H11.5967C11.3135 18.5254 11.084 18.7549 11.084 19.0381C11.084 19.3213 11.3135 19.5508 11.5967 19.5508H23.4033C23.6865 19.5508 23.916 19.3213 23.916 19.0381C23.916 18.7549 23.6865 18.5254 23.4033 18.5254ZM17.5 3.07617C16.074 3.07617 14.7169 3.52762 13.5755 4.38184C13.3488 4.55144 13.3025 4.87286 13.4722 5.09947C13.6419 5.32615 13.9632 5.3725 14.1899 5.20283C15.1525 4.48232 16.2971 4.10156 17.5 4.10156C20.5532 4.10156 23.0371 6.58554 23.0371 9.63867C23.0371 12.6918 20.5532 15.1758 17.5 15.1758C14.4468 15.1758 11.9629 12.6918 11.9629 9.63867C11.9629 8.6491 12.2283 7.67744 12.7304 6.82869C12.8745 6.58506 12.7939 6.27061 12.5502 6.12644C12.3065 5.98233 11.992 6.06293 11.8478 6.3067C11.2523 7.31329 10.9375 8.46556 10.9375 9.63867C10.9375 13.2573 13.8814 16.2012 17.5 16.2012C21.1186 16.2012 24.0625 13.2573 24.0625 9.63867C24.0625 6.02007 21.1186 3.07617 17.5 3.07617ZM15.1378 12.2777C15.8522 12.9987 17.0779 13.0039 17.7961 12.2775L20.998 9.07553C21.6126 8.46597 21.5796 7.42725 20.9446 6.84947C20.3368 6.29631 19.3957 6.32769 18.8024 6.92091L16.4669 9.25641L16.177 8.96656C15.587 8.37054 14.5936 8.37471 14.0018 8.96649C13.4021 9.56614 13.4021 10.5419 14.0018 11.1416L15.1378 12.2777ZM14.7269 9.69158C14.9242 9.4943 15.2556 9.4932 15.452 9.69151L15.9593 10.1989C16.2331 10.4755 16.6998 10.4766 16.9745 10.199L19.5275 7.646C19.7295 7.44393 20.0558 7.42684 20.2546 7.60778C20.4678 7.80179 20.4786 8.14714 20.2731 8.35037L17.0712 11.5523C16.9102 11.7132 16.6956 11.8019 16.467 11.8019C16.2383 11.8019 16.0237 11.7133 15.8629 11.5525L14.727 10.4166C14.5271 10.2167 14.5271 9.89147 14.7269 9.69158ZM23.4033 21.6016H11.5967C11.3135 21.6016 11.084 21.831 11.084 22.1143C11.084 22.3975 11.3135 22.627 11.5967 22.627H23.4033C23.6865 22.627 23.916 22.3975 23.916 22.1143C23.916 21.831 23.6865 21.6016 23.4033 21.6016Z" fill="#3D626F"/>
</svg>
