<svg width="15" height="15" viewBox="0 0 15 15" fill="none" xmlns="http://www.w3.org/2000/svg">
<path d="M14.707 7.2071H13.9163C14.5752 6.69563 15 5.89639 15 4.99967C15 3.45941 13.7469 2.2063 12.2066 2.2063H0.292969C0.131162 2.2063 0 2.33746 0 2.49927V3.97009C0 4.13189 0.131162 4.26306 0.292969 4.26306H0.88251V5.73628H0.292969C0.131162 5.73628 0 5.86744 0 6.02925V7.50007C0 7.66188 0.131162 7.79304 0.292969 7.79304H1.08366C0.424805 8.30447 0 9.10375 0 10.0005C0 11.5407 1.25309 12.7938 2.79337 12.7938H14.707C14.8688 12.7938 15 12.6627 15 12.5009V11.03C15 10.8682 14.8688 10.7371 14.707 10.7371H14.1175V9.26386H14.707C14.8688 9.26386 15 9.1327 15 8.97089V7.50007C15 7.33826 14.8688 7.2071 14.707 7.2071ZM0.585938 2.79224H12.2066C13.4238 2.79224 14.4141 3.7825 14.4141 4.99967C14.4141 6.21684 13.4238 7.2071 12.2066 7.2071H9.9992V6.32222H12.2066C12.9359 6.32222 13.5292 5.72893 13.5292 4.99967C13.5292 4.27041 12.9359 3.67712 12.2066 3.67712C11.7397 3.67712 1.11905 3.67712 0.585938 3.67712V2.79224ZM7.94007 4.26306H9.41329V7.2071H7.94007C7.94007 6.22439 7.94007 5.24597 7.94007 4.26306ZM12.2066 4.26306C12.6128 4.26306 12.9432 4.5935 12.9432 4.99967C12.9432 5.40525 12.6129 5.73628 12.2066 5.73628H9.9992V4.26306H12.2066ZM1.46845 4.26306H7.3541V5.73628H1.46845V4.26306ZM0.585938 7.2071V6.32222H7.3541V7.2071C6.96337 7.2071 0.976641 7.2071 0.585938 7.2071ZM13.5316 10.7371H2.79337C2.3872 10.7371 2.05676 10.4066 2.05676 10.0005C2.05676 9.5943 2.3872 9.26386 2.79337 9.26386H13.5316V10.7371H13.5316ZM14.4141 8.67792C12.9074 8.67792 3.97881 8.67792 2.78918 8.67792C2.06224 8.67792 1.47082 9.26934 1.47082 9.99628V10.0047C1.47082 10.7316 2.06224 11.323 2.78918 11.323H14.4141V12.2079H2.79337C1.57617 12.2079 0.585938 11.2176 0.585938 10.0005C0.585938 8.7833 1.57617 7.79304 2.79337 7.79304H14.4141V8.67792Z" fill="#211E1E"/>
</svg>
