<svg width="272" height="37" viewBox="0 0 272 37" fill="none" xmlns="http://www.w3.org/2000/svg">
<path d="M22.08 0.599998C22.8533 0.599998 23.4667 0.839999 23.92 1.32C24.3733 1.77333 24.6 2.38667 24.6 3.16V26.64C24.6 27.4133 24.36 28.04 23.88 28.52C23.4267 29 22.8267 29.24 22.08 29.24C21.3067 29.24 20.6933 29 20.24 28.52C19.7867 28.04 19.56 27.4133 19.56 26.64V16.76H5.12V26.64C5.12 27.4133 4.88 28.04 4.4 28.52C3.94667 29 3.33333 29.24 2.56 29.24C1.81333 29.24 1.2 29 0.72 28.52C0.266667 28.04 0.0400002 27.4133 0.0400002 26.64V3.16C0.0400002 2.38667 0.266667 1.77333 0.72 1.32C1.17333 0.839999 1.78667 0.599998 2.56 0.599998C3.33333 0.599998 3.94667 0.839999 4.4 1.32C4.88 1.77333 5.12 2.38667 5.12 3.16V12.6H19.56V3.16C19.56 2.38667 19.7867 1.77333 20.24 1.32C20.6933 0.839999 21.3067 0.599998 22.08 0.599998ZM38.705 8.96C41.425 8.96 43.4383 9.64 44.745 11C46.0783 12.3333 46.745 14.3733 46.745 17.12V26.88C46.745 27.6 46.5317 28.1733 46.105 28.6C45.6783 29 45.0917 29.2 44.345 29.2C43.6517 29.2 43.0783 28.9867 42.625 28.56C42.1983 28.1333 41.985 27.5733 41.985 26.88V26C41.5317 27.04 40.8117 27.8533 39.825 28.44C38.865 29.0267 37.745 29.32 36.465 29.32C35.1583 29.32 33.9717 29.0533 32.905 28.52C31.8383 27.9867 30.9983 27.2533 30.385 26.32C29.7717 25.3867 29.465 24.3467 29.465 23.2C29.465 21.76 29.825 20.6267 30.545 19.8C31.2917 18.9733 32.4917 18.3733 34.145 18C35.7983 17.6267 38.0783 17.44 40.985 17.44H41.985V16.52C41.985 15.2133 41.705 14.2667 41.145 13.68C40.585 13.0667 39.6783 12.76 38.425 12.76C37.6517 12.76 36.865 12.88 36.065 13.12C35.265 13.3333 34.3183 13.6533 33.225 14.08C32.5317 14.4267 32.025 14.6 31.705 14.6C31.225 14.6 30.825 14.4267 30.505 14.08C30.2117 13.7333 30.065 13.28 30.065 12.72C30.065 12.2667 30.1717 11.88 30.385 11.56C30.625 11.2133 31.0117 10.8933 31.545 10.6C32.4783 10.0933 33.585 9.69333 34.865 9.4C36.1717 9.10667 37.4517 8.96 38.705 8.96ZM37.465 25.72C38.7983 25.72 39.8783 25.28 40.705 24.4C41.5583 23.4933 41.985 22.3333 41.985 20.92V20.08H41.265C39.4783 20.08 38.0917 20.16 37.105 20.32C36.1183 20.48 35.4117 20.76 34.985 21.16C34.5583 21.56 34.345 22.1067 34.345 22.8C34.345 23.6533 34.6383 24.36 35.225 24.92C35.8383 25.4533 36.585 25.72 37.465 25.72ZM70.9066 9.04C71.6799 9.04 72.2932 9.25333 72.7466 9.68C73.1999 10.1067 73.4266 10.68 73.4266 11.4V26.92C73.4266 27.5867 73.2132 28.1467 72.7866 28.6C72.3599 29.0267 71.8132 29.24 71.1466 29.24C70.4799 29.24 69.9199 29.0267 69.4666 28.6C69.0399 28.1467 68.8266 27.5867 68.8266 26.92L68.8666 16.84L64.8666 24.28C64.6266 24.7067 64.3066 25.0533 63.9066 25.32C63.5066 25.56 63.0666 25.68 62.5866 25.68C61.5732 25.68 60.7999 25.2133 60.2666 24.28L56.2666 16.84L56.3066 26.92C56.3066 27.5867 56.0799 28.1467 55.6266 28.6C55.1999 29.0267 54.6532 29.24 53.9866 29.24C53.3199 29.24 52.7732 29.0267 52.3466 28.6C51.9199 28.1467 51.7066 27.5867 51.7066 26.92V11.56C51.7066 10.7867 51.9066 10.1733 52.3066 9.72C52.7332 9.26667 53.3199 9.04 54.0666 9.04C54.7866 9.04 55.3866 9.16 55.8666 9.4C56.3466 9.61333 56.7732 10.08 57.1466 10.8L62.5866 21.08L67.8266 11.12C68.2532 10.3467 68.6799 9.81333 69.1066 9.52C69.5599 9.2 70.1599 9.04 70.9066 9.04ZM89.4456 34.32C88.7523 34.32 88.1923 34.1067 87.7656 33.68C87.3656 33.28 87.1656 32.7067 87.1656 31.96V27.76C87.139 26.9867 87.339 26.3733 87.7656 25.92C88.1923 25.4667 88.7523 25.24 89.4456 25.24H89.8856C90.659 23.8533 91.1923 22.2933 91.4856 20.56C91.8056 18.8267 91.9656 16.7733 91.9656 14.4V11.96C91.939 11.1867 92.139 10.5733 92.5656 10.12C92.9923 9.66667 93.579 9.44 94.3256 9.44H104.206C104.979 9.41333 105.592 9.61333 106.046 10.04C106.499 10.4667 106.726 11.0533 106.726 11.8V25.24H107.366C108.139 25.2133 108.752 25.4133 109.206 25.84C109.659 26.2667 109.886 26.8533 109.886 27.6V31.96C109.886 32.7067 109.672 33.28 109.246 33.68C108.846 34.1067 108.299 34.32 107.606 34.32C106.886 34.32 106.326 34.1067 105.926 33.68C105.526 33.28 105.326 32.7067 105.326 31.96V29H91.7656V31.96C91.7656 32.7067 91.5523 33.28 91.1256 33.68C90.7256 34.1067 90.1656 34.32 89.4456 34.32ZM101.766 13.2H96.2856V14.4C96.2856 16.9333 96.0856 19.1333 95.6856 21C95.3123 22.8667 94.779 24.28 94.0856 25.24H101.766V13.2ZM121.723 29.32C119.723 29.32 117.963 28.9067 116.443 28.08C114.95 27.2533 113.79 26.0667 112.963 24.52C112.136 22.9733 111.723 21.1733 111.723 19.12C111.723 17.0667 112.136 15.28 112.963 13.76C113.79 12.2133 114.95 11.0267 116.443 10.2C117.963 9.37333 119.723 8.96 121.723 8.96C123.723 8.96 125.47 9.37333 126.963 10.2C128.483 11.0267 129.643 12.2133 130.443 13.76C131.27 15.28 131.683 17.0667 131.683 19.12C131.683 21.1733 131.27 22.9733 130.443 24.52C129.643 26.0667 128.483 27.2533 126.963 28.08C125.47 28.9067 123.723 29.32 121.723 29.32ZM121.683 25.44C123.31 25.44 124.55 24.9067 125.403 23.84C126.256 22.7733 126.683 21.2 126.683 19.12C126.683 17.0667 126.256 15.5067 125.403 14.44C124.55 13.3467 123.323 12.8 121.723 12.8C120.123 12.8 118.883 13.3467 118.003 14.44C117.15 15.5067 116.723 17.0667 116.723 19.12C116.723 21.2 117.15 22.7733 118.003 23.84C118.856 24.9067 120.083 25.44 121.683 25.44ZM138.211 29C137.438 29.0267 136.824 28.8267 136.371 28.4C135.918 27.9733 135.691 27.3867 135.691 26.64V11.96C135.664 11.1867 135.864 10.5733 136.291 10.12C136.718 9.66667 137.304 9.44 138.051 9.44H145.451C147.664 9.44 149.398 9.88 150.651 10.76C151.931 11.64 152.571 12.88 152.571 14.48C152.571 15.4667 152.278 16.36 151.691 17.16C151.104 17.96 150.264 18.5467 149.171 18.92C150.424 19.2133 151.384 19.7467 152.051 20.52C152.744 21.2933 153.091 22.28 153.091 23.48C153.091 25.0533 152.424 26.3733 151.091 27.44C149.784 28.48 147.944 29 145.571 29H138.211ZM144.611 17.44C145.571 17.44 146.318 17.2267 146.851 16.8C147.384 16.3733 147.651 15.7867 147.651 15.04C147.651 13.5467 146.624 12.8 144.571 12.8H140.651V17.44H144.611ZM144.731 25.64C146.971 25.64 148.091 24.8 148.091 23.12C148.091 21.44 146.971 20.6 144.731 20.6H140.651V25.64H144.731ZM172.697 23.64C173.151 23.64 173.511 23.8133 173.777 24.16C174.071 24.5067 174.217 24.9733 174.217 25.56C174.217 26.3867 173.724 27.08 172.737 27.64C171.831 28.1467 170.804 28.56 169.657 28.88C168.511 29.1733 167.417 29.32 166.377 29.32C163.231 29.32 160.737 28.4133 158.897 26.6C157.057 24.7867 156.137 22.3067 156.137 19.16C156.137 17.16 156.537 15.3867 157.337 13.84C158.137 12.2933 159.257 11.0933 160.697 10.24C162.164 9.38667 163.817 8.96 165.657 8.96C167.417 8.96 168.951 9.34666 170.257 10.12C171.564 10.8933 172.577 11.9867 173.297 13.4C174.017 14.8133 174.377 16.48 174.377 18.4C174.377 19.5467 173.871 20.12 172.857 20.12H161.057C161.217 21.96 161.737 23.32 162.617 24.2C163.497 25.0533 164.777 25.48 166.457 25.48C167.311 25.48 168.057 25.3733 168.697 25.16C169.364 24.9467 170.111 24.6533 170.937 24.28C171.737 23.8533 172.324 23.64 172.697 23.64ZM165.777 12.48C164.417 12.48 163.324 12.9067 162.497 13.76C161.697 14.6133 161.217 15.84 161.057 17.44H170.097C170.044 15.8133 169.644 14.5867 168.897 13.76C168.151 12.9067 167.111 12.48 165.777 12.48ZM189.707 8.96C191.387 8.96 192.881 9.38667 194.187 10.24C195.521 11.0933 196.547 12.3067 197.267 13.88C198.014 15.4267 198.387 17.2133 198.387 19.24C198.387 21.2667 198.014 23.04 197.267 24.56C196.547 26.08 195.534 27.2533 194.227 28.08C192.921 28.9067 191.414 29.32 189.707 29.32C188.321 29.32 187.081 29.0267 185.987 28.44C184.894 27.8533 184.054 27.04 183.467 26V34.16C183.467 34.8533 183.241 35.4 182.787 35.8C182.334 36.2 181.734 36.4 180.987 36.4C180.241 36.4 179.627 36.1867 179.147 35.76C178.694 35.3333 178.467 34.7733 178.467 34.08V11.4C178.467 10.68 178.681 10.1067 179.107 9.68C179.561 9.25333 180.161 9.04 180.907 9.04C181.654 9.04 182.254 9.25333 182.707 9.68C183.161 10.1067 183.387 10.68 183.387 11.4V12.4C183.974 11.3067 184.814 10.4667 185.907 9.88C187.027 9.26667 188.294 8.96 189.707 8.96ZM188.387 25.44C189.961 25.44 191.187 24.9067 192.067 23.84C192.947 22.7467 193.387 21.2133 193.387 19.24C193.387 17.2133 192.947 15.64 192.067 14.52C191.187 13.4 189.961 12.84 188.387 12.84C186.787 12.84 185.547 13.3867 184.667 14.48C183.814 15.5733 183.387 17.1333 183.387 19.16C183.387 21.16 183.814 22.7067 184.667 23.8C185.547 24.8933 186.787 25.44 188.387 25.44ZM216.731 29.24C215.957 29.24 215.344 29.0267 214.891 28.6C214.464 28.1733 214.251 27.5867 214.251 26.84V22.4H212.891C211.131 22.4 209.784 23.1067 208.851 24.52L206.131 28.36C205.571 29.16 204.851 29.56 203.971 29.56C203.357 29.56 202.811 29.3467 202.331 28.92C201.877 28.4933 201.651 27.9733 201.651 27.36C201.651 26.8267 201.797 26.3467 202.091 25.92L202.971 24.56C203.611 23.5733 204.304 22.7467 205.051 22.08C205.824 21.4133 206.597 20.9867 207.371 20.8C205.717 20.4267 204.477 19.7867 203.651 18.88C202.851 17.9467 202.451 16.8 202.451 15.44C202.451 13.5467 203.064 12.08 204.291 11.04C205.544 9.97333 207.264 9.44 209.451 9.44H216.731C217.477 9.41333 218.077 9.61333 218.531 10.04C218.984 10.4667 219.211 11.04 219.211 11.76V26.84C219.211 27.5867 218.984 28.1733 218.531 28.6C218.104 29.0267 217.504 29.24 216.731 29.24ZM214.251 12.92H210.651C209.504 12.92 208.624 13.16 208.011 13.64C207.424 14.0933 207.131 14.84 207.131 15.88C207.131 16.9733 207.464 17.76 208.131 18.24C208.824 18.72 209.677 18.96 210.691 18.96H214.251V12.92ZM241.808 29.32C239.114 29.32 236.941 28.5733 235.288 27.08C233.661 25.5867 232.688 23.52 232.368 20.88H229.048V26.88C229.048 27.6 228.821 28.1733 228.368 28.6C227.941 29.0267 227.354 29.24 226.608 29.24C225.861 29.24 225.261 29.0267 224.808 28.6C224.381 28.1733 224.168 27.6 224.168 26.88V11.4C224.168 10.68 224.381 10.1067 224.808 9.68C225.261 9.25333 225.861 9.04 226.608 9.04C227.354 9.04 227.941 9.25333 228.368 9.68C228.821 10.1067 229.048 10.68 229.048 11.4V17.12H232.368C232.741 14.5333 233.741 12.5333 235.368 11.12C237.021 9.68 239.168 8.96 241.808 8.96C244.821 8.96 247.181 9.88 248.888 11.72C250.621 13.5333 251.488 16 251.488 19.12C251.488 22.2667 250.621 24.76 248.888 26.6C247.181 28.4133 244.821 29.32 241.808 29.32ZM241.808 25.44C243.408 25.44 244.581 24.92 245.328 23.88C246.101 22.8133 246.488 21.2267 246.488 19.12C246.488 14.9067 244.928 12.8 241.808 12.8C238.688 12.8 237.128 14.9067 237.128 19.12C237.128 21.2267 237.501 22.8133 238.248 23.88C239.021 24.92 240.208 25.44 241.808 25.44ZM262.458 29.24C261.685 29.24 261.072 29.0267 260.618 28.6C260.165 28.1733 259.938 27.6 259.938 26.88V13.2H255.338C254.752 13.2 254.272 13.0267 253.898 12.68C253.552 12.3333 253.378 11.88 253.378 11.32C253.378 10.76 253.552 10.3067 253.898 9.96C254.272 9.61333 254.752 9.44 255.338 9.44H269.538C270.125 9.44 270.592 9.61333 270.938 9.96C271.312 10.3067 271.498 10.76 271.498 11.32C271.498 11.88 271.312 12.3333 270.938 12.68C270.592 13.0267 270.125 13.2 269.538 13.2H264.938V26.88C264.938 27.6 264.712 28.1733 264.258 28.6C263.805 29.0267 263.205 29.24 262.458 29.24Z" fill="white"/>
</svg>
