<svg width="20" height="20" viewBox="0 0 20 20" fill="none" xmlns="http://www.w3.org/2000/svg">
<g clip-path="url(#clip0)">
<path d="M19.4861 14.7513L16.9998 12.265C16.3143 11.5796 15.1989 11.5796 14.5135 12.265L13.3834 13.3951C12.8641 13.9144 12.0191 13.9143 11.5 13.3953L6.60154 8.49271C6.08103 7.9722 6.08095 7.12974 6.60154 6.60915C6.78357 6.42712 7.30626 5.90442 7.73166 5.47903C8.41412 4.79661 8.42365 3.68469 7.73099 2.99211L5.24536 0.514298C4.55989 -0.171133 3.44454 -0.171133 2.76091 0.512501C2.24934 1.01961 2.08434 1.18321 1.85497 1.41059C-0.616913 3.88243 -0.616913 7.90443 1.85485 10.3762L9.61627 18.1417C12.0939 20.6194 16.1041 20.6196 18.5819 18.1417L19.4861 17.2376C20.1716 16.5521 20.1716 15.4368 19.4861 14.7513ZM3.58786 1.34305C3.81634 1.11457 4.18806 1.11453 4.41727 1.34367L6.9029 3.82149C7.13193 4.05051 7.13193 4.42118 6.9029 4.65024L6.48849 5.06462L3.17559 1.75172L3.58786 1.34305ZM10.4452 17.313L2.68372 9.54747C0.771292 7.63505 0.666175 4.63212 2.36044 2.59411L5.66372 5.89739C4.79575 6.88134 4.83192 8.38068 5.77259 9.32134L10.6709 14.2237C10.6709 14.2238 10.671 14.2239 10.671 14.2239C11.6107 15.1636 13.1099 15.2021 14.0951 14.333L17.3985 17.6363C15.3669 19.3276 12.3708 19.2386 10.4452 17.313ZM18.6574 16.4088L18.243 16.8232L14.9279 13.5081L15.3423 13.0938C15.5708 12.8653 15.9425 12.8653 16.171 13.0938L18.6573 15.5801C18.8859 15.8086 18.8859 16.1804 18.6574 16.4088Z" fill="#2F3B3F" fill-opacity="0.8"/>
</g>
<defs>
<clipPath id="clip0">
<rect width="20" height="20" fill="white"/>
</clipPath>
</defs>
</svg>
