<svg width="358" height="113" viewBox="0 0 358 113" fill="none" xmlns="http://www.w3.org/2000/svg">
<path d="M5.94999 38.3C4.98332 38.3 4.21666 38.0167 3.64999 37.45C3.08332 36.85 2.79999 36.05 2.79999 35.05V5.9C2.79999 4.96667 3.09999 4.21667 3.69999 3.65C4.29999 3.05 5.06666 2.75 5.99999 2.75H29.6C30.5333 2.75 31.2833 3.05 31.85 3.65C32.45 4.21667 32.75 4.96667 32.75 5.9V35.1C32.75 36.0667 32.45 36.85 31.85 37.45C31.2833 38.0167 30.5333 38.3 29.6 38.3C28.6333 38.3 27.8667 38.0167 27.3 37.45C26.7333 36.85 26.45 36.0667 26.45 35.1V7.9H9.14999V35.1C9.14999 36.0667 8.84999 36.85 8.24999 37.45C7.68332 38.0167 6.91666 38.3 5.94999 38.3Z" fill="white"/>
<path d="M59.5 31.3C60.0903 31.3 60.5591 31.5167 60.9062 31.95C61.2882 32.3833 61.4792 32.9667 61.4792 33.7C61.4792 34.7333 60.8368 35.6 59.5521 36.3C58.3716 36.9333 57.0347 37.45 55.5417 37.85C54.0486 38.2167 52.625 38.4 51.2708 38.4C47.1736 38.4 43.9271 37.2667 41.5312 35C39.1354 32.7333 37.9375 29.6333 37.9375 25.7C37.9375 23.2 38.4583 20.9833 39.5 19.05C40.5417 17.1166 42 15.6166 43.875 14.55C45.7847 13.4833 47.9375 12.95 50.3333 12.95C52.625 12.95 54.6216 13.4333 56.3229 14.4C58.0243 15.3666 59.3438 16.7333 60.2812 18.5C61.2188 20.2666 61.6875 22.35 61.6875 24.75C61.6875 26.1833 61.0278 26.9 59.7083 26.9H44.3438C44.5521 29.2 45.2292 30.9 46.375 32C47.5208 33.0667 49.1875 33.6 51.375 33.6C52.4861 33.6 53.4583 33.4667 54.2917 33.2C55.1597 32.9333 56.132 32.5667 57.2083 32.1C58.25 31.5667 59.0139 31.3 59.5 31.3ZM50.4896 17.35C48.7188 17.35 47.2951 17.8833 46.2188 18.95C45.1771 20.0166 44.5521 21.55 44.3438 23.55H56.1146C56.0451 21.5166 55.5243 19.9833 54.5521 18.95C53.5799 17.8833 52.2257 17.35 50.4896 17.35Z" fill="white"/>
<path d="M80.3 12.95C82.4 12.95 84.2667 13.4833 85.9 14.55C87.5667 15.6166 88.85 17.1333 89.75 19.1C90.6833 21.0333 91.15 23.2667 91.15 25.8C91.15 28.3333 90.6833 30.55 89.75 32.45C88.85 34.35 87.5833 35.8167 85.95 36.85C84.3167 37.8833 82.4333 38.4 80.3 38.4C78.5667 38.4 77.0167 38.0333 75.65 37.3C74.2833 36.5667 73.2333 35.55 72.5 34.25V44.45C72.5 45.3167 72.2167 46 71.65 46.5C71.0833 47 70.3333 47.25 69.4 47.25C68.4667 47.25 67.7 46.9833 67.1 46.45C66.5333 45.9167 66.25 45.2167 66.25 44.35V16C66.25 15.1 66.5167 14.3833 67.05 13.85C67.6167 13.3166 68.3667 13.05 69.3 13.05C70.2333 13.05 70.9833 13.3166 71.55 13.85C72.1167 14.3833 72.4 15.1 72.4 16V17.25C73.1333 15.8833 74.1833 14.8333 75.55 14.1C76.95 13.3333 78.5333 12.95 80.3 12.95ZM78.65 33.55C80.6167 33.55 82.15 32.8833 83.25 31.55C84.35 30.1833 84.9 28.2667 84.9 25.8C84.9 23.2667 84.35 21.3 83.25 19.9C82.15 18.5 80.6167 17.8 78.65 17.8C76.65 17.8 75.1 18.4833 74 19.85C72.9333 21.2166 72.4 23.1667 72.4 25.7C72.4 28.2 72.9333 30.1333 74 31.5C75.1 32.8667 76.65 33.55 78.65 33.55Z" fill="white"/>
<path d="M99.25 38C98.2833 38.0333 97.5167 37.7833 96.95 37.25C96.3833 36.7167 96.1 35.9833 96.1 35.05V16.7C96.0667 15.7334 96.3167 14.9667 96.85 14.4C97.3833 13.8334 98.1167 13.55 99.05 13.55H108.3C111.067 13.55 113.233 14.1 114.8 15.2C116.4 16.3 117.2 17.85 117.2 19.85C117.2 21.0834 116.833 22.2 116.1 23.2C115.367 24.2 114.317 24.9333 112.95 25.4C114.517 25.7667 115.717 26.4333 116.55 27.4C117.417 28.3667 117.85 29.6 117.85 31.1C117.85 33.0667 117.017 34.7167 115.35 36.05C113.717 37.35 111.417 38 108.45 38H99.25ZM107.25 23.55C108.45 23.55 109.383 23.2833 110.05 22.75C110.717 22.2167 111.05 21.4834 111.05 20.55C111.05 18.6834 109.767 17.75 107.2 17.75H102.3V23.55H107.25ZM107.4 33.8C110.2 33.8 111.6 32.75 111.6 30.65C111.6 28.55 110.2 27.5 107.4 27.5H102.3V33.8H107.4Z" fill="white"/>
<path d="M279.25 106C278.283 106.033 277.517 105.783 276.95 105.25C276.383 104.717 276.1 103.983 276.1 103.05V84.7C276.067 83.7334 276.317 82.9667 276.85 82.4C277.383 81.8334 278.117 81.55 279.05 81.55H288.3C291.067 81.55 293.233 82.1 294.8 83.2C296.4 84.3 297.2 85.85 297.2 87.85C297.2 89.0834 296.833 90.2 296.1 91.2C295.367 92.2 294.317 92.9333 292.95 93.4C294.517 93.7667 295.717 94.4333 296.55 95.4C297.417 96.3667 297.85 97.6 297.85 99.1C297.85 101.067 297.017 102.717 295.35 104.05C293.717 105.35 291.417 106 288.45 106H279.25ZM287.25 91.55C288.45 91.55 289.383 91.2833 290.05 90.75C290.717 90.2167 291.05 89.4834 291.05 88.55C291.05 86.6834 289.767 85.75 287.2 85.75H282.3V91.55H287.25ZM287.4 101.8C290.2 101.8 291.6 100.75 291.6 98.65C291.6 96.55 290.2 95.5 287.4 95.5H282.3V101.8H287.4Z" fill="white"/>
<path d="M126.25 38C125.283 38.0333 124.517 37.7833 123.95 37.25C123.383 36.7167 123.1 35.9833 123.1 35.05V16C123.1 15.1 123.383 14.3834 123.95 13.85C124.517 13.3167 125.267 13.05 126.2 13.05C127.167 13.05 127.933 13.3167 128.5 13.85C129.067 14.3834 129.35 15.1 129.35 16V21.65H133C136 21.65 138.333 22.2667 140 23.5C141.667 24.7 142.5 26.7167 142.5 29.55C142.5 31.35 142.033 32.9001 141.1 34.2001C140.2 35.4668 139 36.4167 137.5 37.05C136.033 37.6833 134.45 38 132.75 38H126.25ZM148.75 38.3C147.783 38.3 147.017 38.0333 146.45 37.5C145.883 36.9667 145.6 36.25 145.6 35.35V16C145.6 15.1 145.883 14.3834 146.45 13.85C147.017 13.3167 147.783 13.05 148.75 13.05C149.683 13.05 150.433 13.3167 151 13.85C151.567 14.3834 151.85 15.1 151.85 16V35.35C151.85 36.25 151.567 36.9667 151 37.5C150.433 38.0333 149.683 38.3 148.75 38.3ZM131.45 33.7001C132.783 33.7001 133.933 33.3834 134.9 32.75C135.867 32.1167 136.35 31.1 136.35 29.7001C136.35 28.2001 135.9 27.2 135 26.7C134.133 26.2 132.95 25.95 131.45 25.95H129.25V33.7001H131.45Z" fill="white"/>
<path d="M149.25 106C148.283 106.033 147.517 105.783 146.95 105.25C146.383 104.717 146.1 103.983 146.1 103.05V84C146.1 83.1 146.383 82.3834 146.95 81.85C147.517 81.3167 148.267 81.05 149.2 81.05C150.167 81.05 150.933 81.3167 151.5 81.85C152.067 82.3834 152.35 83.1 152.35 84V89.65H156C159 89.65 161.333 90.2667 163 91.5C164.667 92.7 165.5 94.7167 165.5 97.55C165.5 99.35 165.033 100.9 164.1 102.2C163.2 103.467 162 104.417 160.5 105.05C159.033 105.683 157.45 106 155.75 106H149.25ZM171.75 106.3C170.783 106.3 170.017 106.033 169.45 105.5C168.883 104.967 168.6 104.25 168.6 103.35V84C168.6 83.1 168.883 82.3834 169.45 81.85C170.017 81.3167 170.783 81.05 171.75 81.05C172.683 81.05 173.433 81.3167 174 81.85C174.567 82.3834 174.85 83.1 174.85 84V103.35C174.85 104.25 174.567 104.967 174 105.5C173.433 106.033 172.683 106.3 171.75 106.3ZM154.45 101.7C155.783 101.7 156.933 101.383 157.9 100.75C158.867 100.117 159.35 99.1 159.35 97.7001C159.35 96.2001 158.9 95.2 158 94.7C157.133 94.2 155.95 93.95 154.45 93.95H152.25V101.7H154.45Z" fill="white"/>
<path d="M174.5 15.4499C175.167 14.5166 175.767 13.8832 176.3 13.5499C176.867 13.2166 177.633 13.0499 178.6 13.0499C179.567 13.0499 180.333 13.3166 180.9 13.8499C181.5 14.3832 181.8 15.0999 181.8 15.9999V35.2499C181.8 36.1499 181.517 36.8832 180.95 37.4499C180.417 38.0166 179.717 38.2999 178.85 38.2999C177.95 38.2999 177.217 38.0166 176.65 37.4499C176.117 36.8832 175.85 36.1499 175.85 35.2499V21.1499L165.25 35.9999C164.617 36.8999 164 37.5166 163.4 37.8499C162.833 38.1499 162.117 38.2999 161.25 38.2999C160.283 38.2999 159.517 38.0332 158.95 37.4999C158.383 36.9666 158.1 36.2332 158.1 35.2999V16.0499C158.1 15.1499 158.367 14.4332 158.9 13.8999C159.467 13.3332 160.2 13.0499 161.1 13.0499C161.967 13.0499 162.667 13.3332 163.2 13.8999C163.767 14.4332 164.05 15.1499 164.05 16.0499V30.0499L174.5 15.4499ZM169.8 8.7999C167.633 8.7999 165.8 8.31656 164.3 7.3499C162.833 6.38323 161.783 5.0499 161.15 3.3499C161.05 3.0499 161 2.76657 161 2.4999C161 1.96657 161.183 1.53323 161.55 1.1999C161.95 0.833235 162.4 0.649902 162.9 0.649902C163.633 0.649902 164.2 1.01656 164.6 1.7499C165.133 2.78323 165.85 3.58323 166.75 4.1499C167.683 4.71657 168.7 4.9999 169.8 4.9999C170.867 4.9999 171.85 4.71657 172.75 4.1499C173.65 3.58323 174.4 2.78323 175 1.7499C175.433 1.01656 176.017 0.649902 176.75 0.649902C177.25 0.649902 177.683 0.833235 178.05 1.1999C178.417 1.53323 178.6 1.96657 178.6 2.4999C178.6 2.76657 178.55 3.0499 178.45 3.3499C177.85 5.0499 176.8 6.38323 175.3 7.3499C173.8 8.31656 171.967 8.7999 169.8 8.7999Z" fill="white"/>
<path d="M197.5 83.4499C198.167 82.5166 198.767 81.8832 199.3 81.5499C199.867 81.2166 200.633 81.0499 201.6 81.0499C202.567 81.0499 203.333 81.3166 203.9 81.8499C204.5 82.3832 204.8 83.0999 204.8 83.9999V103.25C204.8 104.15 204.517 104.883 203.95 105.45C203.417 106.017 202.717 106.3 201.85 106.3C200.95 106.3 200.217 106.017 199.65 105.45C199.117 104.883 198.85 104.15 198.85 103.25V89.1499L188.25 104C187.617 104.9 187 105.517 186.4 105.85C185.833 106.15 185.117 106.3 184.25 106.3C183.283 106.3 182.517 106.033 181.95 105.5C181.383 104.967 181.1 104.233 181.1 103.3V84.0499C181.1 83.1499 181.367 82.4332 181.9 81.8999C182.467 81.3332 183.2 81.0499 184.1 81.0499C184.967 81.0499 185.667 81.3332 186.2 81.8999C186.767 82.4332 187.05 83.1499 187.05 84.0499V98.0499L197.5 83.4499ZM192.8 76.7999C190.633 76.7999 188.8 76.3166 187.3 75.3499C185.833 74.3832 184.783 73.0499 184.15 71.3499C184.05 71.0499 184 70.7666 184 70.4999C184 69.9666 184.183 69.5332 184.55 69.1999C184.95 68.8332 185.4 68.6499 185.9 68.6499C186.633 68.6499 187.2 69.0166 187.6 69.7499C188.133 70.7832 188.85 71.5832 189.75 72.1499C190.683 72.7166 191.7 72.9999 192.8 72.9999C193.867 72.9999 194.85 72.7166 195.75 72.1499C196.65 71.5832 197.4 70.7832 198 69.7499C198.433 69.0166 199.017 68.6499 199.75 68.6499C200.25 68.6499 200.683 68.8332 201.05 69.1999C201.417 69.5332 201.6 69.9666 201.6 70.4999C201.6 70.7666 201.55 71.0499 201.45 71.3499C200.85 73.0499 199.8 74.3832 198.3 75.3499C196.8 76.3166 194.967 76.7999 192.8 76.7999Z" fill="white"/>
<path d="M13.4 106.4C10.9 106.4 8.70002 105.883 6.80002 104.85C4.93335 103.817 3.48335 102.333 2.45002 100.4C1.41669 98.4667 0.900024 96.2167 0.900024 93.65C0.900024 91.0833 1.41669 88.85 2.45002 86.95C3.48335 85.0166 4.93335 83.5333 6.80002 82.5C8.70002 81.4666 10.9 80.95 13.4 80.95C15.9 80.95 18.0833 81.4666 19.95 82.5C21.85 83.5333 23.3 85.0166 24.3 86.95C25.3333 88.85 25.85 91.0833 25.85 93.65C25.85 96.2167 25.3333 98.4667 24.3 100.4C23.3 102.333 21.85 103.817 19.95 104.85C18.0833 105.883 15.9 106.4 13.4 106.4ZM13.35 101.55C15.3833 101.55 16.9333 100.883 18 99.55C19.0667 98.2167 19.6 96.25 19.6 93.65C19.6 91.0833 19.0667 89.1333 18 87.8C16.9333 86.4333 15.4 85.75 13.4 85.75C11.4 85.75 9.85002 86.4333 8.75002 87.8C7.68335 89.1333 7.15002 91.0833 7.15002 93.65C7.15002 96.25 7.68335 98.2167 8.75002 99.55C9.81669 100.883 11.35 101.55 13.35 101.55Z" fill="white"/>
<path d="M69.4 106.4C66.9 106.4 64.7 105.883 62.8 104.85C60.9334 103.817 59.4834 102.333 58.45 100.4C57.4167 98.4667 56.9 96.2167 56.9 93.65C56.9 91.0833 57.4167 88.85 58.45 86.95C59.4834 85.0166 60.9334 83.5333 62.8 82.5C64.7 81.4666 66.9 80.95 69.4 80.95C71.9 80.95 74.0833 81.4666 75.95 82.5C77.85 83.5333 79.3 85.0166 80.3 86.95C81.3333 88.85 81.85 91.0833 81.85 93.65C81.85 96.2167 81.3333 98.4667 80.3 100.4C79.3 102.333 77.85 103.817 75.95 104.85C74.0833 105.883 71.9 106.4 69.4 106.4ZM69.35 101.55C71.3833 101.55 72.9333 100.883 74 99.55C75.0667 98.2167 75.6 96.25 75.6 93.65C75.6 91.0833 75.0667 89.1333 74 87.8C72.9333 86.4333 71.4 85.75 69.4 85.75C67.4 85.75 65.85 86.4333 64.75 87.8C63.6834 89.1333 63.15 91.0833 63.15 93.65C63.15 96.25 63.6834 98.2167 64.75 99.55C65.8167 100.883 67.35 101.55 69.35 101.55Z" fill="white"/>
<path d="M314.4 106.4C311.9 106.4 309.7 105.883 307.8 104.85C305.933 103.817 304.483 102.333 303.45 100.4C302.417 98.4667 301.9 96.2167 301.9 93.65C301.9 91.0833 302.417 88.85 303.45 86.95C304.483 85.0166 305.933 83.5333 307.8 82.5C309.7 81.4666 311.9 80.95 314.4 80.95C316.9 80.95 319.083 81.4666 320.95 82.5C322.85 83.5333 324.3 85.0166 325.3 86.95C326.333 88.85 326.85 91.0833 326.85 93.65C326.85 96.2167 326.333 98.4667 325.3 100.4C324.3 102.333 322.85 103.817 320.95 104.85C319.083 105.883 316.9 106.4 314.4 106.4ZM314.35 101.55C316.383 101.55 317.933 100.883 319 99.55C320.067 98.2167 320.6 96.25 320.6 93.65C320.6 91.0833 320.067 89.1333 319 87.8C317.933 86.4333 316.4 85.75 314.4 85.75C312.4 85.75 310.85 86.4333 309.75 87.8C308.683 89.1333 308.15 91.0833 308.15 93.65C308.15 96.25 308.683 98.2167 309.75 99.55C310.817 100.883 312.35 101.55 314.35 101.55Z" fill="white"/>
<path d="M332.35 112.65C331.483 112.65 330.783 112.383 330.25 111.85C329.75 111.35 329.5 110.633 329.5 109.7V104.45C329.467 103.483 329.717 102.717 330.25 102.15C330.783 101.583 331.483 101.3 332.35 101.3H332.9C333.867 99.5668 334.533 97.6168 334.9 95.4501C335.3 93.2834 335.5 90.7167 335.5 87.7501V84.7001C335.467 83.7334 335.717 82.9667 336.25 82.4001C336.783 81.8334 337.517 81.5501 338.45 81.5501H350.8C351.767 81.5167 352.533 81.7667 353.1 82.3001C353.667 82.8334 353.95 83.5667 353.95 84.5001V101.3H354.75C355.717 101.267 356.483 101.517 357.05 102.05C357.617 102.583 357.9 103.317 357.9 104.25V109.7C357.9 110.633 357.633 111.35 357.1 111.85C356.6 112.383 355.917 112.65 355.05 112.65C354.15 112.65 353.45 112.383 352.95 111.85C352.45 111.35 352.2 110.633 352.2 109.7V106H335.25V109.7C335.25 110.633 334.983 111.35 334.45 111.85C333.95 112.383 333.25 112.65 332.35 112.65ZM347.75 86.2501H340.9V87.7501C340.9 90.9167 340.65 93.6668 340.15 96.0001C339.683 98.3334 339.017 100.1 338.15 101.3H347.75V86.2501Z" fill="white"/>
<path d="M45.55 92.6C46.7167 93.0333 47.65 93.6167 48.35 94.35C49.0833 95.0834 49.9333 96.3167 50.9 98.05L53.1 101.85C53.4 102.383 53.55 102.9 53.55 103.4C53.55 104.2 53.2333 104.883 52.6 105.45C52 105.983 51.2833 106.25 50.45 106.25C49.3167 106.25 48.45 105.717 47.85 104.65L44.7 99.05C44 97.8833 43.3167 97.0667 42.65 96.6C41.9833 96.1334 41.0167 95.9 39.75 95.9H37.8V103.3C37.8 104.233 37.5167 104.967 36.95 105.5C36.3833 106.033 35.6167 106.3 34.65 106.3C33.6833 106.3 32.9167 106.033 32.35 105.5C31.8167 104.967 31.55 104.233 31.55 103.3V84C31.55 83.1 31.8333 82.3834 32.4 81.85C32.9667 81.3167 33.7167 81.05 34.65 81.05C35.6167 81.05 36.3833 81.3167 36.95 81.85C37.5167 82.3834 37.8 83.1 37.8 84V91.25H40.05L47.2 82.35C47.8667 81.4834 48.65 81.05 49.55 81.05C50.25 81.05 50.85 81.3 51.35 81.8C51.85 82.3 52.1 82.9 52.1 83.6C52.1 84.3 51.8333 84.9834 51.3 85.65L45.55 92.6Z" fill="white"/>
<path d="M90.2 106.3C89.2667 106.3 88.5167 106.033 87.95 105.5C87.3833 104.967 87.1 104.25 87.1 103.35V84C87.1 83.1 87.3833 82.3834 87.95 81.85C88.5167 81.3167 89.2667 81.05 90.2 81.05C91.1667 81.05 91.9333 81.3167 92.5 81.85C93.0667 82.3834 93.35 83.1 93.35 84V91.05H104.05V84C104.05 83.1 104.333 82.3834 104.9 81.85C105.467 81.3167 106.217 81.05 107.15 81.05C108.117 81.05 108.883 81.3167 109.45 81.85C110.017 82.3834 110.3 83.1 110.3 84L110.35 103.1C110.35 104.067 110.05 104.85 109.45 105.45C108.883 106.017 108.133 106.3 107.2 106.3C106.233 106.3 105.467 106.017 104.9 105.45C104.333 104.85 104.05 104.067 104.05 103.1V95.9H93.35V103.35C93.35 104.25 93.0667 104.967 92.5 105.5C91.9333 106.033 91.1667 106.3 90.2 106.3Z" fill="white"/>
<path d="M119.2 106.3C118.267 106.3 117.517 106.033 116.95 105.5C116.383 104.967 116.1 104.25 116.1 103.35V84C116.1 83.1 116.383 82.3834 116.95 81.85C117.517 81.3167 118.267 81.05 119.2 81.05C120.167 81.05 120.933 81.3167 121.5 81.85C122.067 82.3834 122.35 83.1 122.35 84V91.05H133.05V84C133.05 83.1 133.333 82.3834 133.9 81.85C134.467 81.3167 135.217 81.05 136.15 81.05C137.117 81.05 137.883 81.3167 138.45 81.85C139.017 82.3834 139.3 83.1 139.3 84L139.35 103.1C139.35 104.067 139.05 104.85 138.45 105.45C137.883 106.017 137.133 106.3 136.2 106.3C135.233 106.3 134.467 106.017 133.9 105.45C133.333 104.85 133.05 104.067 133.05 103.1V95.9H122.35V103.35C122.35 104.25 122.067 104.967 121.5 105.5C120.933 106.033 120.167 106.3 119.2 106.3Z" fill="white"/>
<path d="M232.8 106.4C229.467 106.4 226.583 105.75 224.15 104.45C223.583 104.15 223.15 103.783 222.85 103.35C222.55 102.917 222.4 102.467 222.4 102C222.4 101.433 222.617 100.95 223.05 100.55C223.483 100.117 224.033 99.9 224.7 99.9C225.133 99.9 225.633 100 226.2 100.2C227.233 100.7 228.217 101.067 229.15 101.3C230.083 101.5 231.117 101.6 232.25 101.6C233.75 101.6 235.017 101.35 236.05 100.85C237.117 100.35 237.65 99.5333 237.65 98.4C237.65 97.5333 237.35 96.8833 236.75 96.45C236.183 95.9833 235.167 95.75 233.7 95.75H230.45C229.75 95.75 229.183 95.55 228.75 95.15C228.35 94.7167 228.15 94.1667 228.15 93.5C228.15 92.8333 228.35 92.3 228.75 91.9C229.183 91.4667 229.75 91.25 230.45 91.25H233.45C234.75 91.25 235.7 91.0167 236.3 90.55C236.9 90.05 237.2 89.3833 237.2 88.55C237.2 87.6166 236.783 86.9166 235.95 86.45C235.117 85.9833 234 85.75 232.6 85.75C231.467 85.75 230.45 85.8666 229.55 86.1C228.683 86.3 227.767 86.6333 226.8 87.1C226.3 87.3 225.85 87.4 225.45 87.4C224.783 87.4 224.217 87.1833 223.75 86.75C223.317 86.3166 223.1 85.8 223.1 85.2C223.1 84.7333 223.25 84.3 223.55 83.9C223.85 83.5 224.3 83.1666 224.9 82.9C227.5 81.6 230.483 80.95 233.85 80.95C237.017 80.95 239.45 81.55 241.15 82.75C242.883 83.95 243.75 85.5666 243.75 87.6C243.75 88.8666 243.35 90.0167 242.55 91.05C241.783 92.0833 240.717 92.8167 239.35 93.25C242.617 94.0833 244.25 95.95 244.25 98.85C244.25 100.35 243.75 101.683 242.75 102.85C241.75 103.983 240.367 104.867 238.6 105.5C236.867 106.1 234.933 106.4 232.8 106.4Z" fill="white"/>
<path d="M259.85 80.95C263.25 80.95 265.767 81.8 267.4 83.5C269.067 85.1666 269.9 87.7166 269.9 91.15V103.35C269.9 104.25 269.633 104.967 269.1 105.5C268.567 106 267.833 106.25 266.9 106.25C266.033 106.25 265.317 105.983 264.75 105.45C264.217 104.917 263.95 104.217 263.95 103.35V102.25C263.383 103.55 262.483 104.567 261.25 105.3C260.05 106.033 258.65 106.4 257.05 106.4C255.417 106.4 253.933 106.067 252.6 105.4C251.267 104.733 250.217 103.817 249.45 102.65C248.683 101.483 248.3 100.183 248.3 98.75C248.3 96.95 248.75 95.5333 249.65 94.5C250.583 93.4667 252.083 92.7167 254.15 92.25C256.217 91.7833 259.067 91.55 262.7 91.55H263.95V90.4C263.95 88.7666 263.6 87.5833 262.9 86.85C262.2 86.0833 261.067 85.7 259.5 85.7C258.533 85.7 257.55 85.85 256.55 86.15C255.55 86.4166 254.367 86.8166 253 87.35C252.133 87.7833 251.5 88 251.1 88C250.5 88 250 87.7833 249.6 87.35C249.233 86.9166 249.05 86.35 249.05 85.65C249.05 85.0833 249.183 84.6 249.45 84.2C249.75 83.7666 250.233 83.3666 250.9 83C252.067 82.3666 253.45 81.8666 255.05 81.5C256.683 81.1333 258.283 80.95 259.85 80.95ZM258.3 101.9C259.967 101.9 261.317 101.35 262.35 100.25C263.417 99.1167 263.95 97.6667 263.95 95.9V94.85H263.05C260.817 94.85 259.083 94.95 257.85 95.15C256.617 95.35 255.733 95.7 255.2 96.2C254.667 96.7 254.4 97.3833 254.4 98.25C254.4 99.3167 254.767 100.2 255.5 100.9C256.267 101.567 257.2 101.9 258.3 101.9Z" fill="white"/>
</svg>
