<svg width="35" height="35" viewBox="0 0 35 35" fill="none" xmlns="http://www.w3.org/2000/svg">
<path fill-rule="evenodd" clip-rule="evenodd" d="M24.3123 7.60626L24.6052 5.89068L23.3641 4.67571C23.0181 4.33698 22.8959 3.83972 23.0452 3.37823C23.1946 2.91661 23.5844 2.58652 24.0627 2.51677L25.7777 2.26639L26.5448 0.705552C26.7587 0.270357 27.1918 0 27.675 0C28.1582 0 28.5913 0.270357 28.8052 0.705552L29.5722 2.26639L31.2874 2.51677C31.7656 2.58659 32.1555 2.91668 32.3048 3.3783C32.4541 3.83979 32.3319 4.33698 31.9858 4.67571L30.7447 5.89068L31.0377 7.60626C31.1195 8.08457 30.9274 8.55896 30.5364 8.84422C30.3155 9.00542 30.057 9.08732 29.7968 9.08732C29.5964 9.08732 29.3951 9.03878 29.209 8.94061L27.675 8.13063L26.1409 8.94061C25.7131 9.16634 25.2046 9.12947 24.8136 8.84422C24.4227 8.55896 24.2305 8.08457 24.3123 7.60626ZM24.21 3.53483C24.0789 3.55399 24.0331 3.65401 24.0195 3.69617C24.0058 3.73825 23.9843 3.84624 24.0791 3.93906L25.377 5.20963C25.5829 5.41141 25.6768 5.70167 25.6281 5.98631L25.3217 7.78016C25.2994 7.91129 25.38 7.98591 25.4156 8.012C25.4513 8.03795 25.547 8.09198 25.6642 8.02999L27.2685 7.18294C27.3957 7.1158 27.5353 7.08216 27.6749 7.08216C27.8145 7.08216 27.9542 7.1158 28.0815 7.18301L29.6856 8.02999C29.8029 8.09198 29.8986 8.03809 29.9342 8.012C29.9699 7.98598 30.0505 7.91129 30.0281 7.78016L29.7217 5.98617C29.6732 5.70147 29.7671 5.41127 29.9729 5.2097L31.2708 3.93906C31.3656 3.84624 31.3442 3.73832 31.3306 3.69617C31.317 3.65408 31.2711 3.55399 31.1401 3.53483L29.3464 3.27306C29.062 3.23166 28.816 3.0522 28.6888 2.79324L27.8866 1.16093C27.828 1.04168 27.719 1.02884 27.675 1.02884C27.631 1.02884 27.5221 1.04168 27.4634 1.16093L26.6613 2.79317C26.5341 3.0522 26.2882 3.23159 26.0034 3.27306L24.21 3.53483ZM14.4302 12.5773L14.1372 14.2929C14.0555 14.7713 14.2476 15.2456 14.6385 15.5308C14.8595 15.692 15.1179 15.7739 15.3782 15.7739C15.5785 15.7739 15.7798 15.7254 15.9659 15.6272L17.4999 14.8173L19.034 15.6272C19.4617 15.8532 19.9703 15.8162 20.3614 15.5308C20.7523 15.2456 20.9444 14.7712 20.8627 14.2929L20.5697 12.5773L21.8108 11.3623C22.1568 11.0236 22.279 10.5264 22.1297 10.0649C21.9804 9.60323 21.5905 9.27321 21.1122 9.20339L19.3972 8.95308L18.6301 7.39217C18.4162 6.95698 17.9832 6.68662 17.4999 6.68662C17.0167 6.68662 16.5836 6.95698 16.3697 7.39217L15.6027 8.95308L13.8875 9.20339C13.4094 9.27321 13.0195 9.60323 12.8701 10.0649C12.7208 10.5263 12.8429 11.0236 13.189 11.3624L14.4302 12.5773ZM13.8443 10.3827C13.858 10.3406 13.9038 10.2406 14.0349 10.2215L15.8286 9.95968C16.1131 9.91807 16.3589 9.73875 16.4862 9.47979L17.2883 7.84748C17.3469 7.72823 17.4558 7.71539 17.4999 7.71539C17.5439 7.71539 17.6528 7.72823 17.7114 7.84748L18.5137 9.47999C18.6409 9.73882 18.8867 9.91807 19.1713 9.95968L20.9649 10.2215C21.096 10.2406 21.1418 10.3407 21.1554 10.3828C21.169 10.4249 21.1905 10.5329 21.0957 10.6257L19.7978 11.8963C19.592 12.0978 19.4981 12.388 19.5467 12.6727L19.8531 14.4668C19.8754 14.5978 19.7948 14.6725 19.7591 14.6986C19.7234 14.7245 19.6277 14.7786 19.5106 14.7165L17.9064 13.8696C17.7792 13.8024 17.6395 13.7687 17.4999 13.7687C17.3603 13.7687 17.2206 13.8024 17.0933 13.8695L15.4891 14.7165C15.3718 14.7785 15.2762 14.7245 15.2406 14.6986C15.2049 14.6725 15.1244 14.5978 15.1467 14.4668L15.4531 12.6727C15.5017 12.3882 15.4079 12.0979 15.2019 11.8962L13.904 10.6258C13.8093 10.5329 13.8307 10.4249 13.8443 10.3827ZM31.1319 31.6452H34.1464C34.6171 31.6452 35 32.0298 35 32.5025V34.1427C35 34.6154 34.6171 35 34.1464 35H0.853604C0.382949 35 0 34.6154 0 34.1427V32.5025C0 32.0298 0.382949 31.6452 0.853604 31.6453H3.86818V29.1505C3.86818 28.8664 4.09746 28.6362 4.38033 28.6362C4.6632 28.6362 4.89248 28.8664 4.89248 29.1505V31.6453H9.75734V24.6298H4.89248V26.7586C4.89248 27.0427 4.6632 27.2729 4.38033 27.2729C4.09746 27.2729 3.86818 27.0427 3.86818 26.7586V24.4583C3.86818 23.9857 4.25113 23.6011 4.72179 23.6011H9.92811C10.3988 23.6011 10.7817 23.9857 10.7817 24.4583V31.6452H14.0433V18.8327C14.0433 18.36 14.4262 17.9754 14.8969 17.9754H20.1033C20.5739 17.9754 20.9569 18.36 20.9569 18.8327V31.6453H24.2184V12.3206C24.2184 11.848 24.6013 11.4634 25.072 11.4634H25.9224C26.2052 11.4634 26.4345 11.6936 26.4345 11.9777C26.4345 12.2618 26.2052 12.4921 25.9224 12.4921H25.2427V31.6452H30.1076V12.4921H28.3307C28.0478 12.4921 27.8185 12.2618 27.8185 11.9777C27.8185 11.6936 28.0478 11.4634 28.3307 11.4634H30.2783C30.7489 11.4634 31.1319 11.848 31.1319 12.3206V31.6452ZM19.9325 19.0042H15.0676V31.6453H19.9325V19.0042ZM1.02437 33.9713H33.9756H33.9757V32.674H30.6197H24.7305H20.4447H14.5555H10.2696H4.3804H1.02437V33.9713ZM3.96209 20.5511L4.25508 18.8355L3.01401 17.6205C2.66798 17.2818 2.54582 16.7847 2.69512 16.3231C2.84448 15.8614 3.23427 15.5314 3.71251 15.4616L5.42772 15.2112L6.19471 13.6504C6.40854 13.2152 6.84159 12.9449 7.32482 12.9449C7.80813 12.9449 8.24118 13.2151 8.45508 13.6504L9.22207 15.2112L10.9372 15.4616C11.4154 15.5314 11.8052 15.8615 11.9546 16.3231C12.1039 16.7846 11.9817 17.2818 11.6356 17.6206L10.3946 18.8355L10.6876 20.5511C10.7692 21.0294 10.5771 21.5038 10.1861 21.7891C9.79506 22.0743 9.28653 22.1113 8.85888 21.8855L7.32482 21.0755L5.79077 21.8855C5.6047 21.9836 5.40338 22.0323 5.20309 22.0323C4.94291 22.0323 4.68444 21.9503 4.46351 21.7891C4.07256 21.5038 3.8804 21.0295 3.96209 20.5511ZM3.85982 16.4796C3.72878 16.4988 3.68298 16.5988 3.66931 16.641C3.65564 16.6831 3.63417 16.7911 3.72899 16.8839L5.02686 18.1544C5.23269 18.3559 5.32668 18.6463 5.27801 18.931L4.97162 20.7249C4.94927 20.856 5.02986 20.9307 5.06555 20.9568C5.10123 20.9828 5.1968 21.0367 5.31403 20.9748L6.91829 20.1277C7.04558 20.0606 7.18524 20.0269 7.32482 20.0269C7.46441 20.0269 7.60407 20.0605 7.73136 20.1277L9.33562 20.9748C9.45265 21.0368 9.54835 20.9828 9.5841 20.9568C9.61979 20.9308 9.70038 20.856 9.67803 20.7249L9.37164 18.9309C9.32297 18.6463 9.41689 18.3559 9.62293 18.1544L10.9207 16.8839C11.0155 16.7911 10.9941 16.6831 10.9804 16.641C10.9667 16.5988 10.9209 16.4988 10.7899 16.4796L8.99628 16.2178C8.71177 16.1764 8.46588 15.9969 8.33859 15.7379L7.53647 14.1057C7.47781 13.9864 7.36892 13.9736 7.32482 13.9736C7.28073 13.9736 7.17184 13.9865 7.11325 14.1057L6.31112 15.738C6.18377 15.997 5.93788 16.1764 5.6533 16.2178L3.85982 16.4796Z" fill="#3D626F"/>
</svg>
