<svg width="30" height="30" viewBox="0 0 30 30" fill="none" xmlns="http://www.w3.org/2000/svg">
<path d="M17.8566 0H12.1424C6.15735 0 1.28809 4.86812 1.28809 10.852V15.9995C1.28809 20.4557 4.02637 24.4606 8.14379 26.0917V29.4287C8.14379 29.6549 8.27691 29.8595 8.48372 29.9509C8.55799 29.984 8.63683 30 8.7151 30C8.85393 30 8.99161 29.9492 9.09845 29.852L12.4115 26.8515H17.8566C23.8416 26.8515 28.7109 21.9834 28.7109 15.9995V10.852C28.7109 4.86812 23.8416 0 17.8566 0ZM27.5683 15.9995C27.5683 21.3532 23.2121 25.7089 17.8566 25.7089H12.1909C12.0493 25.7089 11.9127 25.7615 11.8076 25.8569L9.28641 28.1404V25.6958C9.28641 25.4535 9.13387 25.2376 8.90535 25.1576C5.03301 23.7882 2.4307 20.1078 2.4307 15.9995V10.852C2.4307 5.49828 6.7875 1.14262 12.1424 1.14262H17.8566C23.2121 1.14262 27.5683 5.49828 27.5683 10.852V15.9995Z" fill="white"/>
<path d="M22.55 17.421L19.0388 15.1404C18.6548 14.8907 18.1978 14.8061 17.7505 14.8987C17.3025 14.993 16.9175 15.2575 16.6678 15.6431L16.5027 15.8968C14.983 15.3946 13.3074 14.753 12.3042 11.8491L12.7195 11.488C13.4325 10.8681 13.5073 9.78377 12.8875 9.06963L10.1406 5.90972C9.9338 5.67149 9.57274 5.64692 9.3345 5.85317L7.60972 7.35228C6.09689 8.66743 6.8036 10.6127 7.03612 11.252C7.04641 11.2806 7.05898 11.308 7.07383 11.3349C7.13382 11.4423 8.56609 13.9983 10.8793 16.3544C13.2017 18.7202 17.3945 20.9049 17.5231 20.9683C18.0018 21.2791 18.5406 21.4282 19.0736 21.4282C20.0094 21.4282 20.9269 20.9694 21.4742 20.1285L22.7186 18.2123C22.8899 17.9466 22.8145 17.593 22.55 17.421ZM20.5156 19.5057C20.0008 20.2987 18.9371 20.5238 18.0972 19.9822C18.0555 19.9605 13.8901 17.7912 11.6946 15.5546C9.64243 13.4641 8.27986 11.1418 8.09419 10.8178C7.64171 9.54896 7.72169 8.76913 8.35927 8.21496L9.65329 7.09062L12.0254 9.81919C12.2362 10.0614 12.2116 10.4156 11.9705 10.6253L11.2695 11.2343C11.0987 11.3829 11.0313 11.6177 11.0981 11.8336C12.2933 15.7174 14.6174 16.4801 16.3142 17.0371L16.5616 17.1188C16.8089 17.2022 17.0797 17.1068 17.2214 16.8886L17.6265 16.2647C17.7099 16.1356 17.8379 16.0482 17.9864 16.0168C18.1355 15.9848 18.2875 16.0145 18.4166 16.0984L21.4491 18.0677L20.5156 19.5057Z" fill="white"/>
<path d="M16.3037 9.28214C15.9998 9.19473 15.6839 9.37126 15.5976 9.6752C15.5113 9.97857 15.6873 10.2945 15.9907 10.3808C16.8419 10.623 17.5201 11.3023 17.76 12.1541C17.8309 12.4055 18.06 12.5706 18.3096 12.5706C18.361 12.5706 18.413 12.5637 18.465 12.5495C18.7684 12.4638 18.9455 12.1484 18.8598 11.8445C18.513 10.6139 17.5332 9.63178 16.3037 9.28214Z" fill="white"/>
<path d="M20.6517 12.6937C20.7031 12.6937 20.7551 12.6868 20.8071 12.6725C21.111 12.5868 21.2875 12.2709 21.2018 11.9675C20.5277 9.57776 18.6258 7.67187 16.2377 6.99201C15.9344 6.9046 15.6184 7.08228 15.5322 7.38564C15.4459 7.68901 15.6219 8.00494 15.9252 8.09121C17.9345 8.66252 19.5348 10.2673 20.1021 12.2778C20.1735 12.5291 20.402 12.6937 20.6517 12.6937Z" fill="white"/>
<path d="M15.9912 4.33145C15.6873 4.24404 15.3714 4.42058 15.2851 4.72509C15.1988 5.02845 15.3748 5.34438 15.6782 5.43065C19.0826 6.39902 21.7946 9.11731 22.7556 12.524C22.8264 12.7754 23.0555 12.9405 23.3051 12.9405C23.3566 12.9405 23.4086 12.9337 23.4605 12.9194C23.7639 12.8337 23.941 12.5177 23.8553 12.2144C22.7875 8.42831 19.7745 5.40837 15.9912 4.33145Z" fill="white"/>
</svg>
