<svg width="36" height="35" viewBox="0 0 36 35" fill="none" xmlns="http://www.w3.org/2000/svg">
<g clip-path="url(#clip0)">
<mask id="path-1-inside-1" fill="white">
<path d="M29.9883 23.2553C29.9601 23.1944 29.9337 23.1439 29.9093 23.1034C29.5044 22.3743 28.7308 21.4794 27.5889 20.4183L27.5647 20.394L27.5526 20.3821L27.5404 20.3699H27.5282C27.0099 19.8758 26.6817 19.5436 26.5443 19.3736C26.2928 19.0496 26.2365 18.7216 26.3739 18.3894C26.471 18.1383 26.8357 17.6081 27.4673 16.7981C27.7995 16.3688 28.0626 16.0247 28.2569 15.7655C29.6581 13.9026 30.2656 12.7122 30.0793 12.1938L30.0069 12.0726C29.9582 11.9997 29.8327 11.933 29.6305 11.8721C29.4278 11.8114 29.1687 11.8014 28.8527 11.8418L25.354 11.866C25.2973 11.8459 25.2164 11.8478 25.1109 11.8721C25.0056 11.8965 24.9529 11.9087 24.9529 11.9087L24.892 11.9391L24.8437 11.9756C24.8032 11.9998 24.7586 12.0423 24.71 12.1031C24.6616 12.1636 24.6212 12.2347 24.5888 12.3157C24.2079 13.2957 23.7748 14.2068 23.2888 15.0491C22.9891 15.5513 22.7138 15.9866 22.4625 16.3551C22.2115 16.7235 22.0009 16.995 21.8309 17.1689C21.6607 17.3431 21.5071 17.4826 21.3692 17.588C21.2314 17.6935 21.1263 17.738 21.0535 17.7217C20.9805 17.7054 20.9118 17.6893 20.8467 17.6731C20.7334 17.6002 20.6423 17.501 20.5736 17.3754C20.5045 17.2499 20.4581 17.0919 20.4338 16.9016C20.4096 16.7111 20.3953 16.5473 20.3912 16.4096C20.3874 16.272 20.3892 16.0774 20.3974 15.8264C20.4058 15.5752 20.4096 15.4052 20.4096 15.3161C20.4096 15.0083 20.4156 14.6743 20.4276 14.3138C20.4399 13.9534 20.4498 13.6679 20.4581 13.4575C20.4664 13.2469 20.4702 13.0241 20.4702 12.7892C20.4702 12.5543 20.4559 12.3701 20.4276 12.2364C20.3997 12.1029 20.3569 11.9733 20.3004 11.8477C20.2436 11.7221 20.1605 11.625 20.0514 11.5561C19.9421 11.4872 19.8061 11.4326 19.6444 11.392C19.2151 11.2949 18.6685 11.2423 18.0042 11.2342C16.4978 11.218 15.5299 11.3153 15.1007 11.5258C14.9306 11.6148 14.7767 11.7364 14.6391 11.8902C14.4932 12.0684 14.4729 12.1657 14.5782 12.1817C15.0642 12.2545 15.4083 12.4286 15.6108 12.704L15.6837 12.8499C15.7405 12.9552 15.7972 13.1416 15.8539 13.4088C15.9105 13.676 15.9471 13.9716 15.9632 14.2954C16.0036 14.8868 16.0036 15.3929 15.9632 15.814C15.9226 16.2353 15.8843 16.5632 15.8478 16.7981C15.8112 17.033 15.7566 17.2233 15.6837 17.3691C15.6108 17.5148 15.5622 17.6039 15.5379 17.6363C15.5136 17.6686 15.4933 17.689 15.4772 17.697C15.372 17.7373 15.2625 17.7579 15.1492 17.7579C15.0357 17.7579 14.8981 17.7011 14.7361 17.5877C14.5742 17.4743 14.4062 17.3184 14.232 17.12C14.0578 16.9215 13.8614 16.6441 13.6427 16.2878C13.4241 15.9314 13.1973 15.5103 12.9624 15.0244L12.7681 14.672C12.6466 14.4452 12.4806 14.1151 12.2701 13.6819C12.0593 13.2485 11.8731 12.8293 11.7112 12.4244C11.6465 12.2543 11.5492 12.1248 11.4197 12.0357L11.3589 11.9991C11.3184 11.9668 11.2535 11.9325 11.1645 11.8959C11.0754 11.8593 10.9824 11.8331 10.8851 11.817L7.55635 11.8411C7.2162 11.8411 6.9854 11.9182 6.86387 12.0721L6.81524 12.1449C6.79094 12.1855 6.77869 12.2502 6.77869 12.3394C6.77869 12.4285 6.80298 12.5378 6.85162 12.6673C7.33756 13.8094 7.866 14.9108 8.43695 15.9718C9.00791 17.0328 9.50405 17.8874 9.9251 18.535C10.3462 19.183 10.7755 19.7946 11.2129 20.3694C11.6503 20.9445 11.9398 21.3131 12.0814 21.475C12.2233 21.6372 12.3346 21.7584 12.4156 21.8394L12.7194 22.1309C12.9138 22.3254 13.1992 22.5582 13.5758 22.8295C13.9525 23.1009 14.3696 23.3681 14.8272 23.6315C15.2849 23.8946 15.8173 24.1092 16.4248 24.2752C17.0322 24.4413 17.6234 24.508 18.1985 24.4759H19.5956C19.879 24.4514 20.0937 24.3623 20.2396 24.2085L20.2879 24.1476C20.3204 24.0993 20.3508 24.0242 20.3789 23.9231C20.4074 23.8219 20.4215 23.7104 20.4215 23.589C20.4132 23.2408 20.4397 22.927 20.5003 22.6476C20.5608 22.3683 20.6299 22.1577 20.707 22.0159C20.7842 21.8742 20.8712 21.7547 20.9681 21.6577C21.0652 21.5606 21.1344 21.5017 21.175 21.4815C21.2154 21.4611 21.2476 21.4473 21.2719 21.439C21.4662 21.3742 21.695 21.4369 21.9585 21.6274C22.2217 21.8178 22.4687 22.0528 22.6996 22.3321C22.9305 22.6116 23.2078 22.9253 23.5317 23.2735C23.8558 23.6218 24.1392 23.8807 24.3821 24.0511L24.625 24.1968C24.7872 24.2941 24.9978 24.3832 25.257 24.4642C25.5158 24.5451 25.7425 24.5654 25.9371 24.5249L29.0471 24.4764C29.3547 24.4764 29.594 24.4255 29.7638 24.3244C29.9339 24.2232 30.035 24.1117 30.0676 23.9903C30.1001 23.8689 30.1019 23.7311 30.0738 23.5771C30.045 23.4234 30.0166 23.316 29.9883 23.2553Z"/>
</mask>
<path d="M29.9883 23.2553C29.9601 23.1944 29.9337 23.1439 29.9093 23.1034C29.5044 22.3743 28.7308 21.4794 27.5889 20.4183L27.5647 20.394L27.5526 20.3821L27.5404 20.3699H27.5282C27.0099 19.8758 26.6817 19.5436 26.5443 19.3736C26.2928 19.0496 26.2365 18.7216 26.3739 18.3894C26.471 18.1383 26.8357 17.6081 27.4673 16.7981C27.7995 16.3688 28.0626 16.0247 28.2569 15.7655C29.6581 13.9026 30.2656 12.7122 30.0793 12.1938L30.0069 12.0726C29.9582 11.9997 29.8327 11.933 29.6305 11.8721C29.4278 11.8114 29.1687 11.8014 28.8527 11.8418L25.354 11.866C25.2973 11.8459 25.2164 11.8478 25.1109 11.8721C25.0056 11.8965 24.9529 11.9087 24.9529 11.9087L24.892 11.9391L24.8437 11.9756C24.8032 11.9998 24.7586 12.0423 24.71 12.1031C24.6616 12.1636 24.6212 12.2347 24.5888 12.3157C24.2079 13.2957 23.7748 14.2068 23.2888 15.0491C22.9891 15.5513 22.7138 15.9866 22.4625 16.3551C22.2115 16.7235 22.0009 16.995 21.8309 17.1689C21.6607 17.3431 21.5071 17.4826 21.3692 17.588C21.2314 17.6935 21.1263 17.738 21.0535 17.7217C20.9805 17.7054 20.9118 17.6893 20.8467 17.6731C20.7334 17.6002 20.6423 17.501 20.5736 17.3754C20.5045 17.2499 20.4581 17.0919 20.4338 16.9016C20.4096 16.7111 20.3953 16.5473 20.3912 16.4096C20.3874 16.272 20.3892 16.0774 20.3974 15.8264C20.4058 15.5752 20.4096 15.4052 20.4096 15.3161C20.4096 15.0083 20.4156 14.6743 20.4276 14.3138C20.4399 13.9534 20.4498 13.6679 20.4581 13.4575C20.4664 13.2469 20.4702 13.0241 20.4702 12.7892C20.4702 12.5543 20.4559 12.3701 20.4276 12.2364C20.3997 12.1029 20.3569 11.9733 20.3004 11.8477C20.2436 11.7221 20.1605 11.625 20.0514 11.5561C19.9421 11.4872 19.8061 11.4326 19.6444 11.392C19.2151 11.2949 18.6685 11.2423 18.0042 11.2342C16.4978 11.218 15.5299 11.3153 15.1007 11.5258C14.9306 11.6148 14.7767 11.7364 14.6391 11.8902C14.4932 12.0684 14.4729 12.1657 14.5782 12.1817C15.0642 12.2545 15.4083 12.4286 15.6108 12.704L15.6837 12.8499C15.7405 12.9552 15.7972 13.1416 15.8539 13.4088C15.9105 13.676 15.9471 13.9716 15.9632 14.2954C16.0036 14.8868 16.0036 15.3929 15.9632 15.814C15.9226 16.2353 15.8843 16.5632 15.8478 16.7981C15.8112 17.033 15.7566 17.2233 15.6837 17.3691C15.6108 17.5148 15.5622 17.6039 15.5379 17.6363C15.5136 17.6686 15.4933 17.689 15.4772 17.697C15.372 17.7373 15.2625 17.7579 15.1492 17.7579C15.0357 17.7579 14.8981 17.7011 14.7361 17.5877C14.5742 17.4743 14.4062 17.3184 14.232 17.12C14.0578 16.9215 13.8614 16.6441 13.6427 16.2878C13.4241 15.9314 13.1973 15.5103 12.9624 15.0244L12.7681 14.672C12.6466 14.4452 12.4806 14.1151 12.2701 13.6819C12.0593 13.2485 11.8731 12.8293 11.7112 12.4244C11.6465 12.2543 11.5492 12.1248 11.4197 12.0357L11.3589 11.9991C11.3184 11.9668 11.2535 11.9325 11.1645 11.8959C11.0754 11.8593 10.9824 11.8331 10.8851 11.817L7.55635 11.8411C7.2162 11.8411 6.9854 11.9182 6.86387 12.0721L6.81524 12.1449C6.79094 12.1855 6.77869 12.2502 6.77869 12.3394C6.77869 12.4285 6.80298 12.5378 6.85162 12.6673C7.33756 13.8094 7.866 14.9108 8.43695 15.9718C9.00791 17.0328 9.50405 17.8874 9.9251 18.535C10.3462 19.183 10.7755 19.7946 11.2129 20.3694C11.6503 20.9445 11.9398 21.3131 12.0814 21.475C12.2233 21.6372 12.3346 21.7584 12.4156 21.8394L12.7194 22.1309C12.9138 22.3254 13.1992 22.5582 13.5758 22.8295C13.9525 23.1009 14.3696 23.3681 14.8272 23.6315C15.2849 23.8946 15.8173 24.1092 16.4248 24.2752C17.0322 24.4413 17.6234 24.508 18.1985 24.4759H19.5956C19.879 24.4514 20.0937 24.3623 20.2396 24.2085L20.2879 24.1476C20.3204 24.0993 20.3508 24.0242 20.3789 23.9231C20.4074 23.8219 20.4215 23.7104 20.4215 23.589C20.4132 23.2408 20.4397 22.927 20.5003 22.6476C20.5608 22.3683 20.6299 22.1577 20.707 22.0159C20.7842 21.8742 20.8712 21.7547 20.9681 21.6577C21.0652 21.5606 21.1344 21.5017 21.175 21.4815C21.2154 21.4611 21.2476 21.4473 21.2719 21.439C21.4662 21.3742 21.695 21.4369 21.9585 21.6274C22.2217 21.8178 22.4687 22.0528 22.6996 22.3321C22.9305 22.6116 23.2078 22.9253 23.5317 23.2735C23.8558 23.6218 24.1392 23.8807 24.3821 24.0511L24.625 24.1968C24.7872 24.2941 24.9978 24.3832 25.257 24.4642C25.5158 24.5451 25.7425 24.5654 25.9371 24.5249L29.0471 24.4764C29.3547 24.4764 29.594 24.4255 29.7638 24.3244C29.9339 24.2232 30.035 24.1117 30.0676 23.9903C30.1001 23.8689 30.1019 23.7311 30.0738 23.5771C30.045 23.4234 30.0166 23.316 29.9883 23.2553Z" stroke="#2F3B3F" stroke-width="2" mask="url(#path-1-inside-1)"/>
</g>
<rect x="1.05652" y="0.5" width="34" height="34" rx="9.5" stroke="#2F3B3F"/>
<defs>
<clipPath id="clip0">
<rect width="23.3333" height="23.3333" fill="white" transform="translate(6.77869 6.22217)"/>
</clipPath>
</defs>
</svg>
