<svg width="28" height="28" viewBox="0 0 28 28" fill="none" xmlns="http://www.w3.org/2000/svg">
<mask id="path-1-inside-1_395_7019" fill="white">
<path d="M23.2024 13.0766C23.5409 12.6391 23.8096 12.2881 24.008 12.0232C25.4371 10.1232 26.0565 8.90943 25.8667 8.38026L25.7922 8.25633C25.7427 8.18189 25.6144 8.11353 25.4081 8.05166C25.2015 7.98982 24.9372 7.97994 24.6151 8.02076L21.0464 8.04593C20.9638 8.03771 20.8811 8.03963 20.7985 8.05166C20.7159 8.06422 20.6623 8.07683 20.6373 8.08885C20.6124 8.10146 20.5919 8.11157 20.5755 8.11979L20.526 8.15699C20.4847 8.18162 20.4393 8.22513 20.3898 8.28727C20.3402 8.34937 20.2986 8.42135 20.2658 8.50424C19.8775 9.50374 19.4356 10.4332 18.9399 11.2924C18.6342 11.8046 18.3532 12.249 18.0974 12.6244C17.8413 13.0006 17.6265 13.2772 17.453 13.4545C17.2796 13.6321 17.1225 13.7749 16.9822 13.8819C16.8415 13.9897 16.7343 14.0349 16.6601 14.0185C16.5857 14.002 16.5154 13.9856 16.4494 13.9687C16.3337 13.8945 16.2406 13.7935 16.1706 13.6652C16.1003 13.5375 16.053 13.3763 16.0281 13.182C16.0034 12.988 15.9887 12.8206 15.9848 12.6799C15.9804 12.5396 15.9826 12.3415 15.9911 12.0851C15.9993 11.8289 16.0034 11.6558 16.0034 11.5647C16.0034 11.2511 16.0097 10.9102 16.0221 10.5425C16.0344 10.175 16.0448 9.88359 16.053 9.66876C16.0612 9.45425 16.0653 9.22686 16.0653 8.98718C16.0653 8.74804 16.0508 8.55977 16.0217 8.42327C15.9927 8.28727 15.9492 8.15511 15.8918 8.0268C15.8338 7.89902 15.7492 7.79968 15.6376 7.72967C15.526 7.65934 15.3877 7.60381 15.2225 7.56219C14.7844 7.46285 14.2268 7.40978 13.5496 7.40106C12.013 7.38519 11.0258 7.48422 10.588 7.69873C10.4145 7.78984 10.2575 7.91351 10.1171 8.07057C9.9683 8.25253 9.94778 8.35183 10.0553 8.3677C10.5511 8.44214 10.9019 8.61999 11.1085 8.90072L11.1829 9.04928C11.2406 9.15707 11.2984 9.347 11.3564 9.6195C11.4141 9.89204 11.4513 10.1936 11.468 10.5241C11.5093 11.1271 11.5093 11.6432 11.468 12.0731C11.4267 12.5029 11.3876 12.8373 11.3504 13.0764C11.3131 13.3161 11.2573 13.5101 11.1832 13.6586C11.1087 13.8077 11.0592 13.8986 11.0343 13.9317C11.0094 13.9645 10.9889 13.9853 10.9725 13.9936C10.865 14.0346 10.7536 14.0554 10.6379 14.0554C10.5222 14.0554 10.3818 13.9974 10.2165 13.8816C10.0512 13.7664 9.87969 13.6072 9.70238 13.4047C9.52453 13.2025 9.3245 12.9193 9.10123 12.5557C8.87822 12.1926 8.64672 11.7627 8.40731 11.2672L8.2092 10.9077C8.08527 10.6768 7.91587 10.3399 7.70109 9.89803C7.48631 9.45613 7.29612 9.02876 7.13115 8.61534C7.06493 8.44214 6.96586 8.30998 6.83375 8.21887L6.77191 8.18167C6.7306 8.14881 6.66439 8.11353 6.57354 8.07656C6.48243 8.03936 6.38778 8.01254 6.28844 7.99586L2.89314 8.0205C2.5462 8.0205 2.3109 8.09932 2.18697 8.25633L2.13743 8.3305C2.11239 8.37208 2.1001 8.4383 2.1001 8.52888C2.1001 8.61999 2.125 8.73136 2.17454 8.86325C2.67031 10.0283 3.20936 11.1518 3.7916 12.2336C4.37415 13.3161 4.88007 14.1878 5.30963 14.8486C5.73919 15.5099 6.17698 16.1332 6.62326 16.7198C7.06954 17.3065 7.36475 17.6821 7.5092 17.8471C7.65366 18.0127 7.76722 18.1366 7.84988 18.219L8.15962 18.5166C8.35773 18.7148 8.64914 18.9522 9.03332 19.2291C9.41745 19.506 9.84267 19.7786 10.3097 20.0467C10.7763 20.3154 11.3197 20.534 11.9391 20.7037C12.5586 20.8733 13.1616 20.9414 13.7482 20.908H15.1733C15.4625 20.8834 15.6813 20.7929 15.8299 20.6355L15.8794 20.5737C15.9123 20.5244 15.9435 20.4478 15.9724 20.3446C16.0012 20.2415 16.016 20.1277 16.016 20.004C16.0075 19.6489 16.0346 19.3282 16.0965 19.0436C16.1583 18.7585 16.2286 18.544 16.3072 18.399C16.3857 18.2548 16.4743 18.1328 16.5736 18.0334C16.6727 17.9341 16.7427 17.8747 16.7843 17.8539C16.8256 17.8337 16.8588 17.8192 16.8834 17.8104C17.0815 17.7444 17.3149 17.8085 17.5836 18.0025C17.852 18.197 18.104 18.4361 18.3396 18.7213C18.5748 19.0064 18.8577 19.3262 19.1883 19.6816C19.5186 20.0368 19.8078 20.3011 20.0557 20.4745L20.3036 20.6237C20.4688 20.7225 20.6833 20.8133 20.9479 20.8962C21.2122 20.9786 21.4437 20.9994 21.6418 20.9581L24.8141 20.9083C25.1279 20.9083 25.3717 20.8568 25.5452 20.7534C25.7187 20.6508 25.8219 20.5364 25.855 20.4128C25.8878 20.2888 25.89 20.149 25.8613 19.9916C25.8323 19.8349 25.8033 19.7254 25.7746 19.6636C25.7456 19.6017 25.7187 19.5497 25.6938 19.5087C25.2807 18.7653 24.4918 17.8522 23.327 16.7701L23.3021 16.7455L23.2898 16.7329L23.2775 16.7208H23.2651C22.7362 16.2168 22.4018 15.8781 22.2614 15.7043C22.0054 15.3744 21.9474 15.0397 22.088 14.701C22.1865 14.4442 22.5581 13.903 23.2024 13.0766Z"/>
</mask>
<path d="M23.2024 13.0766C23.5409 12.6391 23.8096 12.2881 24.008 12.0232C25.4371 10.1232 26.0565 8.90943 25.8667 8.38026L25.7922 8.25633C25.7427 8.18189 25.6144 8.11353 25.4081 8.05166C25.2015 7.98982 24.9372 7.97994 24.6151 8.02076L21.0464 8.04593C20.9638 8.03771 20.8811 8.03963 20.7985 8.05166C20.7159 8.06422 20.6623 8.07683 20.6373 8.08885C20.6124 8.10146 20.5919 8.11157 20.5755 8.11979L20.526 8.15699C20.4847 8.18162 20.4393 8.22513 20.3898 8.28727C20.3402 8.34937 20.2986 8.42135 20.2658 8.50424C19.8775 9.50374 19.4356 10.4332 18.9399 11.2924C18.6342 11.8046 18.3532 12.249 18.0974 12.6244C17.8413 13.0006 17.6265 13.2772 17.453 13.4545C17.2796 13.6321 17.1225 13.7749 16.9822 13.8819C16.8415 13.9897 16.7343 14.0349 16.6601 14.0185C16.5857 14.002 16.5154 13.9856 16.4494 13.9687C16.3337 13.8945 16.2406 13.7935 16.1706 13.6652C16.1003 13.5375 16.053 13.3763 16.0281 13.182C16.0034 12.988 15.9887 12.8206 15.9848 12.6799C15.9804 12.5396 15.9826 12.3415 15.9911 12.0851C15.9993 11.8289 16.0034 11.6558 16.0034 11.5647C16.0034 11.2511 16.0097 10.9102 16.0221 10.5425C16.0344 10.175 16.0448 9.88359 16.053 9.66876C16.0612 9.45425 16.0653 9.22686 16.0653 8.98718C16.0653 8.74804 16.0508 8.55977 16.0217 8.42327C15.9927 8.28727 15.9492 8.15511 15.8918 8.0268C15.8338 7.89902 15.7492 7.79968 15.6376 7.72967C15.526 7.65934 15.3877 7.60381 15.2225 7.56219C14.7844 7.46285 14.2268 7.40978 13.5496 7.40106C12.013 7.38519 11.0258 7.48422 10.588 7.69873C10.4145 7.78984 10.2575 7.91351 10.1171 8.07057C9.9683 8.25253 9.94778 8.35183 10.0553 8.3677C10.5511 8.44214 10.9019 8.61999 11.1085 8.90072L11.1829 9.04928C11.2406 9.15707 11.2984 9.347 11.3564 9.6195C11.4141 9.89204 11.4513 10.1936 11.468 10.5241C11.5093 11.1271 11.5093 11.6432 11.468 12.0731C11.4267 12.5029 11.3876 12.8373 11.3504 13.0764C11.3131 13.3161 11.2573 13.5101 11.1832 13.6586C11.1087 13.8077 11.0592 13.8986 11.0343 13.9317C11.0094 13.9645 10.9889 13.9853 10.9725 13.9936C10.865 14.0346 10.7536 14.0554 10.6379 14.0554C10.5222 14.0554 10.3818 13.9974 10.2165 13.8816C10.0512 13.7664 9.87969 13.6072 9.70238 13.4047C9.52453 13.2025 9.3245 12.9193 9.10123 12.5557C8.87822 12.1926 8.64672 11.7627 8.40731 11.2672L8.2092 10.9077C8.08527 10.6768 7.91587 10.3399 7.70109 9.89803C7.48631 9.45613 7.29612 9.02876 7.13115 8.61534C7.06493 8.44214 6.96586 8.30998 6.83375 8.21887L6.77191 8.18167C6.7306 8.14881 6.66439 8.11353 6.57354 8.07656C6.48243 8.03936 6.38778 8.01254 6.28844 7.99586L2.89314 8.0205C2.5462 8.0205 2.3109 8.09932 2.18697 8.25633L2.13743 8.3305C2.11239 8.37208 2.1001 8.4383 2.1001 8.52888C2.1001 8.61999 2.125 8.73136 2.17454 8.86325C2.67031 10.0283 3.20936 11.1518 3.7916 12.2336C4.37415 13.3161 4.88007 14.1878 5.30963 14.8486C5.73919 15.5099 6.17698 16.1332 6.62326 16.7198C7.06954 17.3065 7.36475 17.6821 7.5092 17.8471C7.65366 18.0127 7.76722 18.1366 7.84988 18.219L8.15962 18.5166C8.35773 18.7148 8.64914 18.9522 9.03332 19.2291C9.41745 19.506 9.84267 19.7786 10.3097 20.0467C10.7763 20.3154 11.3197 20.534 11.9391 20.7037C12.5586 20.8733 13.1616 20.9414 13.7482 20.908H15.1733C15.4625 20.8834 15.6813 20.7929 15.8299 20.6355L15.8794 20.5737C15.9123 20.5244 15.9435 20.4478 15.9724 20.3446C16.0012 20.2415 16.016 20.1277 16.016 20.004C16.0075 19.6489 16.0346 19.3282 16.0965 19.0436C16.1583 18.7585 16.2286 18.544 16.3072 18.399C16.3857 18.2548 16.4743 18.1328 16.5736 18.0334C16.6727 17.9341 16.7427 17.8747 16.7843 17.8539C16.8256 17.8337 16.8588 17.8192 16.8834 17.8104C17.0815 17.7444 17.3149 17.8085 17.5836 18.0025C17.852 18.197 18.104 18.4361 18.3396 18.7213C18.5748 19.0064 18.8577 19.3262 19.1883 19.6816C19.5186 20.0368 19.8078 20.3011 20.0557 20.4745L20.3036 20.6237C20.4688 20.7225 20.6833 20.8133 20.9479 20.8962C21.2122 20.9786 21.4437 20.9994 21.6418 20.9581L24.8141 20.9083C25.1279 20.9083 25.3717 20.8568 25.5452 20.7534C25.7187 20.6508 25.8219 20.5364 25.855 20.4128C25.8878 20.2888 25.89 20.149 25.8613 19.9916C25.8323 19.8349 25.8033 19.7254 25.7746 19.6636C25.7456 19.6017 25.7187 19.5497 25.6938 19.5087C25.2807 18.7653 24.4918 17.8522 23.327 16.7701L23.3021 16.7455L23.2898 16.7329L23.2775 16.7208H23.2651C22.7362 16.2168 22.4018 15.8781 22.2614 15.7043C22.0054 15.3744 21.9474 15.0397 22.088 14.701C22.1865 14.4442 22.5581 13.903 23.2024 13.0766Z" stroke="white" stroke-width="2" mask="url(#path-1-inside-1_395_7019)"/>
<!-- <rect x="0.5" y="0.5" width="27" height="27" rx="6.5" stroke="white"/> -->
</svg>
