<svg width="30" height="30" viewBox="0 0 30 30" fill="none" xmlns="http://www.w3.org/2000/svg">
    <g >
        <path d="M15 0C6.72865 0 0 6.72865 0 15C0 17.8217 0.784038 20.561 2.27135 22.9396C1.67885 25.0154 0.608654 28.9419 0.597115 28.9829C0.541731 29.186 0.601154 29.4029 0.752885 29.5488C0.904615 29.6948 1.12385 29.7467 1.32346 29.6856L7.26923 27.8567C9.59827 29.2598 12.2654 30 15 30C23.2713 30 30 23.2713 30 15C30 6.72865 23.2713 0 15 0ZM15 28.8462C12.3929 28.8462 9.85327 28.1175 7.65519 26.7398C7.56231 26.6815 7.45558 26.6521 7.34885 26.6521C7.29173 26.6521 7.23462 26.6608 7.17923 26.6775L1.9875 28.2756C2.36885 26.8835 3.05423 24.3935 3.45173 23.0083C3.49788 22.8479 3.47192 22.6748 3.38135 22.5346C1.92404 20.2921 1.15385 17.6867 1.15385 15C1.15385 7.36558 7.36558 1.15385 15 1.15385C22.6344 1.15385 28.8462 7.36558 28.8462 15C28.8462 22.6344 22.6344 28.8462 15 28.8462Z" fill="white"/>
        <path d="M24.7991 18.5341C23.7341 17.9428 22.8272 17.3497 22.1655 16.917C21.6601 16.587 21.2949 16.3487 21.0272 16.2143C20.2789 15.841 19.7118 16.1047 19.496 16.3228C19.4689 16.3499 19.4447 16.3793 19.4239 16.4105C18.6468 17.5764 17.632 18.6916 17.3349 18.7516C16.9916 18.698 15.3849 17.7847 13.788 16.4549C12.1576 15.0962 11.1318 13.7953 10.9812 12.9091C12.0272 11.8326 12.4039 11.1553 12.4039 10.3845C12.4039 9.59007 10.5508 6.27334 10.2157 5.93815C9.87931 5.60238 9.12181 5.54988 7.96392 5.78065C7.85258 5.80315 7.74988 5.85796 7.66911 5.93815C7.52892 6.07834 4.24854 9.42276 5.80738 13.4762C7.51854 17.9249 11.9107 23.0958 17.5103 23.9358C18.1466 24.031 18.7432 24.0783 19.3016 24.0783C22.5958 24.0783 24.5401 22.4208 25.0876 19.133C25.1285 18.8924 25.0126 18.6524 24.7991 18.5341ZM17.6816 22.7947C11.7601 21.9068 8.03027 16.0401 6.8845 13.062C5.74796 10.1081 7.84392 7.47449 8.37008 6.87911C8.79815 6.80642 9.24873 6.77584 9.43681 6.80526C9.82969 7.35161 11.1901 9.9218 11.2501 10.3845C11.2501 10.6874 11.1514 11.1091 9.97681 12.2843C9.86834 12.3922 9.80777 12.5387 9.80777 12.6922C9.80777 15.713 16.1793 19.9037 17.3078 19.9037C18.2891 19.9037 19.5687 18.2543 20.2974 17.1795C20.3395 17.1812 20.4105 17.1956 20.5114 17.2464C20.7191 17.3508 21.0791 17.5856 21.5343 17.8833C22.1355 18.2762 22.9339 18.7978 23.8766 19.3383C23.4485 21.398 22.252 23.4812 17.6816 22.7947Z" fill="white"/>
    </g>
</svg>
