<svg width="50" height="50" viewBox="0 0 50 50" fill="none" xmlns="http://www.w3.org/2000/svg">
<g clip-path="url(#clip0)">
<path d="M22.9216 5.87305H10.49C9.73612 5.87305 9.12274 6.48643 9.12274 7.24033V22.7665C9.12274 23.5204 9.73612 24.1338 10.49 24.1338H22.9216C23.6755 24.1338 24.2889 23.5204 24.2889 22.7665V7.24033C24.2889 6.48643 23.6755 5.87305 22.9216 5.87305ZM22.8657 22.7105H10.5459V7.29619H22.8657V22.7105Z" fill="#3D626F"/>
<path d="M22.9216 25.7461H10.49C9.73612 25.7461 9.12274 26.3595 9.12274 27.1134V42.6395C9.12274 43.3935 9.73612 44.0067 10.49 44.0067H22.9216C23.6755 44.0067 24.2889 43.3934 24.2889 42.6395V27.1134C24.2889 26.3595 23.6755 25.7461 22.9216 25.7461ZM22.8657 42.5837H10.5459V27.1693H22.8657V42.5837Z" fill="#3D626F"/>
<path d="M39.51 5.87305H27.0786C26.3246 5.87305 25.7112 6.48643 25.7112 7.24033V22.7665C25.7112 23.5204 26.3246 24.1338 27.0786 24.1338H39.51C40.264 24.1338 40.8774 23.5204 40.8774 22.7665V7.24033C40.8773 6.48643 40.264 5.87305 39.51 5.87305ZM39.4542 22.7105H27.1343V7.29619H39.4542V22.7105Z" fill="#3D626F"/>
<path d="M39.51 25.7461H27.0786C26.3246 25.7461 25.7112 26.3595 25.7112 27.1134V42.6395C25.7112 43.3935 26.3246 44.0067 27.0786 44.0067H39.51C40.264 44.0067 40.8774 43.3934 40.8774 42.6395V27.1134C40.8773 26.3595 40.264 25.7461 39.51 25.7461ZM39.4542 42.5837H27.1343V27.1693H39.4542V42.5837Z" fill="#3D626F"/>
<path d="M48.1955 44.8827H46.7505V10.7508C46.7505 10.3579 46.4319 10.0392 46.0388 10.0392C45.6458 10.0392 45.3272 10.3578 45.3272 10.7508V44.8827H43.629V4.65542C43.629 3.80952 42.9408 3.12134 42.0949 3.12134H7.90496C7.05906 3.12134 6.37087 3.80952 6.37087 4.65542V44.8827H4.67263V37.8668C4.67263 37.4739 4.35408 37.1552 3.96101 37.1552C3.56794 37.1552 3.24939 37.4738 3.24939 37.8668V44.8827H1.80447C1.01804 44.8827 0.378296 45.5225 0.378296 46.3088V48.5739C0.378296 49.3603 1.01814 50 1.80447 50H48.1955C48.9819 50 49.6217 49.3602 49.6217 48.5739V46.3088C49.6217 45.5224 48.9819 44.8827 48.1955 44.8827ZM7.79402 4.65542C7.79402 4.59429 7.84373 4.54448 7.90496 4.54448H42.095C42.1561 4.54448 42.2059 4.59419 42.2059 4.65542V44.8827H7.79402V4.65542ZM48.1969 48.5768L48.1955 48.5769L1.80144 48.5739L1.80447 46.3058L48.1985 46.3088L48.1969 48.5768Z" fill="#D7D7D7"/>
<path d="M45.4077 0H4.59213C3.85179 0 3.24945 0.602246 3.24945 1.34268V34.4888C3.24945 34.8816 3.56801 35.2003 3.96107 35.2003C4.35404 35.2003 4.67269 34.8817 4.67269 34.4887V1.42314H45.3274V7.36475C45.3274 7.75771 45.6459 8.07637 46.039 8.07637C46.4321 8.07637 46.7506 7.75781 46.7506 7.36475V1.34268C46.7504 0.602246 46.1481 0 45.4077 0Z" fill="#3D626F"/>
</g>
<defs>
<clipPath id="clip0">
<rect width="50" height="50" fill="white"/>
</clipPath>
</defs>
</svg>
