<svg width="50" height="50" viewBox="0 0 50 50" fill="none" xmlns="http://www.w3.org/2000/svg">
<path d="M42.1875 4.78516V6.25H44.5801V14.7774C43.6181 14.4673 42.9199 13.5639 42.9199 12.5H41.4551C41.4551 13.8192 40.3817 14.8926 39.0625 14.8926V16.3574C40.3817 16.3574 41.4551 17.4308 41.4551 18.75H42.9199C42.9199 17.6861 43.6181 16.7827 44.5801 16.4726V48.5352H5.41992V6.25H35.9375V4.78516H3.95508V50H46.0449V4.78516H42.1875ZM42.1875 16.4926C41.9462 16.1594 41.6531 15.8663 41.3199 15.625C41.6531 15.3837 41.9462 15.0906 42.1875 14.7574C42.4288 15.0906 42.7219 15.3837 43.0551 15.625C42.7219 15.8663 42.4288 16.1594 42.1875 16.4926Z" fill="#3D626F"/>
<path d="M7.08008 7.91016V25H8.54492V9.375H22.7051V45.4102H8.54492V31.25H7.08008V46.875H24.1699V7.91016H7.08008Z" fill="#3D626F"/>
<path d="M25.8301 7.91016V43.0176H27.2949V9.375H42.1875V7.91016H25.8301Z" fill="#3D626F"/>
<path d="M41.4551 21.875V45.4102H26.5625V46.875H42.9199V21.875H41.4551Z" fill="#3D626F"/>
<path d="M13.5444 11.2495L10.4191 14.3748L11.4549 15.4106L14.5802 12.2853L13.5444 11.2495Z" fill="#3D626F"/>
<path d="M16.6695 11.25L10.4196 17.4999L11.4553 18.5357L17.7052 12.2858L16.6695 11.25Z" fill="#3D626F"/>
<path d="M32.2941 11.2494L29.1688 14.3747L30.2046 15.4105L33.3299 12.2852L32.2941 11.2494Z" fill="#3D626F"/>
<path d="M35.4191 11.25L29.1692 17.4999L30.205 18.5357L36.4549 12.2858L35.4191 11.25Z" fill="#3D626F"/>
<path d="M11.6699 25H10.2051C10.2051 26.3192 9.13174 27.3926 7.8125 27.3926V28.8574C9.13174 28.8574 10.2051 29.9308 10.2051 31.25H11.6699C11.6699 29.9308 12.7433 28.8574 14.0625 28.8574V27.3926C12.7433 27.3926 11.6699 26.3192 11.6699 25ZM10.9375 28.9926C10.6962 28.6594 10.4031 28.3663 10.0699 28.125C10.4031 27.8837 10.6962 27.5906 10.9375 27.2574C11.1788 27.5906 11.4719 27.8837 11.8051 28.125C11.4719 28.3663 11.1788 28.6594 10.9375 28.9926Z" fill="#3D626F"/>
<path d="M39.7949 0H38.3301C38.3301 1.31924 37.2567 2.39258 35.9375 2.39258V3.85742C37.2567 3.85742 38.3301 4.93076 38.3301 6.25H39.7949C39.7949 4.93076 40.8683 3.85742 42.1875 3.85742V2.39258C40.8683 2.39258 39.7949 1.31924 39.7949 0ZM39.0625 3.99258C38.8212 3.65937 38.5281 3.36631 38.1949 3.125C38.5281 2.88369 38.8212 2.59062 39.0625 2.25742C39.3038 2.59062 39.5969 2.88369 39.9301 3.125C39.5969 3.36631 39.3038 3.65937 39.0625 3.99258Z" fill="#3D626F"/>
<path d="M39.0625 26.6602H37.5V28.125H39.0625V26.6602Z" fill="#3D626F"/>
<path d="M35.1562 26.6602H33.5938V28.125H35.1562V26.6602Z" fill="#3D626F"/>
<path d="M31.25 26.6602H29.6875V28.125H31.25V26.6602Z" fill="#3D626F"/>
</svg>
