<svg width="98" height="69" viewBox="0 0 98 69" fill="none" xmlns="http://www.w3.org/2000/svg">
<path d="M77.304 0.320275C77.1087 0.125013 76.7921 0.125013 76.5969 0.320275L73.4149 3.50226C73.2196 3.69752 73.2196 4.0141 73.4149 4.20936C73.6102 4.40462 73.9268 4.40462 74.122 4.20936L76.9504 1.38093L79.7789 4.20936C79.9741 4.40462 80.2907 4.40462 80.486 4.20936C80.6812 4.0141 80.6812 3.69752 80.486 3.50226L77.304 0.320275ZM76.5969 68.0646C76.7922 68.2598 77.1087 68.2598 77.304 68.0646L80.486 64.8826C80.6812 64.6873 80.6812 64.3707 80.486 64.1755C80.2907 63.9802 79.9741 63.9802 79.7789 64.1755L76.9504 67.0039L74.122 64.1755C73.9268 63.9802 73.6102 63.9802 73.4149 64.1755C73.2196 64.3707 73.2196 64.6873 73.4149 64.8826L76.5969 68.0646ZM76.4504 0.673828L76.4504 67.711L77.4504 67.711L77.4504 0.673828L76.4504 0.673828Z" fill="#2F3B3F"/>
<path d="M90.1559 38.311C89.9359 38.311 89.7559 38.231 89.6159 38.071C89.4759 37.911 89.4059 37.691 89.4059 37.411C89.4059 36.171 89.6259 35.111 90.0659 34.231C90.5259 33.351 91.1759 32.391 92.0159 31.351C92.6959 30.491 93.1959 29.761 93.5159 29.161C93.8559 28.561 94.0259 27.891 94.0259 27.151C94.0259 26.291 93.7159 25.621 93.0959 25.141C92.4759 24.641 91.6359 24.391 90.5759 24.391C89.6759 24.391 88.8459 24.571 88.0859 24.931C87.3259 25.271 86.4659 25.801 85.5059 26.521C85.1659 26.761 84.8859 26.881 84.6659 26.881C84.4259 26.881 84.2259 26.781 84.0659 26.581C83.9259 26.361 83.8559 26.111 83.8559 25.831C83.8559 25.431 84.0159 25.081 84.3359 24.781C85.1359 24.021 86.1059 23.421 87.2459 22.981C88.4059 22.521 89.5559 22.291 90.6959 22.291C92.4359 22.291 93.8359 22.721 94.8959 23.581C95.9759 24.441 96.5159 25.571 96.5159 26.971C96.5159 28.031 96.2859 28.951 95.8259 29.731C95.3859 30.491 94.7059 31.391 93.7859 32.431C92.9259 33.411 92.2559 34.281 91.7759 35.041C91.3159 35.781 91.0359 36.641 90.9359 37.621C90.9159 37.841 90.8359 38.011 90.6959 38.131C90.5559 38.251 90.3759 38.311 90.1559 38.311ZM90.1859 43.831C89.7059 43.831 89.3059 43.671 88.9859 43.351C88.6859 43.031 88.5359 42.631 88.5359 42.151C88.5359 41.671 88.6859 41.271 88.9859 40.951C89.3059 40.611 89.7059 40.441 90.1859 40.441C90.6659 40.441 91.0559 40.611 91.3559 40.951C91.6759 41.271 91.8359 41.671 91.8359 42.151C91.8359 42.631 91.6759 43.031 91.3559 43.351C91.0559 43.671 90.6659 43.831 90.1859 43.831Z" fill="#2F3B3F"/>
<path d="M63.5763 60.5667H61.6666V3.10597C61.6687 2.81577 61.5558 2.53656 61.3526 2.32959C61.1495 2.12262 60.8726 2.0048 60.5827 2.00195H7.79254C7.50268 2.0048 7.22578 2.12262 7.02257 2.32959C6.81936 2.53655 6.70643 2.81576 6.70856 3.10597V60.5667H4.37999C4.09848 60.5671 3.82859 60.6792 3.62952 60.8785C3.43046 61.0778 3.31849 61.348 3.31818 61.6298V66.3189C3.31849 66.6007 3.43046 66.8709 3.62952 67.0702C3.82859 67.2695 4.09848 67.3816 4.37999 67.3819H63.5763C63.8578 67.3816 64.1277 67.2695 64.3267 67.0702C64.5258 66.8709 64.6378 66.6007 64.6381 66.3189V61.6298C64.6378 61.348 64.5258 61.0778 64.3267 60.8785C64.1277 60.6792 63.8578 60.5671 63.5763 60.5667ZM34.363 60.5667L34.6477 34.1126H60.0739V60.5667H34.363ZM60.0739 32.5179H34.6643L34.9754 3.59659H60.0741L60.0739 32.5179ZM33.3826 3.59659L33.0713 32.5179H8.30128V3.59659H33.3826ZM8.30128 34.1126H33.0549L32.7703 60.5667H8.30128V34.1126ZM63.0453 65.7873H4.9109V62.1614H63.0453V65.7873Z" fill="#2F3B3F"/>
<path d="M14.1983 16.7552C14.3715 16.8762 14.5857 16.9234 14.7936 16.8864C15.0015 16.8493 15.1863 16.7311 15.3071 16.5577L21.3595 7.87934C21.4804 7.70594 21.5276 7.49155 21.4906 7.28333C21.4537 7.07512 21.3356 6.89013 21.1624 6.76907C20.9892 6.64801 20.7751 6.60079 20.5671 6.6378C20.3591 6.6748 20.1744 6.79301 20.0535 6.96641L14.0011 15.6449C13.9412 15.7308 13.8988 15.8276 13.8764 15.9299C13.8539 16.0322 13.8517 16.1379 13.87 16.241C13.8883 16.3441 13.9268 16.4426 13.9831 16.5308C14.0394 16.619 14.1126 16.6953 14.1983 16.7552Z" fill="#2F3B3F"/>
<path d="M19.0269 17.7015C19.1152 17.7576 19.2137 17.7958 19.3167 17.8138C19.4198 17.8318 19.5253 17.8294 19.6274 17.8065C19.7295 17.7837 19.8261 17.741 19.9117 17.6808C19.9972 17.6206 20.0701 17.5441 20.1262 17.4556L23.4651 12.1894C23.5768 12.0109 23.6134 11.7954 23.5669 11.5899C23.5204 11.3845 23.3946 11.2058 23.217 11.0929C23.0394 10.98 22.8243 10.9421 22.6189 10.9874C22.4134 11.0327 22.2342 11.1576 22.1204 11.3348L18.7815 16.6009C18.7255 16.6893 18.6873 16.7879 18.6693 16.8911C18.6513 16.9942 18.6538 17.0999 18.6765 17.2021C18.6993 17.3043 18.742 17.401 18.8021 17.4867C18.8622 17.5724 18.9386 17.6454 19.0269 17.7015Z" fill="#2F3B3F"/>
<path d="M48.8112 40.3505C48.7254 40.2905 48.6287 40.2481 48.5265 40.2256C48.4244 40.203 48.3188 40.2009 48.2158 40.2192C48.1129 40.2376 48.0145 40.276 47.9264 40.3324C47.8382 40.3888 47.7621 40.4621 47.7022 40.5479L41.6507 49.2263C41.5897 49.3121 41.5464 49.4092 41.5231 49.5118C41.4998 49.6145 41.497 49.7208 41.515 49.8245C41.5329 49.9283 41.5712 50.0274 41.6277 50.1163C41.6841 50.2051 41.7576 50.2819 41.8438 50.3422C41.93 50.4024 42.0273 50.445 42.1301 50.4674C42.2328 50.4899 42.339 50.4917 42.4424 50.4728C42.5459 50.4539 42.6446 50.4147 42.7328 50.3575C42.8211 50.3002 42.8971 50.226 42.9566 50.1391L49.0083 41.4607C49.0681 41.3749 49.1105 41.2781 49.133 41.1758C49.1555 41.0735 49.1577 40.9678 49.1394 40.8647C49.1211 40.7616 49.0827 40.6631 49.0264 40.5749C48.97 40.4867 48.8969 40.4104 48.8112 40.3505Z" fill="#2F3B3F"/>
<path d="M50.8689 44.6704C50.6906 44.5571 50.4746 44.5193 50.2685 44.5654C50.0624 44.6116 49.883 44.7377 49.7698 44.9163L46.4308 50.1824C46.3747 50.2708 46.3366 50.3694 46.3185 50.4726C46.3005 50.5757 46.3029 50.6814 46.3257 50.7837C46.3484 50.8859 46.3911 50.9826 46.4512 51.0683C46.5113 51.154 46.5877 51.2271 46.676 51.2832C46.7643 51.3394 46.8627 51.3776 46.9658 51.3957C47.0688 51.4137 47.1744 51.4113 47.2765 51.3885C47.3786 51.3657 47.4752 51.323 47.5608 51.2628C47.6464 51.2027 47.7194 51.1262 47.7755 51.0378L51.1143 45.7715C51.1705 45.6831 51.2087 45.5845 51.2268 45.4813C51.2448 45.3781 51.2424 45.2723 51.2196 45.1701C51.1968 45.0678 51.1541 44.971 51.0939 44.8853C51.0338 44.7996 50.9573 44.7266 50.8689 44.6704Z" fill="#2F3B3F"/>
</svg>
