<svg width="53" height="46" viewBox="0 0 53 46" fill="none" xmlns="http://www.w3.org/2000/svg">
<path fill-rule="evenodd" clip-rule="evenodd" d="M49.2788 25.9815L47.9266 20.5728C48.2963 20.4943 48.5737 20.1663 48.5737 19.7734V18.9013C48.5737 17.0079 47.0333 15.4675 45.1399 15.4675H38.981V13.6688C38.981 12.7371 38.223 11.9792 37.2913 11.9792H25.8391L32.7985 9.19544C33.2178 9.02778 33.4216 8.55193 33.254 8.13267C33.0863 7.71352 32.6108 7.50945 32.1912 7.67721L26.493 9.95644C28.2293 8.84237 29.9473 7.61623 30.6013 6.75875C31.8745 5.08938 31.5521 2.69542 29.8827 1.42216C28.2133 0.148789 25.8194 0.471363 24.5461 2.14073C23.6158 3.36066 22.3883 6.78843 21.5939 9.20391C20.7994 6.78863 19.572 3.36066 18.6417 2.14073C17.3685 0.471363 14.9744 0.148993 13.3051 1.42216C11.6357 2.69532 11.3133 5.08928 12.5865 6.75875C13.2405 7.61633 14.9583 8.84237 16.6948 9.95644L10.9966 7.67721C10.5771 7.50925 10.1015 7.71342 9.9338 8.13267C9.76603 8.55193 9.97 9.02778 10.3893 9.19544L17.3486 11.9792H5.89647C4.96475 11.9792 4.20681 12.7371 4.20681 13.6688V28.4942C4.20681 28.9457 4.57283 29.3118 5.02441 29.3118C5.47589 29.3118 5.84201 28.9458 5.84201 28.4942V13.6688C5.84201 13.6388 5.86639 13.6144 5.89647 13.6144H37.2912C37.3213 13.6144 37.3456 13.6388 37.3456 13.6688V28.4944C37.3456 28.9459 37.7117 29.312 38.1632 29.312C38.6147 29.312 38.9809 28.946 38.9809 28.4944V27.5676H48.625L48.6276 27.5678L48.6302 27.5677C49.8169 27.5686 50.8245 28.3475 51.1704 29.4208H48.6282C48.1767 29.4208 47.8106 29.7868 47.8106 30.2384V31.9825C47.8106 33.3951 48.9597 34.5443 50.3723 34.5443H51.2989V38.1415H49.1612C48.4589 36.1139 46.5313 34.6532 44.2678 34.6532C42.0043 34.6532 40.0766 36.1138 39.3744 38.1415H38.9807V31.9824C38.9807 31.531 38.6147 31.1648 38.1631 31.1648C37.7117 31.1648 37.3455 31.5309 37.3455 31.9824V38.1414H20.3827C19.6805 36.1138 17.7529 34.6531 15.4893 34.6531C13.2258 34.6531 11.2981 36.1137 10.596 38.1414H5.89647C5.86639 38.1414 5.84201 38.1171 5.84201 38.087V36.2883H9.38482C9.8363 36.2883 10.2024 35.9223 10.2024 35.4707C10.2024 35.0191 9.8364 34.6531 9.38482 34.6531H1.53617C1.08468 34.6531 0.718563 35.0191 0.718563 35.4707C0.718563 35.9223 1.08458 36.2883 1.53617 36.2883H4.20691V38.087C4.20691 39.0187 4.96485 39.7766 5.89657 39.7766H10.3129C10.3128 39.7849 10.3125 39.7931 10.3122 39.8013L10.3119 39.8088C10.3116 39.8162 10.3114 39.8236 10.3114 39.8311C10.3114 42.6861 12.6343 45.009 15.4893 45.009C18.3444 45.009 20.6673 42.6861 20.6673 39.8311C20.6673 39.8211 20.6669 39.8111 20.6665 39.8012C20.6662 39.793 20.6659 39.7849 20.6658 39.7766H39.0912C39.091 39.7948 39.0898 39.8128 39.0898 39.8311C39.0898 42.6861 41.4126 45.009 44.2677 45.009C47.1227 45.009 49.4456 42.6861 49.4456 39.8311C49.4456 39.8211 49.4452 39.8112 49.4449 39.8014L49.4448 39.8011L49.4444 39.7873L49.4442 39.7766H52.1164C52.5679 39.7766 52.934 39.4106 52.934 38.959V30.2383C52.9341 28.085 51.3455 26.296 49.2788 25.9815ZM18.3515 9.0646C15.1265 7.06052 14.1699 6.13849 13.8867 5.76706C13.1602 4.81464 13.3442 3.44877 14.2968 2.72234C14.6894 2.42292 15.1522 2.27821 15.6116 2.27821C16.2666 2.27821 16.9146 2.57253 17.3416 3.13242C18.1325 4.16939 19.371 7.65957 20.1887 10.1746C19.6369 9.84967 19.0026 9.46937 18.3515 9.0646ZM22.9992 10.1745C23.8169 7.65957 25.0555 4.16949 25.8463 3.13232C26.5727 2.17989 27.9386 1.99602 28.891 2.72234C29.8435 3.44877 30.0274 4.81464 29.3011 5.76706C29.0179 6.13838 28.0613 7.06052 24.8364 9.0645C24.1855 9.46917 23.5511 9.84956 22.9992 10.1745ZM38.981 17.1025H45.1399C46.1317 17.1025 46.9386 17.9094 46.9386 18.9012V18.9557H38.981V17.1025ZM38.981 25.9324V20.5909H46.2457L47.5811 25.9324H38.981ZM15.4893 43.3739C13.5359 43.3739 11.9465 41.7846 11.9465 39.8311C11.9465 37.8776 13.5359 36.2883 15.4893 36.2883C17.4428 36.2883 19.0322 37.8776 19.0322 39.8311C19.0322 41.7846 17.4428 43.3739 15.4893 43.3739ZM44.2679 43.3739C42.3144 43.3739 40.7251 41.7846 40.7251 39.8311C40.7251 37.8776 42.3144 36.2883 44.2679 36.2883C46.2214 36.2883 47.8107 37.8776 47.8107 39.8311C47.8107 41.7846 46.2214 43.3739 44.2679 43.3739ZM51.2989 32.909H50.3724C49.8615 32.909 49.4458 32.4933 49.4458 31.9823V31.0557H51.2989V32.909ZM15.4893 38.1411C14.5576 38.1411 13.7997 38.899 13.7997 39.8307C13.7997 40.7625 14.5576 41.5204 15.4893 41.5204C16.4211 41.5204 17.179 40.7625 17.179 39.8307C17.179 38.899 16.4211 38.1411 15.4893 38.1411ZM42.5782 39.8307C42.5782 38.899 43.3362 38.1411 44.2679 38.1411C45.1996 38.1411 45.9575 38.899 45.9575 39.8307C45.9575 40.7625 45.1996 41.5204 44.2679 41.5204C43.3362 41.5204 42.5782 40.7625 42.5782 39.8307ZM34.675 34.6533H22.4659C22.0144 34.6533 21.6483 35.0193 21.6483 35.4709C21.6483 35.9224 22.0143 36.2885 22.4659 36.2885H34.675C35.1264 36.2885 35.4926 35.9224 35.4926 35.4709C35.4926 35.0193 35.1265 34.6533 34.675 34.6533ZM3.28031 31.1648H13.7452C14.1967 31.1648 14.5628 31.5308 14.5628 31.9824C14.5628 32.434 14.1967 32.8 13.7452 32.8H3.28031C2.82872 32.8 2.46271 32.434 2.46271 31.9824C2.46271 31.5308 2.82883 31.1648 3.28031 31.1648ZM13.7452 18.9554H10.2569C9.80539 18.9554 9.43927 19.3215 9.43927 19.773V26.7496C9.43927 27.2011 9.80529 27.5672 10.2569 27.5672C10.7085 27.5672 11.0745 27.2012 11.0745 26.7496V24.0789H12.8732C13.3246 24.0789 13.6908 23.7129 13.6908 23.2613C13.6908 22.8097 13.3247 22.4437 12.8732 22.4437H11.0745V20.5906H13.7452C14.1967 20.5906 14.5628 20.2246 14.5628 19.773C14.5627 19.3216 14.1967 18.9554 13.7452 18.9554ZM21.5394 21.9532C21.5394 23.0021 20.9975 23.9263 20.1793 24.4622L21.4019 26.2961C21.6524 26.6717 21.551 27.1794 21.1751 27.4298C21.0358 27.5228 20.8784 27.5672 20.7224 27.5672C20.4582 27.5672 20.1991 27.4393 20.0415 27.2031L18.5401 24.9509H17.179V26.7496C17.179 27.2012 16.813 27.5672 16.3614 27.5672C15.9098 27.5672 15.5438 27.2011 15.5438 26.7496V19.773C15.5438 19.3215 15.9099 18.9554 16.3614 18.9554H18.5416C20.1947 18.9554 21.5394 20.3002 21.5394 21.9532ZM17.179 23.3158H18.5416C19.293 23.3158 19.9042 22.7047 19.9042 21.9532C19.9042 21.2018 19.293 20.5906 18.5416 20.5906H17.179V23.3158ZM26.8263 25.9321H24.1556V24.0762L24.1645 24.0769C24.1796 24.0779 24.1947 24.079 24.21 24.079H25.9542C26.4056 24.079 26.7718 23.713 26.7718 23.2614C26.7718 22.8098 26.4057 22.4438 25.9542 22.4438H24.21C24.1947 22.4438 24.1796 22.4448 24.1646 22.4459L24.1556 22.4465V20.5906H26.8263C27.2778 20.5906 27.6439 20.2246 27.6439 19.773C27.6439 19.3216 27.2779 18.9554 26.8263 18.9554H23.338C22.8865 18.9554 22.5204 19.3215 22.5204 19.773V26.7496C22.5204 27.2011 22.8864 27.5672 23.338 27.5672H26.8263C27.2778 27.5672 27.6439 27.2012 27.6439 26.7496C27.6439 26.298 27.2778 25.9321 26.8263 25.9321ZM30.2601 25.9321H32.9309C33.3823 25.9321 33.7485 26.298 33.7485 26.7496C33.7485 27.2012 33.3823 27.5672 32.9309 27.5672H29.4425C28.9909 27.5672 28.6249 27.2011 28.6249 26.7496V19.773C28.6249 19.3215 28.991 18.9554 29.4425 18.9554H32.9309C33.3824 18.9554 33.7485 19.3216 33.7485 19.773C33.7485 20.2246 33.3823 20.5906 32.9309 20.5906H30.2601V22.4438H31.1867C31.6383 22.4438 32.0043 22.8098 32.0043 23.2614C32.0043 23.713 31.6382 24.079 31.1867 24.079H30.2601V25.9321Z" fill="#609CB0"/>
</svg>
