<svg width="80" height="80" viewBox="0 0 80 80" fill="none" xmlns="http://www.w3.org/2000/svg">
<path d="M25.6046 36.872C23.6342 36.3047 21.6639 36.0169 19.7472 36.0169C16.7875 36.0169 14.3178 36.6932 12.4028 37.5215C14.249 30.7629 18.684 19.101 27.5187 17.7877C28.3369 17.666 29.0074 17.0744 29.2306 16.2781L31.1615 9.37175C31.3243 8.78769 31.2278 8.16251 30.8947 7.65566C30.5615 7.1488 30.0261 6.81062 29.4261 6.72838C28.7741 6.63943 28.1095 6.59412 27.4507 6.59412C16.8462 6.59412 6.34409 17.6627 1.91246 33.5111C-0.688945 42.8091 -1.45174 56.7879 4.95611 65.5865C8.54186 70.5099 13.7732 73.139 20.505 73.4016C20.5327 73.4025 20.5595 73.4033 20.5872 73.4033C28.8933 73.4033 36.2586 67.8094 38.4992 59.8013C39.8376 55.0139 39.2326 49.9932 36.794 45.6605C34.3814 41.3766 30.4079 38.2541 25.6046 36.872Z" fill="white"/>
<path d="M77.5983 45.6614C75.1857 41.3766 71.2123 38.2541 66.4089 36.872C64.4385 36.3047 62.4682 36.0169 60.5524 36.0169C57.5926 36.0169 55.1221 36.6932 53.2072 37.5215C55.0533 30.7629 59.4883 19.101 68.3239 17.7877C69.1421 17.666 69.8117 17.0744 70.0358 16.2781L71.9667 9.37175C72.1295 8.78769 72.033 8.16251 71.6998 7.65566C71.3675 7.1488 70.8321 6.81062 70.2313 6.72838C69.5801 6.63943 68.9155 6.59412 68.2559 6.59412C57.6514 6.59412 47.1493 17.6627 42.7168 33.5111C40.1162 42.8091 39.3534 56.7879 45.7621 65.5882C49.347 70.5107 54.5792 73.1406 61.3101 73.4025C61.3378 73.4033 61.3647 73.4041 61.3932 73.4041C69.6984 73.4041 77.0646 67.8103 79.3052 59.8021C80.642 55.0147 80.0361 49.9932 77.5983 45.6614Z" fill="white"/>
</svg>
