<svg width="53" height="53" viewBox="0 0 53 53" fill="none" xmlns="http://www.w3.org/2000/svg">
<path fill-rule="evenodd" clip-rule="evenodd" d="M51.3534 42.9568H19.1117C18.7425 38.4859 15.1671 34.9105 10.696 34.5412V2.29949C10.696 1.42784 9.98693 0.71875 9.11528 0.71875H2.29931C1.42766 0.71875 0.718567 1.42784 0.718567 2.29949V10.0906C0.718567 10.5131 1.06103 10.8555 1.48344 10.8555C1.90586 10.8555 2.24832 10.5131 2.24832 10.0906V2.29949C2.24832 2.27145 2.27116 2.2485 2.29931 2.2485H9.11528C9.14343 2.2485 9.16627 2.27145 9.16627 2.29949V4.09787H6.55202C6.12961 4.09787 5.78715 4.44023 5.78715 4.86275C5.78715 5.28526 6.12961 5.62762 6.55202 5.62762H9.16617V7.47679H8.2679C7.84548 7.47679 7.50302 7.81915 7.50302 8.24166C7.50302 8.66418 7.84548 9.00654 8.2679 9.00654H9.16617V10.8557H6.55202C6.12961 10.8557 5.78715 11.1981 5.78715 11.6206C5.78715 12.0431 6.12961 12.3855 6.55202 12.3855H9.16617V14.2346H8.2679C7.84548 14.2346 7.50302 14.577 7.50302 14.9995C7.50302 15.422 7.84548 15.7644 8.2679 15.7644H9.16617V17.6134H6.55202C6.12961 17.6134 5.78715 17.9558 5.78715 18.3783C5.78715 18.8008 6.12961 19.1432 6.55202 19.1432H9.16617V20.9924H8.2679C7.84548 20.9924 7.50302 21.3347 7.50302 21.7572C7.50302 22.1798 7.84548 22.5221 8.2679 22.5221H9.16617V24.3719H6.55202C6.12961 24.3719 5.78715 24.7142 5.78715 25.1368C5.78715 25.5593 6.12961 25.9016 6.55202 25.9016H9.16617V27.7507H8.2679C7.84548 27.7507 7.50302 28.0931 7.50302 28.5156C7.50302 28.9381 7.84548 29.2805 8.2679 29.2805H9.16617V31.1301H6.55202C6.12961 31.1301 5.78715 31.4725 5.78715 31.895C5.78715 32.3175 6.12961 32.6599 6.55202 32.6599H9.16617V34.5093H2.24832V13.15C2.24832 12.7275 1.90586 12.3852 1.48344 12.3852C1.06103 12.3852 0.718567 12.7275 0.718567 13.15V50.4799C0.718567 51.8332 1.81968 52.9342 3.173 52.9342H18.3787H51.3534C52.225 52.9342 52.9341 52.2251 52.9341 51.3535V44.5376C52.9341 43.6659 52.225 42.9568 51.3534 42.9568ZM2.24832 50.4799V36.0389H9.93115C14.1674 36.0389 17.6139 39.4853 17.6139 43.7216V43.7217V51.4044H3.173C2.66319 51.4044 2.24832 50.9897 2.24832 50.4799ZM51.4044 51.3535C51.4044 51.3815 51.3815 51.4044 51.3534 51.4044H19.1436V44.4866H20.993V47.1007C20.993 47.5233 21.3355 47.8656 21.7579 47.8656C22.1803 47.8656 22.5227 47.5233 22.5227 47.1007V44.4866H24.3719V45.3849C24.3719 45.8074 24.7144 46.1497 25.1368 46.1497C25.5592 46.1497 25.9017 45.8074 25.9017 45.3849V44.4866H27.7507V47.1007C27.7507 47.5233 28.0932 47.8656 28.5156 47.8656C28.938 47.8656 29.2805 47.5233 29.2805 47.1007V44.4866H31.1297V45.3849C31.1297 45.8074 31.4721 46.1497 31.8945 46.1497C32.3169 46.1497 32.6594 45.8074 32.6594 45.3849V44.4866H34.5085V47.1007C34.5085 47.5233 34.8509 47.8656 35.2733 47.8656C35.6958 47.8656 36.0382 47.5233 36.0382 47.1007V44.4866H37.8874V45.3849C37.8874 45.8074 38.2298 46.1497 38.6523 46.1497C39.0747 46.1497 39.4171 45.8074 39.4171 45.3849V44.4866H41.2669V47.1007C41.2669 47.5233 41.6094 47.8656 42.0318 47.8656C42.4542 47.8656 42.7967 47.5233 42.7967 47.1007V44.4866H44.6456V45.3849C44.6456 45.8074 44.9881 46.1497 45.4105 46.1497C45.8329 46.1497 46.1754 45.8074 46.1754 45.3849V44.4866H48.0251V47.1007C48.0251 47.5233 48.3675 47.8656 48.7899 47.8656C49.2123 47.8656 49.5548 47.5233 49.5548 47.1007V44.4866H51.3534C51.3815 44.4866 51.4044 44.5095 51.4044 44.5376V51.3535ZM9.93114 41.2679C8.57772 41.2679 7.4768 42.3689 7.4768 43.7222C7.4768 45.0756 8.57782 46.1765 9.93114 46.1765C11.2845 46.1765 12.3855 45.0755 12.3855 43.7222C12.3855 42.3689 11.2845 41.2679 9.93114 41.2679ZM9.93114 44.6468C9.42132 44.6468 9.00656 44.232 9.00656 43.7222C9.00656 43.2124 9.42132 42.7976 9.93114 42.7976C10.441 42.7976 10.8557 43.2124 10.8557 43.7222C10.8557 44.232 10.441 44.6468 9.93114 44.6468ZM4.09768 43.7211C4.09768 40.5045 6.71458 37.8877 9.93114 37.8877C13.1477 37.8877 15.7645 40.5045 15.7646 43.7211C15.7646 46.9376 13.1477 49.5545 9.93114 49.5545C6.71458 49.5545 4.09768 46.9376 4.09768 43.7211ZM5.62744 43.7211C5.62744 46.0941 7.55809 48.0248 9.93114 48.0248C12.3042 48.0248 14.2347 46.0941 14.2348 43.7211C14.2348 41.3481 12.3042 39.4175 9.93114 39.4175C7.55809 39.4175 5.62744 41.3481 5.62744 43.7211Z" fill="#83AEAD"/>
<path fill-rule="evenodd" clip-rule="evenodd" d="M33.7485 4.79911C33.6442 4.69478 33.4995 4.63477 33.352 4.63477C33.2044 4.63477 33.0597 4.69478 32.9554 4.79911C32.8511 4.90344 32.791 5.04816 32.791 5.19568C32.791 5.34319 32.8511 5.48791 32.9554 5.59224C33.0597 5.69657 33.2045 5.75658 33.352 5.75658C33.4995 5.75658 33.6442 5.69657 33.7485 5.59224C33.8528 5.48791 33.9129 5.34319 33.9129 5.19568C33.9129 5.04816 33.8528 4.90344 33.7485 4.79911ZM30.0006 12.3478C29.8957 12.2435 29.7516 12.1835 29.6041 12.1835C29.4565 12.1835 29.3118 12.2435 29.2069 12.3478C29.1027 12.4521 29.0432 12.5968 29.0432 12.7444C29.0432 12.8919 29.1027 13.0366 29.2069 13.1415C29.3118 13.2458 29.456 13.3053 29.6041 13.3053C29.7516 13.3053 29.8963 13.2458 30.0006 13.1415C30.105 13.0366 30.165 12.8919 30.165 12.7444C30.165 12.5968 30.105 12.4521 30.0006 12.3478ZM27.6578 13.8986C27.8769 13.6795 28.2319 13.6795 28.451 13.8986C28.67 14.1177 28.67 14.4728 28.451 14.6919L23.452 19.6909C23.3425 19.8003 23.1989 19.8551 23.0554 19.8551C22.9119 19.8551 22.7683 19.8003 22.6588 19.6909C22.4397 19.4718 22.4397 19.1166 22.6588 18.8976L27.6578 13.8986ZM45.469 31.1064H47.1517C47.4614 31.1064 47.7126 30.8552 47.7126 30.5455V8.33753C47.7126 8.33458 47.7124 8.33167 47.7122 8.32876C47.712 8.32662 47.7119 8.32449 47.7118 8.32233V5.19649C47.7118 4.8867 47.4606 4.63558 47.1509 4.63558H36.2126C35.9029 4.63558 35.6517 4.8867 35.6517 5.19649C35.6517 5.50628 35.9029 5.7574 36.2126 5.7574H46.59V7.77662H20.1158V5.7574H30.6956C31.0053 5.7574 31.2565 5.50628 31.2565 5.19649C31.2565 4.8867 31.0053 4.63558 30.6956 4.63558H19.5549C19.2452 4.63558 18.994 4.8867 18.994 5.19649V8.33747V30.5454C18.994 30.8551 19.2452 31.1063 19.5549 31.1063H38.5139V32.1335C38.5139 32.1666 38.5156 32.1992 38.5183 32.2317H27.1044C26.7946 32.2317 26.5435 32.4828 26.5435 32.7926C26.5435 33.1023 26.7946 33.3535 27.1044 33.3535H47.1517C47.4614 33.3535 47.7126 33.1023 47.7126 32.7926C47.7126 32.4828 47.4614 32.2317 47.1517 32.2317H45.4647C45.4673 32.1992 45.469 32.1666 45.469 32.1335V31.1064ZM32.7928 29.9845H20.1158V28.5776L30.5657 18.1276C30.7848 17.9086 30.7848 17.5534 30.5657 17.3344C30.3467 17.1153 29.9916 17.1153 29.7725 17.3344L20.1158 26.9911V8.89838H32.7928V29.9845ZM44.3472 32.1334C44.3472 32.1876 44.3032 32.2316 44.2491 32.2316H39.7339C39.6797 32.2316 39.6357 32.1876 39.6357 32.1334V26.6227H44.3472V32.1334ZM40.9752 25.5009H40.4733C40.3223 24.7679 40.115 24.0519 39.8568 23.3725C40.4506 23.9133 40.8555 24.677 40.9752 25.5009ZM40.3118 20.0616C41.3639 20.8165 42.0204 22.0432 42.0407 23.3585C41.9523 23.6864 41.8818 24.0199 41.8301 24.3576C41.6871 23.9788 41.4971 23.6199 41.2664 23.2922C41.0666 22.1795 40.7474 21.0982 40.3118 20.0616ZM42.9802 21.1093C42.9113 21.2273 42.8458 21.3473 42.7822 21.4683C42.7023 21.2702 42.6104 21.0774 42.5075 20.8909L42.5083 20.8833L42.5083 20.8832C42.5094 20.8731 42.5105 20.863 42.5109 20.8526C42.513 20.8021 42.5596 19.8636 43.1902 19.1422C43.0465 19.7585 42.9726 20.3914 42.9726 21.0212C42.9726 21.0512 42.9756 21.0805 42.9802 21.1093ZM44.2321 21.2234C43.8274 22.6037 43.5619 24.1291 43.5079 25.5009H42.8512C42.8964 23.9608 43.3854 22.4773 44.2321 21.2234ZM44.9081 25.5009H44.6307C44.7262 23.3021 45.4182 20.617 46.3152 19.0531C46.3229 19.0399 46.3316 19.0227 46.3381 19.0088C46.4469 18.7771 46.385 18.5009 46.1876 18.3379C45.9901 18.1748 45.7073 18.1661 45.5003 18.3168C45.0626 18.6355 44.6576 18.9904 44.2882 19.3754C44.3975 18.9134 44.5515 18.4621 44.7491 18.033C44.8486 17.8166 44.8007 17.5609 44.6295 17.3953C44.4583 17.2297 44.2012 17.1902 43.9882 17.2969L43.3858 17.5988C42.3518 18.1175 41.8536 18.9938 41.6132 19.7014C41.2005 19.2889 40.7173 18.9417 40.1766 18.6832L39.2998 18.2642C39.0799 18.1591 38.8174 18.208 38.6501 18.3851C38.4828 18.5622 38.449 18.8272 38.5664 19.0406L38.625 19.147C39.1181 20.0432 39.5103 20.9846 39.7992 21.9593C39.7266 21.919 39.6532 21.8802 39.5782 21.8444L38.8429 21.493C38.623 21.388 38.3604 21.4368 38.1932 21.614C38.0259 21.7912 37.9921 22.0561 38.1097 22.2696L38.1587 22.3587C38.6739 23.2951 39.0724 24.3712 39.3259 25.5007H39.0746C38.7649 25.5007 38.5137 25.7519 38.5137 26.0617V29.9844H33.9144V8.89838H46.5906V29.9845H45.4688V26.0618C45.469 25.752 45.2178 25.5009 44.9081 25.5009ZM24.4988 32.2315C24.6463 32.2315 24.7905 32.2915 24.8954 32.3959C24.9997 32.5002 25.0597 32.6449 25.0597 32.7924C25.0597 32.9399 24.9997 33.0847 24.8954 33.1889C24.7911 33.2933 24.6464 33.3533 24.4988 33.3533C24.3513 33.3533 24.2066 33.2933 24.1023 33.1889C23.9974 33.0847 23.9379 32.9399 23.9379 32.7924C23.9379 32.6449 23.9974 32.5002 24.1023 32.3959C24.2066 32.2915 24.3513 32.2315 24.4988 32.2315Z" fill="#83AEAD"/>
</svg>
