<svg width="81" height="68" viewBox="0 0 81 68" fill="none" xmlns="http://www.w3.org/2000/svg">
<g clip-path="url(#clip0_203:1536)">
<path d="M58.5846 45.8257V22.1736C58.5819 20.052 56.5536 18.3324 54.0513 18.3301H26.1538C23.6515 18.3324 21.6232 20.052 21.6205 22.1736V45.8257C21.6232 47.9473 23.6515 49.6669 26.1538 49.6692H54.0513C56.5536 49.6669 58.5819 47.9473 58.5846 45.8257ZM56.4923 45.8257C56.4909 46.9685 55.3991 47.8941 54.0513 47.8953H26.1538C24.8059 47.8941 23.7142 46.9685 23.7128 45.8257V22.1736C23.7142 21.0308 24.8059 20.1051 26.1538 20.104H54.0513C55.3991 20.1051 56.4909 21.0308 56.4923 22.1736V45.8257Z" fill="white"/>
<path d="M52.6952 22.4365H27.5099C26.9323 22.4365 26.4637 22.8338 26.4637 23.3235V44.6763C26.4637 45.1659 26.9323 45.5632 27.5099 45.5632H52.6952C53.2728 45.5632 53.7414 45.1659 53.7414 44.6763V23.3235C53.7414 22.8338 53.2728 22.4365 52.6952 22.4365ZM51.6491 43.7893H28.5561V24.2104H51.6491V43.7893Z" fill="white"/>
<path d="M30.1253 0C29.5477 0 29.0791 0.397283 29.0791 0.886956V3.25217H28.7304C28.1528 3.25217 27.6843 3.64946 27.6843 4.13913V7.68696H27.5099C26.9323 7.68696 26.4637 8.08424 26.4637 8.57391V15.9652C26.4637 16.4549 26.9323 16.8522 27.5099 16.8522H32.7407C33.3182 16.8522 33.7868 16.4549 33.7868 15.9652V8.57391C33.7868 8.08424 33.3182 7.68696 32.7407 7.68696H32.5663V4.13913C32.5663 3.64946 32.0977 3.25217 31.5202 3.25217H31.1714V0.886956C31.1714 0.397283 30.7028 0 30.1253 0ZM31.6945 9.46087V15.0783H28.5561V9.46087H28.7304C29.308 9.46087 29.7766 9.06359 29.7766 8.57391V5.02609H30.474V8.57391C30.474 9.06359 30.9426 9.46087 31.5202 9.46087H31.6945Z" fill="white"/>
<path d="M50.0798 0C49.5023 0 49.0337 0.397283 49.0337 0.886956V3.25217H48.685C48.1074 3.25217 47.6388 3.64946 47.6388 4.13913V7.68696H47.4645C46.8869 7.68696 46.4183 8.08424 46.4183 8.57391V15.9652C46.4183 16.4549 46.8869 16.8522 47.4645 16.8522H52.6952C53.2728 16.8522 53.7414 16.4549 53.7414 15.9652V8.57391C53.7414 8.08424 53.2728 7.68696 52.6952 7.68696H52.5209V4.13913C52.5209 3.64946 52.0523 3.25217 51.4747 3.25217H51.126V0.886956C51.126 0.397283 50.6574 0 50.0798 0ZM51.6491 9.46087V15.0783H48.5106V9.46087H48.685C49.2625 9.46087 49.7311 9.06359 49.7311 8.57391V5.02609H50.4286V8.57391C50.4286 9.06359 50.8972 9.46087 51.4747 9.46087H51.6491Z" fill="white"/>
<path d="M40.1026 0C39.525 0 39.0564 0.397283 39.0564 0.886956V3.25217H38.7077C38.1301 3.25217 37.6616 3.64946 37.6616 4.13913V7.68696H37.4872C36.9096 7.68696 36.441 8.08424 36.441 8.57391V15.9652C36.441 16.4549 36.9096 16.8522 37.4872 16.8522H42.718C43.2955 16.8522 43.7641 16.4549 43.7641 15.9652V8.57391C43.7641 8.08424 43.2955 7.68696 42.718 7.68696H42.5436V4.13913C42.5436 3.64946 42.075 3.25217 41.4975 3.25217H41.1487V0.886956C41.1487 0.397283 40.6802 0 40.1026 0ZM41.6718 9.46087V15.0783H38.5334V9.46087H38.7077C39.2853 9.46087 39.7539 9.06359 39.7539 8.57391V5.02609H40.4513V8.57391C40.4513 9.06359 40.9199 9.46087 41.4975 9.46087H41.6718Z" fill="white"/>
<path d="M52.6952 51.1475H47.4645C46.8869 51.1475 46.4183 51.5447 46.4183 52.0344V59.4257C46.4183 59.9154 46.8869 60.3127 47.4645 60.3127H47.6388V63.8605C47.6388 64.3502 48.1074 64.7475 48.685 64.7475H49.0337V67.1127C49.0337 67.6024 49.5023 67.9996 50.0798 67.9996C50.6574 67.9996 51.126 67.6024 51.126 67.1127V64.7475H51.4747C52.0523 64.7475 52.5209 64.3502 52.5209 63.8605V60.3127H52.6952C53.2728 60.3127 53.7414 59.9154 53.7414 59.4257V52.0344C53.7414 51.5447 53.2728 51.1475 52.6952 51.1475ZM51.6491 58.5388H51.4747C50.8972 58.5388 50.4286 58.936 50.4286 59.4257V62.9735H49.7311V59.4257C49.7311 58.936 49.2625 58.5388 48.685 58.5388H48.5106V52.9214H51.6491V58.5388Z" fill="white"/>
<path d="M30.1253 67.9996C30.7028 67.9996 31.1714 67.6024 31.1714 67.1127V64.7475H31.5202C32.0977 64.7475 32.5663 64.3502 32.5663 63.8605V60.3127H32.7407C33.3182 60.3127 33.7868 59.9154 33.7868 59.4257V52.0344C33.7868 51.5447 33.3182 51.1475 32.7407 51.1475H27.5099C26.9323 51.1475 26.4637 51.5447 26.4637 52.0344V59.4257C26.4637 59.9154 26.9323 60.3127 27.5099 60.3127H27.6843V63.8605C27.6843 64.3502 28.1528 64.7475 28.7304 64.7475H29.0791V67.1127C29.0791 67.6024 29.5477 67.9996 30.1253 67.9996ZM28.5561 58.5388V52.9214H31.6945V58.5388H31.5202C30.9426 58.5388 30.474 58.936 30.474 59.4257V62.9735H29.7766V59.4257C29.7766 58.936 29.308 58.5388 28.7304 58.5388H28.5561Z" fill="white"/>
<path d="M40.1026 67.9996C40.6802 67.9996 41.1487 67.6024 41.1487 67.1127V64.7475H41.4975C42.075 64.7475 42.5436 64.3502 42.5436 63.8605V60.3127H42.718C43.2955 60.3127 43.7641 59.9154 43.7641 59.4257V52.0344C43.7641 51.5447 43.2955 51.1475 42.718 51.1475H37.4872C36.9096 51.1475 36.441 51.5447 36.441 52.0344V59.4257C36.441 59.9154 36.9096 60.3127 37.4872 60.3127H37.6616V63.8605C37.6616 64.3502 38.1301 64.7475 38.7077 64.7475H39.0564V67.1127C39.0564 67.6024 39.525 67.9996 40.1026 67.9996ZM38.5334 58.5388V52.9214H41.6718V58.5388H41.4975C40.9199 58.5388 40.4513 58.936 40.4513 59.4257V62.9735H39.7539V59.4257C39.7539 58.936 39.2853 58.5388 38.7077 58.5388H38.5334Z" fill="white"/>
<path d="M70.0923 22.4365H61.3743C60.7968 22.4365 60.3282 22.8338 60.3282 23.3235V27.7583C60.3282 28.2479 60.7968 28.6452 61.3743 28.6452H70.0923C70.6699 28.6452 71.1384 28.2479 71.1384 27.7583V27.6104H75.3231C75.9006 27.6104 76.3692 27.2132 76.3692 26.7235V26.4278H79.159C79.7365 26.4278 80.2051 26.0305 80.2051 25.5409C80.2051 25.0512 79.7365 24.6539 79.159 24.6539H76.3692V24.3583C76.3692 23.8686 75.9006 23.4713 75.3231 23.4713H71.1384V23.3235C71.1384 22.8338 70.6699 22.4365 70.0923 22.4365ZM74.2769 25.2452V25.8365H70.0923C69.5147 25.8365 69.0461 26.2338 69.0461 26.7235V26.8713H62.4205V24.2104H69.0461V24.3583C69.0461 24.8479 69.5147 25.2452 70.0923 25.2452H74.2769Z" fill="white"/>
<path d="M60.3282 44.6762C60.3282 45.1659 60.7968 45.5632 61.3743 45.5632H70.0923C70.6699 45.5632 71.1384 45.1659 71.1384 44.6762V44.5284H75.3231C75.9006 44.5284 76.3692 44.1311 76.3692 43.6414V43.3458H79.159C79.7365 43.3458 80.2051 42.9485 80.2051 42.4588C80.2051 41.9692 79.7365 41.5719 79.159 41.5719H76.3692V41.2762C76.3692 40.7866 75.9006 40.3893 75.3231 40.3893H71.1384V40.2414C71.1384 39.7518 70.6699 39.3545 70.0923 39.3545H61.3743C60.7968 39.3545 60.3282 39.7518 60.3282 40.2414V44.6762ZM62.4205 41.1284H69.0461V41.2762C69.0461 41.7659 69.5147 42.1632 70.0923 42.1632H74.2769V42.7545H70.0923C69.5147 42.7545 69.0461 43.1518 69.0461 43.6414V43.7893H62.4205V41.1284Z" fill="white"/>
<path d="M60.3282 36.2173C60.3282 36.7069 60.7968 37.1042 61.3743 37.1042H70.0923C70.6699 37.1042 71.1384 36.7069 71.1384 36.2173V36.0694H75.3231C75.9006 36.0694 76.3692 35.6721 76.3692 35.1825V34.8868H79.159C79.7365 34.8868 80.2051 34.4895 80.2051 33.9999C80.2051 33.5102 79.7365 33.1129 79.159 33.1129H76.3692V32.8173C76.3692 32.3276 75.9006 31.9303 75.3231 31.9303H71.1384V31.7825C71.1384 31.2928 70.6699 30.8955 70.0923 30.8955H61.3743C60.7968 30.8955 60.3282 31.2928 60.3282 31.7825V36.2173ZM62.4205 32.6694H69.0461V32.8173C69.0461 33.3069 69.5147 33.7042 70.0923 33.7042H74.2769V34.2955H70.0923C69.5147 34.2955 69.0461 34.6928 69.0461 35.1825V35.3303H62.4205V32.6694Z" fill="white"/>
<path d="M1.04615 43.3458H3.8359V43.6414C3.8359 44.1311 4.30449 44.5284 4.88205 44.5284H9.06667V44.6762C9.06667 45.1659 9.53526 45.5632 10.1128 45.5632H18.8308C19.4083 45.5632 19.8769 45.1659 19.8769 44.6762V40.2414C19.8769 39.7518 19.4083 39.3545 18.8308 39.3545H10.1128C9.53526 39.3545 9.06667 39.7518 9.06667 40.2414V40.3893H4.88205C4.30449 40.3893 3.8359 40.7866 3.8359 41.2762V41.5719H1.04615C0.46859 41.5719 0 41.9692 0 42.4588C0 42.9485 0.46859 43.3458 1.04615 43.3458ZM5.9282 42.1632H10.1128C10.6904 42.1632 11.159 41.7659 11.159 41.2762V41.1284H17.7846V43.7893H11.159V43.6414C11.159 43.1518 10.6904 42.7545 10.1128 42.7545H5.9282V42.1632Z" fill="white"/>
<path d="M10.1128 28.6452H18.8308C19.4083 28.6452 19.8769 28.2479 19.8769 27.7583V23.3235C19.8769 22.8338 19.4083 22.4365 18.8308 22.4365H10.1128C9.53526 22.4365 9.06667 22.8338 9.06667 23.3235V23.4713H4.88205C4.30449 23.4713 3.8359 23.8686 3.8359 24.3583V24.6539H1.04615C0.46859 24.6539 0 25.0512 0 25.5409C0 26.0305 0.46859 26.4278 1.04615 26.4278H3.8359V26.7235C3.8359 27.2132 4.30449 27.6104 4.88205 27.6104H9.06667V27.7583C9.06667 28.2479 9.53526 28.6452 10.1128 28.6452ZM5.9282 25.8365V25.2452H10.1128C10.6904 25.2452 11.159 24.8479 11.159 24.3583V24.2104H17.7846V26.8713H11.159V26.7235C11.159 26.2338 10.6904 25.8365 10.1128 25.8365H5.9282Z" fill="white"/>
<path d="M1.04615 34.8868H3.8359V35.1825C3.8359 35.6721 4.30449 36.0694 4.88205 36.0694H9.06667V36.2173C9.06667 36.7069 9.53526 37.1042 10.1128 37.1042H18.8308C19.4083 37.1042 19.8769 36.7069 19.8769 36.2173V31.7825C19.8769 31.2928 19.4083 30.8955 18.8308 30.8955H10.1128C9.53526 30.8955 9.06667 31.2928 9.06667 31.7825V31.9303H4.88205C4.30449 31.9303 3.8359 32.3276 3.8359 32.8173V33.1129H1.04615C0.46859 33.1129 0 33.5102 0 33.9999C0 34.4895 0.46859 34.8868 1.04615 34.8868ZM5.9282 33.7042H10.1128C10.6904 33.7042 11.159 33.3069 11.159 32.8173V32.6694H17.7846V35.3303H11.159V35.1825C11.159 34.6928 10.6904 34.2955 10.1128 34.2955H5.9282V33.7042Z" fill="white"/>
</g>
<defs>
<clipPath id="clip0_203:1536">
<rect width="80.2051" height="68" fill="white"/>
</clipPath>
</defs>
</svg>
