<svg width="53" height="53" viewBox="0 0 53 53" fill="none" xmlns="http://www.w3.org/2000/svg">
<path fill-rule="evenodd" clip-rule="evenodd" d="M45.8507 4.17563H51.9143C52.4775 4.17563 52.9341 4.63221 52.9341 5.19547V18.0534C52.9341 18.6167 52.4775 19.0733 51.9143 19.0733H42.4745C41.1262 21.0654 38.7693 22.8932 36.1049 22.8932C35.815 22.8932 35.5352 22.8806 35.2657 22.8574L24.8975 33.2254C24.4929 33.63 23.7657 33.5361 23.4552 33.2254L4.04903 13.8193C3.61122 13.3815 3.68169 12.7444 4.04903 12.3769L15.4057 1.02036C15.804 0.622118 16.4497 0.622118 16.848 1.02036L20.3071 4.47944L24.411 3.01006C27.3145 1.69417 30.0331 2.49719 31.0704 2.90533C31.0856 2.91124 31.1005 2.91746 31.1153 2.92419C34.3019 4.35696 36.0715 5.3773 37.2422 6.05244C38.7645 6.93031 39.3097 7.24462 40.9674 7.38934V7.09583C40.9674 6.53257 41.424 6.07599 41.9872 6.07599H44.8308V5.19547C44.8308 4.63221 45.2874 4.17563 45.8507 4.17563ZM18.4511 5.50815L16.1267 3.18374L13.8023 5.50815C14.4933 5.93556 15.292 6.16411 16.1267 6.16411C16.9614 6.16411 17.7602 5.93546 18.4511 5.50815ZM6.21251 13.0981L8.53692 15.4226C8.96433 14.7315 9.19288 13.9327 9.19288 13.0981C9.19288 12.2634 8.96423 11.4646 8.53692 10.7737L6.21251 13.0981ZM21.8524 28.738L24.1764 31.062L26.5003 28.738C25.0813 27.8623 23.2713 27.8623 21.8524 28.738ZM20.3831 27.2688C22.6368 25.634 25.716 25.634 27.9697 27.2688L30.2987 24.9398C29.2277 23.4559 28.8307 21.5668 29.2184 19.7711L25.775 18.6024C25.5163 19.59 24.9997 20.4963 24.2624 21.2336C23.129 22.3669 21.6403 22.9336 20.1516 22.9336C18.6629 22.9336 17.1742 22.3668 16.041 21.2336C13.7743 18.9669 13.7743 15.2789 16.0409 13.0122C16.8763 12.1769 17.9413 11.6199 19.0917 11.4069C19.4489 10.6689 20.0224 10.059 20.7534 9.65164C21.1862 9.41045 21.6504 9.2536 22.1263 9.18333L19.9205 6.97753C18.8252 7.77392 17.5096 8.20388 16.1268 8.20388C14.744 8.20388 13.4285 7.77392 12.3332 6.97753L10.0062 9.30439C10.8027 10.3997 11.2325 11.7153 11.2325 13.0981C11.2325 14.4808 10.8026 15.7965 10.0062 16.8918L20.3831 27.2688ZM21.7963 17.2521C21.7872 17.249 21.7783 17.2457 21.7693 17.2425C20.0297 16.5969 18.9017 15.2005 18.7134 13.6338C18.2571 13.8219 17.8382 14.0994 17.4833 14.4546C16.0119 15.926 16.0119 18.32 17.4833 19.7913C18.9545 21.2628 21.3487 21.2626 22.8201 19.7913C23.3331 19.2783 23.6816 18.6392 23.8356 17.9442L21.7963 17.2521ZM31.1166 21.3494C31.1518 22.0966 31.3745 22.8287 31.7682 23.4702L32.9152 22.3232C32.2021 22.0486 31.6051 21.7025 31.1166 21.3494ZM36.1049 20.8533C38.126 20.8533 40.0007 19.2315 40.9673 17.6468V9.43288C38.6962 9.24534 37.8921 8.78162 36.2232 7.8192C35.0229 7.12704 33.3799 6.17971 30.3017 4.79467C29.4872 4.47791 27.4092 3.87651 25.2231 4.88126C25.2095 4.88748 25.1958 4.89339 25.182 4.899L25.1712 4.90329C25.1604 4.90767 25.147 4.91267 25.1361 4.91665L21.9024 6.07457L25.6645 9.83674L25.6665 9.83868L25.7299 9.90211L32.9967 12.2049C33.5337 12.3751 33.831 12.9483 33.6609 13.4852C33.4908 14.0221 32.9176 14.3197 32.3806 14.1493L23.2436 11.2539C22.7369 11.1135 22.2057 11.177 21.7461 11.4331C21.2835 11.6908 20.9488 12.1129 20.8031 12.6218L20.8024 12.6244L20.8018 12.6265C20.4883 13.7316 21.1723 14.8396 22.4662 15.3253L30.5747 18.0773C30.8232 18.1617 31.018 18.3324 31.1368 18.5447C31.1425 18.5531 31.1628 18.5801 31.1855 18.6104C31.2146 18.6492 31.2477 18.6933 31.2594 18.7105C31.6499 19.2062 32.8346 20.4579 35.037 20.7778L35.041 20.7784C35.3724 20.8264 35.7267 20.8533 36.1049 20.8533ZM43.007 17.0334H44.8308V8.11566H43.007V17.0334ZM46.8705 17.0334H50.8945V6.2153H46.8705V17.0334ZM37.3368 14.1346C37.3235 14.0693 37.3041 14.005 37.2776 13.9428C37.2521 13.8816 37.2215 13.8225 37.1838 13.7674C37.1471 13.7113 37.1043 13.6593 37.0573 13.6124C37.0104 13.5655 36.9584 13.5227 36.9023 13.4859C36.8473 13.4492 36.7881 13.4176 36.7269 13.3921C36.6647 13.3666 36.6005 13.3462 36.5362 13.334C36.4046 13.3075 36.269 13.3075 36.1374 13.334C36.0722 13.3462 36.0079 13.3666 35.9467 13.3921C35.8845 13.4176 35.8254 13.4492 35.7703 13.4859C35.7142 13.5227 35.6622 13.5655 35.6153 13.6124C35.5684 13.6593 35.5255 13.7113 35.4888 13.7674C35.4521 13.8225 35.4205 13.8816 35.395 13.9428C35.3695 14.005 35.3491 14.0693 35.3369 14.1346C35.3236 14.1998 35.3165 14.2671 35.3165 14.3334C35.3165 14.3997 35.3236 14.467 35.3369 14.5323C35.3491 14.5976 35.3695 14.6618 35.395 14.723C35.4205 14.7852 35.4521 14.8444 35.4888 14.8994C35.5255 14.9555 35.5684 15.0075 35.6153 15.0544C35.6622 15.1014 35.7142 15.1442 35.7703 15.1809C35.8254 15.2176 35.8845 15.2492 35.9467 15.2747C36.0079 15.3002 36.0722 15.3196 36.1374 15.3329C36.2027 15.3461 36.27 15.3533 36.3363 15.3533C36.4026 15.3533 36.4699 15.3461 36.5362 15.3329C36.6005 15.3196 36.6647 15.3002 36.7269 15.2747C36.7881 15.2492 36.8473 15.2176 36.9023 15.1809C36.9584 15.1442 37.0104 15.1014 37.0573 15.0544C37.1043 15.0075 37.1471 14.9555 37.1838 14.8994C37.2215 14.8444 37.2521 14.7852 37.2776 14.723C37.3041 14.6618 37.3235 14.5976 37.3368 14.5323C37.35 14.467 37.3561 14.3997 37.3561 14.3334C37.3561 14.2671 37.35 14.1998 37.3368 14.1346ZM47.6233 40.983L47.6303 41.0005C48.7666 43.9153 46.53 45.8614 45.0291 46.5519C45.0022 46.5644 44.9746 46.5756 44.9467 46.5856L29.2421 52.2086C28.0504 52.7488 26.8893 52.932 25.8633 52.932C24.3894 52.932 23.1938 52.5541 22.5822 52.3135C22.5743 52.3104 22.5664 52.3071 22.5585 52.3038L22.5374 52.2946C19.3509 50.8619 17.5813 49.8415 16.4106 49.1664L16.4104 49.1663C14.8881 48.2885 14.3429 47.9741 12.6853 47.8295V48.123C12.6853 48.6862 12.2287 49.1428 11.6655 49.1428H8.82187V50.0233C8.82187 50.5866 8.36529 51.0432 7.80204 51.0432H1.7384C1.17515 51.0432 0.718567 50.5866 0.718567 50.0233V37.1656C0.718567 36.6023 1.17515 36.1457 1.7384 36.1457H11.178C12.5264 34.1535 14.8834 32.3257 17.5477 32.3257C21.3601 32.3257 23.3963 34.4758 24.0464 35.316L31.8564 37.9668L31.8711 37.9719L31.8834 37.9763C33.3322 38.514 34.3568 39.5726 34.7676 40.8166L41.8726 38.8518C44.4779 37.962 46.6793 38.7738 47.6179 40.9702L47.6233 40.983ZM2.75824 49.0034H6.7822V38.1853H2.75824V49.0034ZM8.82187 47.1031H10.6456V38.1853H8.82187V47.1031ZM28.5166 50.3017L44.2141 44.6813C44.6661 44.4657 46.4049 43.5043 45.7359 41.7566C45.0896 40.2679 43.6378 40.4041 42.5319 40.7818L34.8747 42.9031C34.8566 42.9857 34.8358 43.0683 34.8124 43.1509C34.5183 44.1855 33.8388 45.0436 32.8993 45.5671C32.2916 45.9057 31.6221 46.0781 30.9452 46.0781C30.5754 46.0781 30.2033 46.0267 29.8379 45.9228C29.8281 45.92 29.8184 45.9171 29.8088 45.914L20.6558 43.0135C20.1189 42.8433 19.8215 42.2702 19.9917 41.7332C20.1618 41.1963 20.7348 40.8989 21.272 41.0691L30.409 43.9646C30.9155 44.1047 31.4468 44.0414 31.9065 43.7853C32.3701 43.527 32.7054 43.1036 32.8505 42.593C33.1649 41.4875 32.4808 40.379 31.1864 39.8931L23.0812 37.1422C22.8561 37.0658 22.6647 36.9132 22.5402 36.7106C22.4825 36.6197 21.0138 34.3653 17.5478 34.3653C15.5267 34.3653 13.652 35.9872 12.6853 37.5716V45.7855C14.9562 45.9731 15.7604 46.4368 17.4289 47.3989L17.4295 47.3992C18.6298 48.0914 20.2727 49.0387 23.3508 50.4237C24.1652 50.7404 26.2433 51.3419 28.4295 50.3372C28.4431 50.3309 28.4569 50.325 28.4706 50.3194C28.4842 50.3139 28.5029 50.3066 28.5166 50.3017ZM18.2577 40.4949C18.2832 40.5571 18.3026 40.6213 18.3158 40.6866C18.3291 40.7519 18.3362 40.8192 18.3362 40.8855C18.3362 40.9518 18.3291 41.0191 18.3158 41.0843C18.3026 41.1496 18.2832 41.2139 18.2577 41.275C18.2322 41.3373 18.2006 41.3964 18.1639 41.4515C18.1272 41.5076 18.0843 41.5596 18.0374 41.6065C17.9905 41.6534 17.9385 41.6962 17.8824 41.733C17.8273 41.7697 17.7682 41.8014 17.706 41.8269C17.6448 41.8524 17.5805 41.8728 17.5153 41.885C17.45 41.8983 17.3827 41.9054 17.3164 41.9054C17.2501 41.9054 17.1828 41.8983 17.1175 41.885C17.0522 41.8728 16.988 41.8524 16.9258 41.8269C16.8646 41.8014 16.8054 41.7698 16.7504 41.733C16.6943 41.6962 16.6423 41.6534 16.5954 41.6065C16.5485 41.5596 16.5056 41.5076 16.4689 41.4515C16.4312 41.3964 16.4006 41.3373 16.3751 41.275C16.3496 41.2139 16.3292 41.1496 16.3169 41.0843C16.3037 41.0191 16.2966 40.9518 16.2966 40.8855C16.2966 40.8192 16.3037 40.7519 16.3169 40.6866C16.3292 40.6213 16.3496 40.5571 16.3751 40.4949C16.4006 40.4337 16.4312 40.3745 16.4689 40.3195C16.5056 40.2634 16.5485 40.2114 16.5954 40.1644C16.6423 40.1175 16.6943 40.0747 16.7504 40.038C16.8054 40.0013 16.8646 39.9697 16.9258 39.9442C16.988 39.9187 17.0522 39.8983 17.1175 39.886C17.2481 39.8595 17.3837 39.8595 17.5153 39.886C17.5805 39.8983 17.6448 39.9187 17.706 39.9442C17.7682 39.9697 17.8273 40.0013 17.8824 40.038C17.9385 40.0747 17.9905 40.1175 18.0374 40.1644C18.0843 40.2114 18.1272 40.2634 18.1639 40.3195C18.2006 40.3745 18.2322 40.4337 18.2577 40.4949Z" fill="#609CB0"/>
</svg>
